<svg width="42" height="42" viewBox="0 0 42 42" fill="none" xmlns="http://www.w3.org/2000/svg">
<path d="M31.8524 10.3854C31.7819 10.4693 26.8391 16.3547 27.1501 15.9845C26.9824 13.5121 26.538 11.1771 25.8406 9.10844C27.0044 8.55975 28.0971 7.86279 29.1095 7.0489C30.1791 8.03157 31.1049 9.14504 31.8524 10.3854ZM28.7694 19.5372C28.1131 21.302 27.4635 22.6534 26.6916 23.9961C26.9964 22.3677 27.1721 20.6538 27.2064 18.8875H27.2583C27.7672 19.3942 28.2816 19.4306 28.7694 19.5372ZM10.3771 18.8875C10.4356 21.9418 10.9068 24.848 11.7521 27.3719C10.3516 28.0467 9.42328 28.6469 8.46328 29.4256C6.00381 27.1541 4.24072 23.9524 3.73272 20.5658C3.64928 20.0163 3.60633 19.4532 3.58309 18.8875H10.3771ZM14.9144 3.50858C13.8717 4.5515 12.9497 6.02912 12.2029 7.87951C11.2399 7.41663 10.3189 6.86267 9.46755 6.20115C11.1972 4.87631 13.0114 4.01031 14.9144 3.50858ZM28.1116 6.20978C27.2655 6.8672 26.3501 7.41852 25.3924 7.8792C24.6455 6.02891 23.7236 4.5516 22.6812 3.50901C24.7721 4.05909 26.5309 4.98173 28.1116 6.20978ZM9.46019 30.2727C10.3365 29.585 11.2384 29.0622 12.2015 28.5896C12.8445 30.1707 13.741 31.786 14.9426 32.9788C12.9674 32.4664 11.1425 31.5823 9.46019 30.2727ZM19.4435 31.489V27.1076C20.944 27.1688 22.4328 27.4381 23.8515 27.9347C22.53 29.3833 21.1025 30.5459 19.4435 31.489ZM18.1514 32.1527C17.653 32.3818 17.1609 32.5819 16.6806 32.7503C15.1739 31.725 14.0749 29.7755 13.3878 28.0778C14.9232 27.5036 16.5322 27.1732 18.1514 27.1048V32.1527ZM19.4435 25.8254V18.8875H25.9147C25.8571 21.7453 25.4284 24.4741 24.643 26.8668C22.9722 26.2399 21.2171 25.8929 19.4435 25.8254ZM19.4435 17.5954V10.6565C21.2368 10.5863 22.9938 10.2381 24.6475 9.61234C25.4315 11.9751 25.8692 14.7077 25.9263 17.5954H19.4435ZM24.2055 8.3894C22.6913 8.96459 21.086 9.29667 19.4435 9.36649V3.07556C21.261 3.44675 22.9857 5.36139 24.2055 8.3894ZM18.1514 3.07556V9.3667C16.5104 9.2973 14.9049 8.96501 13.3894 8.3894C14.6089 5.36224 16.3339 3.44696 18.1514 3.07556ZM18.1514 10.6567V17.5954H11.6691C11.7262 14.7084 12.1636 11.9769 12.9476 9.61213C14.6027 10.2385 16.3596 10.5868 18.1514 10.6567ZM18.1514 18.8875V25.8252C16.3906 25.8935 14.6394 26.2395 12.9613 26.8628C12.1775 24.4906 11.7393 21.766 11.6817 18.8875H18.1514ZM8.48283 7.05048C9.49704 7.86384 10.5908 8.56028 11.7546 9.10855C10.9073 11.6233 10.4355 14.5304 10.3771 17.5954H3.57715C3.67362 17.2207 3.51364 11.6121 8.48283 7.05048ZM37.1556 21.0175C30.2988 35.5094 16.8101 40.7848 7.40385 38.3561C4.81788 37.7398 1.99052 35.1916 1.67549 32.2513C1.3784 30.8563 1.96588 28.4153 4.22063 26.0346C4.39811 26.3405 4.93795 27.2731 5.1544 27.5634C4.88074 28.1105 4.70955 28.6377 4.6341 29.1665C4.14021 32.5649 7.73835 34.9963 11.1482 34.9963C13.9916 34.9963 17.1471 34.2811 20.019 32.6643C24.041 30.3809 27.6502 26.4067 30.0684 19.7658C30.1514 19.7804 37.6318 21.1016 37.1556 21.0175ZM39.432 20.1014C39.349 20.0868 28.4961 18.1748 28.5928 18.1918C28.5915 18.191 28.5898 18.191 28.5886 18.191C27.9971 18.0903 27.7019 17.3449 28.1082 16.861C28.1086 16.861 28.1086 16.861 28.1086 16.8602C28.177 16.7787 35.3659 8.20569 35.1783 8.42936C35.5811 7.94902 36.3594 8.07954 36.5769 8.67584L40.3447 19.0129C40.561 19.6056 40.0551 20.2093 39.432 20.1014Z" fill="#00B8FF"/>
</svg>
