<svg width="46" height="29" viewBox="0 0 46 29" fill="none" xmlns="http://www.w3.org/2000/svg">
<path d="M45.4322 13.427L41.7336 15.5714C41.1902 15.8861 40.4928 15.6992 40.179 15.1535L33.688 3.85956C33.3742 3.31369 33.5612 2.61354 34.1044 2.29828L37.803 0.152904C38.3464 -0.16225 39.0439 0.0255179 39.3576 0.571393L45.8486 11.8648C46.1617 12.4098 45.9729 13.1127 45.4322 13.427ZM33.9418 19.2878L30.5613 17.3116C29.9658 16.9616 29.4413 17.8713 30.0354 18.2189L34.3001 20.7129C35.9022 21.649 34.4945 24.0812 32.8914 23.143L28.3825 20.5058C27.7885 20.1583 27.2617 21.0656 27.8564 21.4131L31.2702 23.4105C32.8724 24.3475 31.4631 26.7774 29.8612 25.8406L26.2036 23.7016C25.6088 23.3537 25.0829 24.2608 25.6776 24.6088L28.4627 26.2379C30.0638 27.1752 28.6541 29.6042 27.0529 28.668L24.6477 27.2607C25.5099 25.5585 24.1206 23.7903 22.4552 23.7257C23.7059 21.8196 21.964 19.7482 20.1145 19.9262C20.4464 17.8333 17.7838 16.1916 16.0976 17.683C15.9202 17.1888 15.5798 16.759 15.1531 16.4577C14.1593 15.7559 12.6734 15.7319 11.7556 17.0428L10.668 18.5957L7.40333 14.5001L12.8723 4.98523L17.6142 6.68661L15.5499 8.71794C15.4545 8.81088 15.3977 8.93679 15.3916 9.07006L15.1702 13.7527C15.123 14.7524 15.544 15.2343 15.9059 15.4635C16.575 15.8854 17.5689 15.7797 18.7047 15.1641C19.6668 14.6423 20.227 13.4396 20.7688 12.2772C20.8959 12.0042 21.0172 11.7441 21.1391 11.5032C21.2406 11.4555 21.3421 11.4068 21.4437 11.3586C22.7547 10.7336 23.8867 10.1936 25.0065 10.8433L35.3495 16.857C36.9506 17.7902 35.5445 20.2244 33.9418 19.2878ZM20.4368 24.7853L18.8638 27.033C18.3134 27.8183 17.4919 27.7637 16.9219 27.3615C16.3523 26.9582 16.0236 26.2011 16.5732 25.4152L19.2584 21.5802C20.3252 20.0591 22.6146 21.676 21.5478 23.1995L20.4378 24.7843L20.4368 24.7853ZM23.5818 27.0084L22.6186 28.3833C21.8513 29.4792 20.5484 28.9426 20.1615 28.105C20.0219 27.8026 19.9375 27.3237 20.3285 26.7661L21.2917 25.3902C22.3582 23.8665 24.6483 25.4853 23.5818 27.0084ZM33.119 4.9698L38.5002 14.3322L35.628 15.8054L25.5297 9.93371C23.772 8.91295 22.0634 9.91828 20.5384 10.6256C20.4345 10.6738 20.3492 10.7544 20.2957 10.8557C19.729 11.9284 19.0822 13.7661 18.2082 14.2397C17.3045 14.729 16.7031 14.7255 16.4628 14.5736C16.2342 14.4295 16.2015 14.0744 16.2144 13.8025L16.4261 9.32683C16.806 8.95601 17.1526 8.61334 17.4887 8.28044C20.4689 5.33105 21.3684 4.44104 24.4792 5.129C26.5055 5.57711 29.5742 6.03498 33.119 4.9698ZM18.8117 20.3927L15.555 25.0439C14.4889 26.566 12.1979 24.9494 13.265 23.4256L15.7568 19.8665L16.5214 18.7754C17.589 17.2508 19.8778 18.8707 18.8117 20.3927ZM12.3118 3.85956L5.82094 15.1535C5.5072 15.6992 4.80999 15.8861 4.26635 15.5714L0.567863 13.427C0.0265294 13.1125 -0.161338 12.4088 0.151252 11.8648L6.64235 0.571393C6.95556 0.0266731 7.65727 -0.160255 8.19693 0.152904L11.8954 2.29828C12.4369 2.61207 12.6247 3.31579 12.3118 3.85956ZM14.9017 19.2627L12.98 22.0076C12.4164 22.783 11.618 22.7467 11.0381 22.3366C10.4684 21.9329 10.1397 21.1751 10.6901 20.3894L12.6107 17.6465C13.6779 16.1223 15.9662 17.7402 14.9017 19.2627Z" fill="#00B8FF"/>
</svg>
