<svg width="38" height="34" viewBox="0 0 38 34" fill="none" xmlns="http://www.w3.org/2000/svg">
<path d="M29.7103 26.158C28.725 26.5036 27.6648 26.6917 26.5603 26.6917C21.3412 26.6917 17.1103 22.4926 17.1103 17.3127C17.1103 12.1329 21.3412 7.93379 26.5603 7.93379C27.6648 7.93379 28.725 8.12184 29.7103 8.46749V7.62116C29.7103 4.16793 26.8897 1.36853 23.4103 1.36853H9.04028C9.74636 2.09878 10.1803 3.09019 10.1803 4.18221V31.7785C10.1803 32.2775 10.7401 32.5754 11.1588 32.2994L12.3977 31.4828C12.4809 31.4277 12.5845 31.4159 12.6771 31.4484C12.6903 31.4531 12.7033 31.4584 12.716 31.465L14.2829 32.2644C14.7348 32.4948 15.271 32.4948 15.7229 32.2644L17.3101 31.4546C17.4005 31.4087 17.5078 31.4087 17.5981 31.4546L19.1853 32.2644C19.6373 32.4948 20.1735 32.4948 20.6254 32.2644L22.2126 31.4546C22.303 31.4087 22.4102 31.4087 22.5006 31.4546L24.0878 32.2644C24.5397 32.4948 25.076 32.4948 25.5279 32.2644L27.0976 31.4637C27.1975 31.4124 27.3173 31.4184 27.4118 31.4787L28.7398 32.3253C29.159 32.5929 29.7103 32.2941 29.7103 31.7995V26.158Z" fill="#00B8FF"/>
<path fill-rule="evenodd" clip-rule="evenodd" d="M29.7089 24.8181C30.1497 24.6356 30.5711 24.416 30.9689 24.1632C33.2423 22.7188 34.7489 20.1903 34.7489 17.3126C34.7489 14.4349 33.2423 11.9064 30.9689 10.462C30.5711 10.2092 30.1497 9.98964 29.7089 9.80718C28.7392 9.40583 27.6751 9.1842 26.5589 9.1842C22.0357 9.1842 18.3689 12.8234 18.3689 17.3126C18.3689 21.8018 22.0357 25.4411 26.5589 25.4411C27.6751 25.4411 28.7392 25.2194 29.7089 24.8181ZM26.8739 18.2505C26.178 18.2505 25.6139 17.6906 25.6139 17V13.8737C25.6139 13.5283 25.8959 13.2484 26.2439 13.2484C26.5918 13.2484 26.8739 13.5283 26.8739 13.8737V17H30.0239C30.3718 17 30.6539 17.2799 30.6539 17.6253C30.6539 17.9706 30.3718 18.2505 30.0239 18.2505H26.8739Z" fill="#00B8FF"/>
<path d="M6.13927 1.36926C7.67997 1.39799 8.92 2.64648 8.92 4.18244V10.7489C8.91934 11.0937 8.63754 11.373 8.29 11.373H3.88C3.85827 11.373 3.83675 11.3719 3.81558 11.3698C3.4979 11.3377 3.25 11.0714 3.25 10.7477V4.18244C3.25 2.62719 4.57659 1.34014 6.13927 1.36926Z" fill="#00B8FF"/>
</svg>
