<svg width="21" height="22" viewBox="0 0 21 22" fill="none" xmlns="http://www.w3.org/2000/svg">
<g clip-path="url(#clip0_31_81)">
<path d="M11.3203 9.74609H9.67969V11.3867H11.3203V9.74609Z" fill="#92DC63"/>
<path d="M18.5391 1.95312H17.5547V0.3125H15.9141V1.95312H5.08594V0.3125H3.44531V1.95312H2.46094C1.10398 1.95312 0 3.0571 0 4.41406V18.8516C0 20.2085 1.10398 21.3125 2.46094 21.3125H7.91602H8.03906H10.9004C10.3332 20.8443 9.83924 20.2908 9.43765 19.6719H8.03906H7.91602H2.46094C2.00862 19.6719 1.64062 19.3039 1.64062 18.8516V8.02344H19.3594V9.66406V9.74609V9.75015C19.9782 10.1517 20.5318 10.6458 21 11.2129V9.74609V9.66406V4.41406C21 3.0571 19.896 1.95312 18.5391 1.95312ZM19.3594 6.38281H1.64062V4.41406C1.64062 3.96174 2.00862 3.59375 2.46094 3.59375H3.44531V5.23438H5.08594V3.59375H15.9141V5.23438H17.5547V3.59375H18.5391C18.9914 3.59375 19.3594 3.96174 19.3594 4.41406V6.38281Z" fill="#92DC63"/>
<path d="M15.4629 10.2383C12.4097 10.2383 9.92578 12.7222 9.92578 15.7754C9.92578 18.8286 12.4097 21.3125 15.4629 21.3125C18.5161 21.3125 21 18.8286 21 15.7754C21 12.7222 18.5161 10.2383 15.4629 10.2383ZM15.4629 19.6719C13.3144 19.6719 11.5664 17.9239 11.5664 15.7754C11.5664 13.6269 13.3144 11.8789 15.4629 11.8789C17.6114 11.8789 19.3594 13.6269 19.3594 15.7754C19.3594 17.9239 17.6114 19.6719 15.4629 19.6719Z" fill="#92DC63"/>
<path d="M16.2422 13.0273H14.6016V16.5957H17.6367V14.9551H16.2422V13.0273Z" fill="#92DC63"/>
<path d="M8.03906 13.0273H6.39844V14.668H8.03906V13.0273Z" fill="#92DC63"/>
<path d="M4.75781 13.0273H3.11719V14.668H4.75781V13.0273Z" fill="#92DC63"/>
<path d="M4.75781 9.74609H3.11719V11.3867H4.75781V9.74609Z" fill="#92DC63"/>
<path d="M4.75781 16.3086H3.11719V17.9492H4.75781V16.3086Z" fill="#92DC63"/>
<path d="M8.03906 9.74609H6.39844V11.3867H8.03906V9.74609Z" fill="#92DC63"/>
<path d="M8.03906 16.3086H6.39844V17.9492H8.03906V16.3086Z" fill="#92DC63"/>
</g>
<defs>
<clipPath id="clip0_31_81">
<rect width="21" height="21" fill="white" transform="translate(0 0.3125)"/>
</clipPath>
</defs>
</svg>
