<svg width="19" height="19" viewBox="0 0 19 19" fill="none" xmlns="http://www.w3.org/2000/svg">
<g clip-path="url(#clip0_3110_8463)">
<path d="M10.2422 8.53516H8.75781V10.0195H10.2422V8.53516Z" fill="#414047"/>
<path d="M16.7734 1.48438H15.8828V0H14.3984V1.48438H4.60156V0H3.11719V1.48438H2.22656C0.998836 1.48438 0 2.48321 0 3.71094V16.7734C0 18.0012 0.998836 19 2.22656 19H7.16211H7.27344H9.86226C9.34911 18.5764 8.90217 18.0756 8.53883 17.5156H7.27344H7.16211H2.22656C1.81732 17.5156 1.48438 17.1827 1.48438 16.7734V6.97656H17.5156V8.46094V8.53516V8.53883C18.0755 8.90217 18.5764 9.34915 19 9.86226V8.53516V8.46094V3.71094C19 2.48321 18.0012 1.48438 16.7734 1.48438ZM17.5156 5.49219H1.48438V3.71094C1.48438 3.3017 1.81732 2.96875 2.22656 2.96875H3.11719V4.45312H4.60156V2.96875H14.3984V4.45312H15.8828V2.96875H16.7734C17.1827 2.96875 17.5156 3.3017 17.5156 3.71094V5.49219Z" fill="#414047"/>
<path d="M13.9902 8.98047C11.2278 8.98047 8.98047 11.2278 8.98047 13.9902C8.98047 16.7526 11.2278 19 13.9902 19C16.7526 19 19 16.7526 19 13.9902C19 11.2278 16.7526 8.98047 13.9902 8.98047ZM13.9902 17.5156C12.0463 17.5156 10.4648 15.9341 10.4648 13.9902C10.4648 12.0463 12.0463 10.4648 13.9902 10.4648C15.9341 10.4648 17.5156 12.0463 17.5156 13.9902C17.5156 15.9341 15.9341 17.5156 13.9902 17.5156Z" fill="#414047"/>
<path d="M14.6953 11.5039H13.2109V14.7324H15.957V13.248H14.6953V11.5039Z" fill="#414047"/>
<path d="M7.27344 11.5039H5.78906V12.9883H7.27344V11.5039Z" fill="#414047"/>
<path d="M4.30469 11.5039H2.82031V12.9883H4.30469V11.5039Z" fill="#414047"/>
<path d="M4.30469 8.53516H2.82031V10.0195H4.30469V8.53516Z" fill="#414047"/>
<path d="M4.30469 14.4727H2.82031V15.957H4.30469V14.4727Z" fill="#414047"/>
<path d="M7.27344 8.53516H5.78906V10.0195H7.27344V8.53516Z" fill="#414047"/>
<path d="M7.27344 14.4727H5.78906V15.957H7.27344V14.4727Z" fill="#414047"/>
</g>
<defs>
<clipPath id="clip0_3110_8463">
<rect width="19" height="19" fill="white"/>
</clipPath>
</defs>
</svg>
