<svg width="27" height="27" viewBox="0 0 27 27" fill="none" xmlns="http://www.w3.org/2000/svg">
<path d="M19.8225 12.0936C19.3388 12.0936 18.9563 11.6998 18.9563 11.2273C18.9563 10.8111 18.54 9.94481 17.8425 9.19106C17.1563 8.45981 16.4025 8.0323 15.7725 8.0323C15.2888 8.0323 14.9062 7.63855 14.9062 7.16605C14.9062 6.69355 15.3 6.2998 15.7725 6.2998C16.8975 6.2998 18.0788 6.9073 19.1138 7.99856C20.0813 9.02231 20.7 10.2936 20.7 11.2161C20.7 11.6998 20.3063 12.0936 19.8225 12.0936Z" fill="#FFE14D"/>
<path d="M23.8837 12.0938C23.4 12.0938 23.0175 11.7 23.0175 11.2275C23.0175 7.23375 19.7662 3.99375 15.7837 3.99375C15.3 3.99375 14.9175 3.6 14.9175 3.1275C14.9175 2.655 15.3 2.25 15.7725 2.25C20.7225 2.25 24.75 6.2775 24.75 11.2275C24.75 11.7 24.3562 12.0938 23.8837 12.0938Z" fill="#FFE14D"/>
<path d="M13.2637 15.9863L9.585 19.665C9.18 19.305 8.78625 18.9337 8.40375 18.5512C7.245 17.3812 6.19875 16.155 5.265 14.8725C4.3425 13.59 3.6 12.3075 3.06 11.0363C2.52 9.75375 2.25 8.5275 2.25 7.3575C2.25 6.5925 2.385 5.86125 2.655 5.18625C2.925 4.5 3.3525 3.87 3.94875 3.3075C4.66875 2.59875 5.45625 2.25 6.28875 2.25C6.60375 2.25 6.91875 2.3175 7.2 2.4525C7.4925 2.5875 7.75125 2.79 7.95375 3.0825L10.5637 6.76125C10.7662 7.0425 10.9125 7.30125 11.0137 7.54875C11.115 7.785 11.1712 8.02125 11.1712 8.235C11.1712 8.505 11.0925 8.775 10.935 9.03375C10.7887 9.2925 10.575 9.5625 10.305 9.8325L9.45 10.7212C9.32625 10.845 9.27 10.9913 9.27 11.1713C9.27 11.2613 9.28125 11.34 9.30375 11.43C9.3375 11.52 9.37125 11.5875 9.39375 11.655C9.59625 12.0262 9.945 12.51 10.44 13.095C10.9462 13.68 11.4862 14.2763 12.0712 14.8725C12.4762 15.2663 12.87 15.6488 13.2637 15.9863Z" fill="#FFE14D"/>
<path d="M24.7163 20.6212C24.7163 20.9362 24.66 21.2624 24.5475 21.5774C24.5138 21.6674 24.48 21.7574 24.435 21.8474C24.2438 22.2524 23.9963 22.6349 23.67 22.9949C23.1188 23.6024 22.5113 24.0412 21.825 24.3224C21.8138 24.3224 21.8025 24.3337 21.7913 24.3337C21.1275 24.6037 20.4075 24.7499 19.6313 24.7499C18.4838 24.7499 17.2575 24.4799 15.9638 23.9287C14.67 23.3774 13.3763 22.6349 12.0938 21.7012C11.655 21.3749 11.2163 21.0487 10.8 20.6999L14.4788 17.0212C14.7938 17.2574 15.075 17.4374 15.3113 17.5612C15.3675 17.5837 15.435 17.6174 15.5138 17.6512C15.6038 17.6849 15.6938 17.6962 15.795 17.6962C15.9863 17.6962 16.1325 17.6287 16.2563 17.5049L17.1113 16.6612C17.3925 16.3799 17.6625 16.1662 17.9213 16.0312C18.18 15.8737 18.4388 15.7949 18.72 15.7949C18.9338 15.7949 19.1588 15.8399 19.4063 15.9412C19.6538 16.0424 19.9125 16.1887 20.1938 16.3799L23.9175 19.0237C24.21 19.2262 24.4125 19.4624 24.5363 19.7437C24.6488 20.0249 24.7163 20.3062 24.7163 20.6212Z" fill="#FFE14D"/>
</svg>
