<svg width="24" height="24" viewBox="0 0 24 24" fill="none" xmlns="http://www.w3.org/2000/svg">
<path d="M23.3994 2.89706C23.3795 2.83446 23.0117 2.94259 22.9491 2.95413C22.2937 3.10223 21.6609 3.3388 21.0568 3.63523C19.8369 4.2308 18.7425 5.05442 17.7053 5.92076C15.4253 7.82743 13.3449 9.97061 11.4583 12.2649C11.4128 12.054 10.6687 8.73077 9.24656 7.98408C8.77342 7.7362 8.33168 7.75606 8.33168 7.75606C7.72178 7.7817 7.1918 8.15784 6.9409 8.5455C6.38807 9.40606 6.70711 10.2556 7.01783 11.0506C7.63055 12.6236 8.24622 14.1941 8.85891 15.7672C9.06404 16.2916 9.29487 16.8502 9.76242 17.1637C10.3809 17.5798 11.2472 17.4259 11.8571 16.9985C12.4698 16.5739 12.8859 15.9298 13.2964 15.3055C13.5358 14.9407 13.7809 14.5787 14.026 14.2169C14.8468 13.0142 15.7019 11.8344 16.5908 10.6773C17.4771 9.52313 18.3977 8.3918 19.3467 7.28585C20.2958 6.18013 21.276 5.10288 22.2879 4.05405C22.5416 3.79185 22.7952 3.52958 23.0517 3.27042C23.103 3.21912 23.4193 2.9597 23.3994 2.89706Z" fill="#FFE04B"/>
<path d="M11.1162 1.48389C9.697 1.48389 8.32032 1.7632 7.02378 2.31026C5.77257 2.84027 4.64699 3.59842 3.68084 4.56463C2.71463 5.53078 1.95666 6.65355 1.42647 7.90757C0.879385 9.20396 0.600098 10.5806 0.600098 11.9998C0.600098 13.419 0.879414 14.7957 1.42647 16.0922C1.95666 17.3462 2.71463 18.4692 3.68084 19.4353C4.64696 20.4015 5.76964 21.1595 7.02367 21.6897C8.3204 22.237 9.69686 22.5161 11.1161 22.5161C12.5353 22.5161 13.9119 22.2368 15.2085 21.6897C16.4597 21.1597 17.5853 20.4015 18.5515 19.4354C19.5176 18.4692 20.2756 17.3464 20.8058 16.0924C21.3531 14.7957 21.6322 13.4192 21.6322 12C21.6322 10.5808 21.3529 9.20408 20.8058 7.90757C20.7374 7.74515 20.6663 7.58554 20.5891 7.42886C20.4352 7.60561 20.2814 7.78233 20.1275 7.95884C19.7826 8.36062 19.4379 8.77113 19.0987 9.18143C19.4123 10.0649 19.5804 11.0139 19.5804 12C19.5804 16.6653 15.7842 20.4643 11.1161 20.4643C6.45077 20.4643 2.65181 16.6681 2.65181 12C2.65181 7.33464 6.44801 3.53566 11.1161 3.53566C13.1937 3.53566 15.1004 4.28809 16.5737 5.53632C16.7304 5.40234 16.8872 5.26834 17.0469 5.13457C17.386 4.84948 17.7707 4.53896 18.1926 4.22247C17.3119 3.41874 16.3087 2.77761 15.2086 2.31026C13.9119 1.76297 12.5354 1.48389 11.1162 1.48389Z" fill="#FFE04B"/>
</svg>
