<svg width="16" height="16" viewBox="0 0 16 16" fill="none" xmlns="http://www.w3.org/2000/svg">
<path d="M1.66297 7.12261C1.34809 7.12349 1.03988 7.21351 0.77402 7.38225C0.508158 7.55099 0.295501 7.79155 0.160653 8.0761C0.0258053 8.36066 -0.0257229 8.67757 0.0120299 8.99019C0.0497827 9.30281 0.175274 9.59835 0.373985 9.84262L4.61003 15.0318C4.76107 15.2193 4.95467 15.3681 5.17476 15.4658C5.39485 15.5635 5.63508 15.6073 5.87548 15.5935C6.38965 15.5659 6.85385 15.2908 7.14981 14.8386L15.9492 0.667241C15.9506 0.664891 15.9521 0.66254 15.9537 0.660224C16.0362 0.533455 16.0094 0.282232 15.839 0.124411C15.7922 0.0810712 15.737 0.0477744 15.6768 0.0265708C15.6167 0.00536722 15.5528 -0.00329413 15.4892 0.00112034C15.4255 0.00553482 15.3635 0.0229317 15.3068 0.0522393C15.2501 0.0815469 15.2001 0.122145 15.1597 0.171533C15.1565 0.175416 15.1533 0.17924 15.1499 0.183006L6.27565 10.2096C6.24188 10.2478 6.20087 10.2788 6.15499 10.301C6.10912 10.3232 6.0593 10.336 6.00842 10.3387C5.95754 10.3415 5.90662 10.3341 5.85863 10.317C5.81063 10.2999 5.7665 10.2735 5.72882 10.2392L2.78362 7.55902C2.47773 7.27862 2.07793 7.12293 1.66297 7.12261Z" fill="white"/>
</svg>
