<svg width="31" height="26" viewBox="0 0 31 26" fill="none" xmlns="http://www.w3.org/2000/svg">
<path fill-rule="evenodd" clip-rule="evenodd" d="M13.8317 4.77898L8.14517 1.10808C7.82192 0.899427 7.40487 0.957896 7.14975 1.24756L7.08259 1.32378C6.81439 1.62838 6.82051 2.08648 7.09672 2.38361C9.94068 5.44433 11.5889 6.88681 12.505 9.55248C12.5121 9.57298 12.5275 9.58735 12.5483 9.59256C12.5691 9.59777 12.5894 9.59242 12.605 9.57762L15.5045 6.83714C15.5281 6.81474 15.5647 6.81474 15.5884 6.83714L18.4879 9.57762C18.5035 9.59242 18.5238 9.59777 18.5446 9.59256C18.5654 9.58735 18.5808 9.57305 18.5879 9.55248C19.5041 6.88688 21.1522 5.44433 23.9962 2.38368C24.2725 2.08655 24.2786 1.62845 24.0104 1.32385L23.9432 1.24763C23.6882 0.957896 23.2711 0.899498 22.9478 1.10815L17.2613 4.77906C16.191 5.47011 14.9023 5.47011 13.8317 4.77898ZM9.26836 14.01L15.5047 8.11556C15.5283 8.09316 15.5649 8.09316 15.5887 8.11556L21.825 14.01C22.4376 14.5891 22.751 15.3193 22.751 16.1678V24.2193C22.751 25.2001 21.9608 26 20.9919 26H17.9952C17.9613 26 17.9337 25.972 17.9337 25.9377V20.86C17.9337 19.5311 16.8595 18.4438 15.5467 18.4438C14.2339 18.4438 13.1597 19.5311 13.1597 20.86V25.9377C13.1597 25.972 13.1321 26 13.0982 26H10.1015C9.13259 26 8.34239 25.2001 8.34239 24.2193V16.1678C8.34232 15.3193 8.65569 14.5891 9.26836 14.01ZM27.685 6.73803C27.8996 7.02988 27.9162 7.37463 27.691 7.65535C26.4372 9.2185 25.69 10.7669 25.69 12.2932C25.69 14.648 27.7815 16.538 29.4088 18.2127C29.6756 18.4872 29.682 18.925 29.4234 19.2074L29.3609 19.2757C29.1357 19.5217 28.7851 19.5787 28.4951 19.4165C26.8551 18.5 25.2697 18.0592 23.7362 18.0706C23.7191 18.0708 23.7045 18.0647 23.6924 18.0526C23.6804 18.0404 23.6743 18.0256 23.6743 18.0084V16.1677C23.6743 15.0603 23.2546 14.0826 22.4552 13.3269L21.2508 12.1885C21.2278 12.1667 21.2247 12.1313 21.2435 12.1057C22.8646 9.90857 24.6557 8.01025 26.7102 6.57502C27.0253 6.35496 27.4564 6.42695 27.685 6.73803ZM28.6899 10.3469C27.4141 10.3469 26.3799 11.3938 26.3799 12.6853C26.3799 13.9767 27.4141 15.0236 28.6899 15.0236C29.9657 15.0236 31 13.9767 31 12.6853C31 11.3938 29.9657 10.3469 28.6899 10.3469ZM3.4082 6.73803C3.63688 6.42695 4.06799 6.35496 4.38331 6.57516C6.43776 8.01039 8.22889 9.90871 9.85 12.1059C9.86886 12.1314 9.86573 12.1669 9.8427 12.1886L8.63836 13.327C7.83883 14.0827 7.4192 15.0605 7.4192 16.1678V18.0085C7.4192 18.0258 7.41308 18.0405 7.40104 18.0527C7.389 18.0648 7.37425 18.0709 7.35726 18.0708C5.82377 18.0594 4.23835 18.5002 2.59838 19.4167C2.30832 19.5788 1.95779 19.5218 1.7326 19.2758L1.67004 19.2076C1.41144 18.9252 1.41784 18.4874 1.68458 18.2129C3.31189 16.5382 5.40337 14.6482 5.40337 12.2933C5.40337 10.7669 4.65617 9.21864 3.40236 7.65549C3.17709 7.37463 3.19366 7.02988 3.4082 6.73803ZM2.31006 10.4359C1.03426 10.4359 0 11.4828 0 12.7743C0 14.0657 1.03426 15.1127 2.31006 15.1127C3.58587 15.1127 4.62012 14.0657 4.62012 12.7743C4.62012 11.4828 3.58587 10.4359 2.31006 10.4359ZM15.49 0C16.7659 0 17.8001 1.04694 17.8001 2.33839C17.8001 3.62983 16.7659 4.67677 15.49 4.67677C14.2142 4.67677 13.18 3.62983 13.18 2.33839C13.18 1.04694 14.2142 0 15.49 0Z" fill="#00B8FF"/>
</svg>
