<svg width="32" height="32" viewBox="0 0 32 32" fill="none" xmlns="http://www.w3.org/2000/svg">
<path fill-rule="evenodd" clip-rule="evenodd" d="M19.9283 23.6237V31.8235C19.9283 31.977 19.767 32.0573 19.6629 31.9527L17.1007 29.3746C16.728 29.0001 16.2952 28.7027 15.8144 28.4909C15.6759 28.4296 15.5179 28.4296 15.3798 28.4909C14.8985 28.7027 14.4658 29.0001 14.094 29.3746L11.5309 31.9527C11.4276 32.0571 11.2646 31.9766 11.2646 31.8235V23.8959C11.4075 24.0154 11.5367 24.1555 11.6458 24.3163C13.4138 26.9219 17.3416 26.9337 19.123 24.3163C19.333 24.0081 19.6113 23.7741 19.9283 23.6237ZM15.3847 21.0081C10.6492 21.0081 6.79795 17.2459 6.79795 12.6213C6.79795 7.99724 10.6492 4.23456 15.3847 4.23456C20.1189 4.23456 23.972 7.99724 23.972 12.6213C23.9719 17.2458 20.1189 21.0081 15.3847 21.0081ZM26.7742 9.82962C25.7101 9.14042 25.2066 7.95241 25.4594 6.7292C25.9448 4.38148 23.8223 2.3073 21.4172 2.78171C20.1652 3.02867 18.9488 2.53687 18.2427 1.49762C16.8857 -0.499208 13.8834 -0.499208 12.5268 1.49762C11.8207 2.53687 10.6038 3.02874 9.35234 2.78171C6.94722 2.3073 4.8234 4.38021 5.31009 6.7292C5.56252 7.95241 5.0594 9.14042 3.99445 9.82962C1.95042 11.1546 1.95042 14.0885 3.99445 15.413C5.05947 16.1022 5.56259 17.2906 5.31009 18.5134C4.82391 20.8624 6.94635 22.9358 9.35147 22.4609C10.5817 22.2183 11.8087 22.6888 12.5269 23.7454C13.8848 25.7435 16.8866 25.7413 18.2428 23.7454C18.9489 22.7062 20.1653 22.2139 21.4173 22.4609C23.8224 22.9353 25.9448 20.8616 25.4595 18.5134C25.2067 17.2906 25.7102 16.1022 26.7743 15.413C28.8191 14.0871 28.8183 11.1554 26.7742 9.82962ZM20.1821 10.3036C20.4011 10.1153 20.4225 9.7896 20.2301 9.57523C20.0369 9.36086 19.703 9.34043 19.4835 9.52871L13.5842 14.5989L11.3313 12.1155C11.1377 11.9016 10.8037 11.882 10.5855 12.0712C10.3669 12.2599 10.3464 12.5865 10.5401 12.8L13.1425 15.6691C13.3362 15.883 13.6688 15.9013 13.8865 15.7143L20.1821 10.3036ZM15.3847 5.26723C11.232 5.26723 7.8545 8.56639 7.8545 12.6213C7.8545 16.6766 11.232 19.9757 15.3847 19.9757C19.5365 19.9757 22.914 16.6766 22.914 12.6213C22.914 8.56639 19.5365 5.26723 15.3847 5.26723Z" fill="#00B8FF"/>
</svg>
