<svg width="30" height="30" viewBox="0 0 30 30" fill="none" xmlns="http://www.w3.org/2000/svg">
<g clip-path="url(#clip0_3011_6319)">
<path d="M29.4002 4.74003C29.4002 2.46003 27.5402 0.660034 25.3202 0.660034C23.0402 0.660034 21.2402 2.52003 21.2402 4.74003C21.2402 7.02003 25.3202 12.18 25.3202 12.18C25.3202 12.18 29.4002 7.02003 29.4002 4.74003ZM23.2202 4.80003C23.2202 3.66003 24.1202 2.76003 25.2602 2.76003C26.4002 2.76003 27.3002 3.66003 27.3002 4.80003C27.3002 5.94003 26.4002 6.84003 25.2602 6.84003C24.1802 6.84003 23.2202 5.94003 23.2202 4.80003Z" fill="#00B8FF"/>
<path d="M12.1202 2.52002C8.1602 3.12002 4.7402 5.40002 2.7002 8.64002H8.4002C9.24019 5.70002 10.5602 3.54002 12.1202 2.52002Z" fill="#00B8FF"/>
<path d="M25.3201 13.6801C25.3201 13.6801 20.2801 7.20008 20.2801 4.74008C20.2801 4.44008 20.2801 4.14008 20.3401 3.84008C19.0201 3.18008 17.5801 2.70008 16.0801 2.46008C17.6401 3.48008 19.0201 5.70008 19.8001 8.64008H20.5201C20.7601 8.64008 21.0001 8.88008 21.0001 9.12008C21.0001 9.36008 20.7601 9.60008 20.5201 9.60008H20.0401C20.4601 11.3401 20.7001 13.3201 20.7001 15.4801H27.7201C27.6601 14.1001 27.4201 12.7801 27.0001 11.5201C26.5801 12.0601 25.3201 13.6801 25.3201 13.6801Z" fill="#00B8FF"/>
<path d="M20.6401 18.48C20.6401 18.72 20.4001 18.9 20.1601 18.9H20.1001C19.8601 18.9 19.6801 18.66 19.6801 18.42C19.7401 17.76 19.7401 17.1 19.8001 16.44H13.0201C12.7801 16.44 12.5401 16.2 12.5401 15.96C12.5401 15.72 12.7801 15.48 13.0201 15.48H19.8001C19.7401 13.38 19.5001 11.4 19.0801 9.59998H9.1801C8.8801 10.8 8.6401 12.12 8.5201 13.5C8.5201 13.74 8.2801 13.92 8.0401 13.92C7.8001 13.92 7.6201 13.68 7.6201 13.44C7.7401 12.06 7.9201 10.8 8.2201 9.59998H2.1601C1.2001 11.34 0.660098 13.32 0.600098 15.48H4.3201C4.5601 15.48 4.8001 15.72 4.8001 15.96C4.8001 16.2 4.5601 16.44 4.3201 16.44H0.600098C0.660098 18.54 1.2001 20.52 2.1601 22.32H5.3401C5.5801 22.32 5.8201 22.56 5.8201 22.8C5.8201 23.04 5.6401 23.28 5.3401 23.28H2.7001C4.7401 26.52 8.1601 28.86 12.1201 29.46C11.1001 28.8 10.1401 27.6 9.4201 25.98C9.3001 25.74 9.4201 25.44 9.6601 25.38C9.9001 25.26 10.2001 25.38 10.2601 25.62C11.3401 27.9 12.7201 29.16 14.1001 29.16C15.5401 29.16 16.9201 27.9 17.9401 25.62C18.0601 25.38 18.3601 25.32 18.5401 25.38C18.7801 25.5 18.9001 25.74 18.7801 25.98C18.0001 27.66 17.0401 28.8 16.0201 29.46C20.0401 28.92 23.5201 26.58 25.5601 23.28H23.6401C23.4001 23.28 23.1601 23.04 23.1601 22.8C23.1601 22.56 23.4001 22.32 23.6401 22.32H26.1001C27.0601 20.58 27.6001 18.6 27.6601 16.44H20.7001C20.7001 17.1 20.7001 17.82 20.6401 18.48ZM8.6401 24.42C8.6401 24.42 5.3401 20.28 5.3401 18.42C5.3401 16.62 6.8401 15.12 8.6401 15.12C10.4401 15.12 11.9401 16.62 11.9401 18.42C11.9401 20.28 8.6401 24.42 8.6401 24.42ZM16.8601 23.16H12.0001C11.7601 23.16 11.5201 22.92 11.5201 22.68C11.5201 22.44 11.7001 22.2 12.0001 22.2H16.8601C17.1001 22.2 17.3401 22.44 17.3401 22.68C17.2801 22.98 17.1001 23.16 16.8601 23.16ZM22.0801 21.96C22.0801 22.98 20.2801 25.26 20.2801 25.26C20.2801 25.26 18.4201 22.98 18.4201 21.96C18.4201 20.94 19.2601 20.1 20.2801 20.1C21.3001 20.16 22.0801 20.94 22.0801 21.96Z" fill="#00B8FF"/>
<path d="M9.41992 8.64001H18.8399C17.8199 5.16001 16.0799 2.76001 14.1599 2.76001C12.1799 2.82001 10.4399 5.16001 9.41992 8.64001Z" fill="#00B8FF"/>
<path d="M8.63996 20.16C9.5678 20.16 10.32 19.4079 10.32 18.48C10.32 17.5522 9.5678 16.8 8.63996 16.8C7.71212 16.8 6.95996 17.5522 6.95996 18.48C6.95996 19.4079 7.71212 20.16 8.63996 20.16Z" fill="#00B8FF"/>
<path d="M14.9998 15.66C15.3644 15.66 15.6598 15.3645 15.6598 15C15.6598 14.6355 15.3644 14.34 14.9998 14.34C14.6353 14.34 14.3398 14.6355 14.3398 15C14.3398 15.3645 14.6353 15.66 14.9998 15.66Z" fill="#00B8FF"/>
</g>
<defs>
<clipPath id="clip0_3011_6319">
<rect width="30" height="30" fill="white"/>
</clipPath>
</defs>
</svg>
