<svg width="32" height="32" viewBox="0 0 32 32" fill="none" xmlns="http://www.w3.org/2000/svg">
<path d="M21.1626 29.3265C21.4559 29.3265 21.6959 29.0865 21.6959 28.7931V26.0038C21.6959 23.9238 19.9999 22.2278 17.9199 22.2278C17.7706 22.2278 17.6266 22.2918 17.5253 22.4038L16.0159 24.0625L14.5066 22.4038C14.4053 22.2918 14.2613 22.2278 14.1119 22.2278C12.0319 22.2278 10.3359 23.9238 10.3359 26.0038V28.7931C10.3359 29.0865 10.5759 29.3265 10.8693 29.3265H12.6335V27.5718C12.6335 27.2774 12.8725 27.0385 13.1669 27.0385C13.4618 27.0385 13.7002 27.2774 13.7002 27.5718V29.3265H18.3311V27.5718C18.3311 27.2774 18.5701 27.0385 18.8645 27.0385C19.1594 27.0385 19.3978 27.2774 19.3978 27.5718V29.3265H21.1626Z" fill="#00B8FF"/>
<path d="M26.1333 22.2064C25.984 22.2064 25.84 22.2704 25.7386 22.3824L24.6133 23.6251L23.4826 22.3824C23.3813 22.2704 23.2373 22.2064 23.088 22.2064C22.8586 22.2064 21.9413 22.2438 21.568 22.3664C21.4613 22.4022 21.3765 22.4704 21.3125 22.5536C22.2064 23.4331 22.7626 24.6539 22.7626 26.0038V28.1051H26.3626V26.5952C26.3626 26.3008 26.601 26.0619 26.896 26.0619C27.1904 26.0619 27.4293 26.3008 27.4293 26.5952V28.1051H28.736C29.0293 28.1051 29.2693 27.8651 29.2693 27.5718V25.3424C29.2693 23.6144 27.8613 22.2064 26.1333 22.2064Z" fill="#00B8FF"/>
<path d="M3.2638 28.1051H4.57527V26.5952C4.57527 26.3008 4.8142 26.0619 5.1086 26.0619C5.40354 26.0619 5.64194 26.3008 5.64194 26.5952V28.1051H9.26914V26.0038C9.26914 24.6587 9.82114 23.44 10.7097 22.5616C10.6499 22.4838 10.5726 22.4182 10.4745 22.3824C10.0691 22.2384 9.09314 22.2064 8.91714 22.2064C8.7678 22.2064 8.6238 22.2704 8.52247 22.3824L7.39714 23.6251L6.26114 22.3824C6.1598 22.2704 6.0158 22.2064 5.86647 22.2064C4.13847 22.2064 2.73047 23.6144 2.73047 25.3424V27.5718C2.73047 27.8651 2.97047 28.1051 3.2638 28.1051Z" fill="#00B8FF"/>
<path d="M24.6028 21.7424C26.2553 21.7424 27.5948 20.4029 27.5948 18.7504C27.5948 17.098 26.2553 15.7584 24.6028 15.7584C22.9504 15.7584 21.6108 17.098 21.6108 18.7504C21.6108 20.4029 22.9504 21.7424 24.6028 21.7424Z" fill="#00B8FF"/>
<path d="M7.40264 21.7424C9.05508 21.7424 10.3946 20.4029 10.3946 18.7504C10.3946 17.098 9.05508 15.7584 7.40264 15.7584C5.75021 15.7584 4.41064 17.098 4.41064 18.7504C4.41064 20.4029 5.75021 21.7424 7.40264 21.7424Z" fill="#00B8FF"/>
<path d="M12.3999 17.9131C12.3999 19.9024 14.0159 21.5184 15.9999 21.5184C17.9892 21.5184 19.6052 19.9024 19.6052 17.9131C19.6052 15.9237 17.9892 14.3077 15.9999 14.3077C14.0159 14.3077 12.3999 15.9237 12.3999 17.9131Z" fill="#00B8FF"/>
<path d="M11.9282 9.04959C13.0696 9.43572 14.2546 9.65386 15.4461 9.70612V3.81226C13.9805 4.22399 12.6957 6.23572 11.9282 9.04959Z" fill="#00B8FF"/>
<path d="M16.5562 2.71514C18.5103 3.07941 20.1599 5.35407 21.0863 8.66341C22.225 8.14181 23.6666 6.92207 24.5572 6.14714C22.4692 4.11247 19.6623 2.81327 16.5562 2.67407V2.71514Z" fill="#00B8FF"/>
<path d="M15.446 2.71465V2.67358C12.3031 2.81385 9.46465 4.14078 7.36865 6.21705C8.41239 7.11465 9.82199 8.17012 10.9143 8.66825C11.8401 5.35625 13.4908 3.07945 15.446 2.71465Z" fill="#00B8FF"/>
<path d="M16.5562 3.81226V9.70612C17.7546 9.65439 18.9396 9.43466 20.073 9.04692C19.306 6.23466 18.0212 4.22399 16.5562 3.81226Z" fill="#00B8FF"/>
<path d="M28.2611 15.4331C28.2665 15.2677 28.2718 15.1024 28.2718 14.9317C28.2718 11.8731 27.1454 9.07574 25.2889 6.9248C24.2755 7.8064 22.7059 9.1456 21.3865 9.7024C21.3737 9.70774 21.3619 9.712 21.3491 9.71734C21.6958 11.2923 21.8894 13.0565 21.8894 14.9323C21.8894 15.0576 21.8638 15.2933 21.8222 15.6672C21.8163 15.7205 21.811 15.7723 21.8051 15.8229C22.5337 15.1253 23.5161 14.6917 24.6025 14.6917C25.7518 14.6917 26.7891 15.1744 27.5283 15.9451H27.7278C28.0158 15.9451 28.2505 15.7211 28.2611 15.4331Z" fill="#00B8FF"/>
<path d="M20.2302 15.9435H20.7209C20.7316 15.8293 20.7465 15.6917 20.7625 15.5499C20.7865 15.3344 20.8222 15.0091 20.8228 14.9323C20.8228 13.2075 20.6398 11.5648 20.3252 10.088C19.1161 10.4933 17.8526 10.7243 16.5566 10.776V13.2821C18.1865 13.4779 19.5609 14.5109 20.2302 15.9435Z" fill="#00B8FF"/>
<path d="M10.6187 9.70772C9.12429 9.06879 7.34296 7.60372 6.64429 7.00159C4.82723 9.14239 3.72803 11.9099 3.72803 14.9317C3.72803 15.0971 3.73336 15.2624 3.73869 15.4277C3.74936 15.7157 3.98403 15.9397 4.27203 15.9397H4.48109C5.22029 15.1717 6.25549 14.6912 7.40269 14.6912C8.44643 14.6912 9.39523 15.0923 10.1152 15.7424C10.1136 15.4117 10.1131 15.0437 10.1131 14.9323C10.1131 13.0581 10.3062 11.296 10.6523 9.72105C10.6406 9.71625 10.6299 9.71252 10.6187 9.70772Z" fill="#00B8FF"/>
<path d="M15.4459 10.776C14.1568 10.7248 12.8944 10.4949 11.6768 10.0901C11.3621 11.5664 11.1792 13.2085 11.1792 14.9322C11.1792 15.0672 11.1803 15.5813 11.1824 15.9413H11.7749C12.4448 14.5093 13.8171 13.4768 15.4459 13.2816V10.776Z" fill="#00B8FF"/>
</svg>
