<svg width="50" height="50" viewBox="0 0 50 50" fill="none" xmlns="http://www.w3.org/2000/svg">
<path d="M14.7493 5.43945C14.7493 2.44014 12.3091 0 9.30983 0C2.09362 0.298828 2.09567 10.5813 9.30983 10.8789C12.3092 10.8789 14.7493 8.43877 14.7493 5.43945Z" fill="#00B8FF"/>
<path d="M18.6198 21.8621V20.1889C18.1069 7.83492 0.508301 7.8445 0 20.1888V21.862C0 22.671 0.655859 23.3268 1.46484 23.3268H17.155C17.964 23.3269 18.6198 22.6711 18.6198 21.8621Z" fill="#00B8FF"/>
<path d="M46.1297 5.43945C46.1297 2.44014 43.6895 0 40.6902 0C33.474 0.298828 33.476 10.5813 40.6902 10.8789C43.6895 10.8789 46.1297 8.43877 46.1297 5.43945Z" fill="#00B8FF"/>
<path d="M40.6902 10.8789C35.5567 10.8789 31.3804 15.0554 31.3804 20.1888V21.8619C31.3804 22.6709 32.0362 23.3268 32.8452 23.3268H48.5353C49.3442 23.3268 50.0001 22.6709 50.0001 21.8619V20.1888C50.0001 15.0554 45.8237 10.8789 40.6902 10.8789Z" fill="#00B8FF"/>
<path d="M9.20587 26.5691C9.20587 26.4646 9.20783 26.3606 9.20978 26.2566H6.28009C6.16349 32.5359 9.20743 38.2089 13.9211 41.6636C14.3422 40.7697 14.8684 39.9348 15.4836 39.1746C11.6703 36.2913 9.20587 31.7182 9.20587 26.5691Z" fill="#00B8FF"/>
<path d="M18.5355 12.1543C22.4316 10.3297 27.5684 10.3297 31.4645 12.1543C32.1592 11.3576 32.9551 10.6513 33.8321 10.0558C28.6471 7.13597 21.353 7.13607 16.168 10.0558C17.0449 10.6513 17.8408 11.3577 18.5355 12.1543Z" fill="#00B8FF"/>
<path d="M40.7904 26.2566C40.9042 31.4899 38.4076 36.2436 34.5166 39.1746C35.1318 39.9347 35.6579 40.7697 36.0791 41.6636C40.7926 38.2092 43.8368 32.5357 43.7201 26.2566H40.7904Z" fill="#00B8FF"/>
<path d="M30.4392 32.1125C30.4392 29.1132 27.9991 26.6731 24.9998 26.6731C17.7836 26.9719 17.7856 37.2543 24.9998 37.552C27.9991 37.552 30.4392 35.112 30.4392 32.1125Z" fill="#00B8FF"/>
<path d="M24.9998 37.552C19.8663 37.552 15.6899 41.7285 15.6899 46.8619V48.5351C15.6899 49.3441 16.3458 50 17.1548 50H32.8449C33.6539 50 34.3098 49.3441 34.3098 48.5351V46.862C34.3097 41.7285 30.1333 37.552 24.9998 37.552Z" fill="#00B8FF"/>
</svg>
