<svg width="49" height="46" viewBox="0 0 49 46" fill="none" xmlns="http://www.w3.org/2000/svg">
<path d="M46.1911 5.38299H26.0085V1.46807C26.0085 0.657278 25.3098 0 24.448 0C23.5861 0 22.8875 0.657278 22.8875 1.46807V5.38299H2.70487C1.21719 5.38299 0 6.52809 0 7.92766V33.0808C0 34.4804 1.21719 35.6255 2.70487 35.6255H14.3043L9.26621 43.7952C8.66267 44.7739 9.41328 46 10.616 46H10.7452C11.3057 46 11.8232 45.7172 12.1008 45.2591L17.9394 35.6255H22.8875V43.8385C22.8875 44.6493 23.5861 45.3066 24.448 45.3066C25.3098 45.3066 26.0085 44.6493 26.0085 43.8385V35.6255H30.9565L36.7951 45.2591C37.0727 45.7172 37.5902 46 38.1507 46H38.28C39.4827 46 40.2333 44.7739 39.6298 43.7952L34.5917 35.6255H46.2951C47.7516 35.6255 49 34.5489 49 33.0808V7.92766C48.896 6.55744 47.6476 5.38299 46.1911 5.38299ZM34.2267 20.8276L33.1172 19.4706L26.2465 24.4374C26.036 24.5896 25.7293 24.5123 25.6279 24.2814L22.9136 18.0993L13.1693 26.2168C13.001 26.3569 12.7435 26.3407 12.5966 26.1807L11.6668 25.1679C11.5223 25.0104 11.5394 24.7728 11.7053 24.6352L23.3343 14.986C23.5418 14.8139 23.8677 14.8848 23.9738 15.1252L26.7496 21.4193L31.7362 17.8106L30.6074 16.3769C30.4249 16.1451 30.5731 15.8141 30.8768 15.775L36.7927 15.0134C37.1015 14.9736 37.3396 15.2643 37.2199 15.5351L34.919 20.7419C34.7999 21.0113 34.4158 21.0588 34.2267 20.8276Z" fill="#00B8FF"/>
</svg>
