<svg width="52" height="52" viewBox="0 0 52 52" fill="none" xmlns="http://www.w3.org/2000/svg">
<g clip-path="url(#clip0_2169_6032)">
<path d="M26 23.3594C29.9264 23.3594 33.1094 20.1764 33.1094 16.25C33.1094 12.3236 29.9264 9.14062 26 9.14062C22.0736 9.14062 18.8906 12.3236 18.8906 16.25C18.8906 20.1764 22.0736 23.3594 26 23.3594Z" fill="#00B8FF"/>
<path d="M26 6.09375C26.8414 6.09375 27.5234 5.41166 27.5234 4.57031V1.52344C27.5234 0.682094 26.8413 0 26 0C25.1587 0 24.4766 0.682094 24.4766 1.52344V4.57031C24.4766 5.41166 25.1587 6.09375 26 6.09375Z" fill="#00B8FF"/>
<path d="M18.0794 7.10082C18.5 7.82943 19.4318 8.07917 20.1604 7.6584C20.889 7.23773 21.1386 6.30599 20.7179 5.57738L19.1945 2.93869C18.7738 2.21008 17.8421 1.96044 17.1135 2.38111C16.3849 2.80178 16.1352 3.73352 16.5559 4.46213L18.0794 7.10082Z" fill="#00B8FF"/>
<path d="M11.1653 10.9679L13.804 12.4914C14.5326 12.9121 15.4644 12.6624 15.885 11.9338C16.3057 11.2052 16.0561 10.2735 15.3275 9.85279L12.6888 8.32935C11.9601 7.90868 11.0284 8.15832 10.6077 8.88693C10.187 9.61554 10.4366 10.5473 11.1653 10.9679Z" fill="#00B8FF"/>
<path d="M36.115 11.9338C36.5357 12.6624 37.4674 12.9121 38.196 12.4914L40.8347 10.9679C41.5633 10.5473 41.8131 9.61554 41.3923 8.88693C40.9716 8.15832 40.0399 7.90868 39.3113 8.32935L36.6726 9.85279C35.944 10.2735 35.6943 11.2052 36.115 11.9338Z" fill="#00B8FF"/>
<path d="M31.8401 7.6584C32.5687 8.07907 33.5004 7.82943 33.9211 7.10082L35.4445 4.46212C35.8652 3.73352 35.6155 2.80178 34.8869 2.38111C34.1583 1.96044 33.2266 2.21008 32.8059 2.93869L31.2825 5.57738C30.8618 6.30599 31.1114 7.23773 31.8401 7.6584Z" fill="#00B8FF"/>
<path d="M16.3516 29.4531V42.8594H35.6484V29.4531C41.538 29.4531 46.3125 24.6787 46.3125 18.7891V16.25C46.3125 14.5672 44.9484 13.2031 43.2656 13.2031C41.5828 13.2031 40.2188 14.5672 40.2188 16.25V18.7891C40.2188 21.3132 38.1726 23.3594 35.6484 23.3594H33.2454C31.4012 25.2385 28.8346 26.4062 26 26.4062C23.1654 26.4062 20.5988 25.2385 18.7546 23.3594H16.3516C13.8274 23.3594 11.7812 21.3132 11.7812 18.7891V16.25C11.7812 14.5672 10.4172 13.2031 8.73438 13.2031C7.05159 13.2031 5.6875 14.5672 5.6875 16.25V18.7891C5.6875 24.6787 10.462 29.4531 16.3516 29.4531Z" fill="#00B8FF"/>
<path d="M50.4766 45.9062H1.52344C0.682094 45.9062 0 46.5883 0 47.4297V50.4766C0 51.3179 0.682094 52 1.52344 52H50.4766C51.3179 52 52 51.3179 52 50.4766V47.4297C52 46.5883 51.3179 45.9062 50.4766 45.9062Z" fill="#00B8FF"/>
</g>
<defs>
<clipPath id="clip0_2169_6032">
<rect width="52" height="52" fill="white"/>
</clipPath>
</defs>
</svg>
