<svg width="52" height="59" viewBox="0 0 52 59" fill="none" xmlns="http://www.w3.org/2000/svg">
<path fill-rule="evenodd" clip-rule="evenodd" d="M34.5718 44.267C37.4384 35.9954 42.4951 32.1915 42.4951 25.2798C42.4951 16.4871 35.11 9.35931 26 9.35931C16.89 9.35931 9.50488 16.4872 9.50488 25.2798C9.50488 32.1915 14.5616 35.9954 17.4282 44.267C17.447 44.3218 17.502 44.3554 17.5614 44.3482C17.6963 44.3318 17.8329 44.3235 17.9705 44.3235H25.9828C26.0284 44.3235 26.0677 44.3017 26.0905 44.2636L29.4391 38.6657C29.8187 38.0313 29.6565 37.2317 29.0523 36.7822C26.9591 35.2248 24.2493 36.2312 21.9288 34.446C20.6004 33.4241 20.2609 31.598 21.1389 30.2283C21.1396 30.2273 21.1403 30.2263 21.1408 30.2252L27.0675 20.3174C27.0945 20.2722 27.0891 20.218 27.0536 20.1786C27.0181 20.1392 26.9631 20.1265 26.913 20.1463L25.6515 20.6424C25.1748 20.8288 24.6315 20.6068 24.4385 20.1467C24.2454 19.6865 24.4754 19.1622 24.9521 18.9759L29.0606 17.3601C29.616 17.1424 30.2661 17.4732 30.3391 18.124C30.3393 18.1251 30.3394 18.1262 30.3395 18.1274L30.9363 22.3159C31.0047 22.8072 30.6475 23.259 30.1385 23.325C29.6295 23.391 29.1613 23.0463 29.0931 22.555L28.9079 21.2553C28.9005 21.2036 28.8617 21.164 28.8086 21.154C28.7555 21.144 28.7041 21.1665 28.6771 21.2117L22.7206 31.1726C22.344 31.8016 22.4953 32.5844 23.0872 33.0398C24.8506 34.3963 27.6008 33.4364 30.1889 35.3621C31.5345 36.3633 31.8995 38.1447 31.0492 39.5662L28.3107 44.144C28.2879 44.1822 28.2879 44.2258 28.3107 44.264C28.3335 44.3022 28.3727 44.3239 28.4184 44.3239H34.0294C34.167 44.3239 34.3036 44.3324 34.4386 44.3486C34.498 44.3553 34.5528 44.3218 34.5718 44.267ZM33.3087 49.17C34.0089 49.17 34.5808 49.2544 35.1196 48.7215C36.0982 47.7537 35.439 46.0497 34.0099 46.0497H17.9705C16.5901 46.0497 15.8875 47.7394 16.8803 48.7215C17.4215 49.2569 17.9998 49.17 18.714 49.17H33.3087ZM32.9795 50.6102C28.209 50.6102 23.4386 50.6102 18.668 50.6102C17.2876 50.6102 16.5849 52.3 17.5778 53.282C17.8575 53.5586 18.2435 53.7304 18.668 53.7304H33.2855C34.6659 53.7304 35.3685 52.0407 34.3757 51.0586C33.9356 50.6235 33.5242 50.6102 32.9795 50.6102ZM30.631 55.6089C30.066 57.5648 28.2068 59 26 59C23.7933 59 21.9341 57.5648 21.369 55.6089C21.3583 55.5715 21.3655 55.535 21.3898 55.5042C21.4141 55.4733 21.4486 55.4567 21.4888 55.4567H30.511C30.5511 55.4567 30.5856 55.4733 30.6099 55.5042C30.6344 55.535 30.6417 55.5715 30.631 55.6089ZM44.6296 8.90705C44.9938 8.55557 45.5841 8.55557 45.9483 8.90705C46.3124 9.25853 46.3124 9.82844 45.9483 10.1798L43.2594 12.7751C42.8952 13.1265 42.3047 13.1265 41.9407 12.7751C41.5765 12.4236 41.5765 11.8537 41.9407 11.5023L44.6296 8.90705ZM51.0675 27.2605C51.5825 27.2605 52 27.6635 52 28.1605C52 28.6576 51.5825 29.0606 51.0675 29.0606H47.0693C46.5543 29.0606 46.1368 28.6576 46.1368 28.1605C46.1368 27.6635 46.5543 27.2605 47.0693 27.2605H51.0675ZM4.93056 27.2605C5.44555 27.2605 5.86309 27.6635 5.86309 28.1605C5.86309 28.6576 5.44555 29.0606 4.93056 29.0606H0.932525C0.417534 29.0606 0 28.6576 0 28.1605C0 27.6635 0.417534 27.2605 0.932525 27.2605H4.93056ZM10.0592 11.5022C10.4233 11.8537 10.4233 12.4236 10.0592 12.7749C9.69501 13.1264 9.10468 13.1264 8.74051 12.7749L6.05158 10.1797C5.68742 9.82817 5.68742 9.2584 6.05158 8.90692C6.41575 8.55544 7.00609 8.55544 7.37025 8.90692L10.0592 11.5022ZM25.0675 0.900045C25.0675 0.402991 25.485 0 26 0C26.515 0 26.9325 0.402991 26.9325 0.900045V4.47994C26.9325 4.97699 26.515 5.37998 26 5.37998C25.485 5.37998 25.0675 4.97699 25.0675 4.47994V0.900045ZM33.4859 27.4746C36.2191 27.4746 37.6361 30.6886 35.676 32.5805C33.716 34.4723 30.3858 33.1047 30.3858 30.4666C30.386 28.8192 31.7791 27.4746 33.4859 27.4746ZM34.3574 29.6256C34.8418 30.0932 34.8418 30.8403 34.3574 31.3078C33.5704 32.0674 32.251 31.5078 32.251 30.4666C32.2511 29.4258 33.5704 28.866 34.3574 29.6256ZM14.5641 22.1486C14.2 21.7971 14.2 21.2272 14.5641 20.8759C14.9283 20.5244 15.5188 20.5244 15.8828 20.8759L17.303 22.2466C17.3515 22.2934 17.4304 22.2934 17.4788 22.2466L18.8991 20.8759C19.2632 20.5244 19.8537 20.5244 20.2177 20.8759C20.5819 21.2273 20.5819 21.7972 20.2177 22.1486L18.7975 23.5193C18.749 23.5661 18.749 23.6423 18.7975 23.689L20.2177 25.0598C20.5819 25.4113 20.5819 25.9812 20.2177 26.3325C19.8536 26.684 19.2632 26.684 18.8991 26.3325L17.4788 24.9618C17.4304 24.915 17.3515 24.915 17.303 24.9618L15.8828 26.3325C15.5187 26.684 14.9283 26.684 14.5641 26.3325C14.2 25.981 14.2 25.4111 14.5641 25.0598L15.9844 23.689C16.0328 23.6423 16.0328 23.5661 15.9844 23.5193L14.5641 22.1486Z" fill="#00B8FF"/>
</svg>
