<svg width="43" height="51" viewBox="0 0 43 51" fill="none" xmlns="http://www.w3.org/2000/svg">
<path d="M35.3538 5.30966C22.83 -6.09874 2.11787 1.99914 0.683376 18.9249C0.384763 22.0852 0.814813 25.2719 1.94046 28.24C3.06612 31.208 4.85739 33.8785 7.17657 36.0459C9.05519 37.7562 10.4525 39.9292 11.2292 42.348H20.5184V39.3245H19.3072C18.5742 39.3229 17.8719 39.0304 17.3545 38.5113C16.837 37.9922 16.5469 37.2889 16.5477 36.5559V35.2992C16.5511 35.0599 16.6486 34.8315 16.819 34.6635C16.9894 34.4955 17.2191 34.4013 17.4584 34.4013C17.6978 34.4013 17.9275 34.4955 18.0979 34.6635C18.2683 34.8315 18.3658 35.0599 18.3691 35.2992V36.5559C18.3684 36.8058 18.4668 37.0457 18.6426 37.2232C18.8184 37.4007 19.0573 37.5014 19.3072 37.5031H23.551C23.8018 37.5017 24.0419 37.4015 24.2193 37.2242C24.3966 37.0468 24.4968 36.8067 24.4982 36.5559V35.2992C24.5017 35.06 24.5992 34.8318 24.7696 34.6639C24.94 34.496 25.1697 34.4019 25.4089 34.4019C25.6481 34.4019 25.8777 34.496 26.0481 34.6639C26.2185 34.8318 26.316 35.06 26.3196 35.2992V36.5559C26.3198 36.9196 26.2483 37.2796 26.1092 37.6156C25.9701 37.9516 25.7662 38.2569 25.5091 38.514C25.252 38.7711 24.9467 38.975 24.6107 39.1141C24.2747 39.2532 23.9147 39.3246 23.551 39.3245H22.3398V42.348H31.6563C32.2854 40.0722 33.5488 38.0223 35.2991 36.4375C44.5342 28.4683 44.564 13.3126 35.3538 5.30966ZM20.5002 30.1901C20.3926 33.6964 15.3767 33.0933 13.7063 31.3284C12.7889 30.4376 12.1904 29.2694 12.0033 28.0044C11.2864 27.736 10.6555 27.2785 10.1777 26.6804C9.69989 26.0823 9.39293 25.366 9.28941 24.6075C8.45288 24.2304 7.73814 23.6275 7.22555 22.8664C6.71295 22.1054 6.42284 21.2164 6.38783 20.2995C6.35282 19.3826 6.5743 18.4741 7.02736 17.6762C7.48043 16.8782 8.14711 16.2225 8.95245 15.7828C9.09111 14.8683 9.45163 14.0017 10.0025 13.2587C10.5534 12.5158 11.2779 11.919 12.1126 11.5207C11.9833 7.8947 17.1596 5.5469 19.8354 8.16028C20.1013 8.40004 20.3128 8.69393 20.4558 9.0222C20.5987 9.35048 20.6697 9.70554 20.6641 10.0635L20.5002 30.1901ZM33.6052 24.6075C33.5017 25.366 33.1947 26.0823 32.7169 26.6804C32.2391 27.2784 31.6082 27.736 30.8913 28.0044C30.7042 29.2694 30.1057 30.4376 29.1883 31.3285C27.5189 33.0929 22.5006 33.6978 22.3944 30.19L22.2305 10.0635C22.2249 9.70552 22.296 9.35045 22.4389 9.02216C22.5818 8.69386 22.7934 8.39996 23.0593 8.16016C25.7361 5.55074 30.9102 7.89016 30.782 11.5208C31.6365 11.8977 32.3706 12.5026 32.904 13.2692C33.4258 14.0232 33.7798 14.8803 33.9422 15.7828C34.7475 16.2225 35.4142 16.8782 35.8673 17.6762C36.3203 18.4741 36.5418 19.3826 36.5068 20.2995C36.4718 21.2164 36.1817 22.1054 35.6691 22.8664C35.1565 23.6275 34.4417 24.2304 33.6052 24.6075Z" fill="#00B8FF"/>
<path d="M11.6484 44.1694C11.7164 44.4691 11.8833 46.3425 11.9308 46.683C12.0626 47.8706 12.628 48.9678 13.5187 49.7643C14.4093 50.5609 15.5626 51.0008 16.7575 50.9997H26.1378C27.3326 51.0008 28.4859 50.5609 29.3766 49.7643C30.2672 48.9678 30.8327 47.8706 30.9645 46.683C31.0137 46.2085 31.1804 44.6229 31.2468 44.1694H11.6484Z" fill="#00B8FF"/>
<path d="M17.2758 8.88864C16.5601 8.80333 15.8372 8.97419 15.2355 9.37093C14.6337 9.76768 14.1918 10.3647 13.9882 11.0561C14.7676 10.9684 16.0886 11.001 15.9735 12.1034C15.9417 12.3424 15.8165 12.5589 15.6253 12.7057C15.4341 12.8525 15.1925 12.9175 14.9535 12.8866C14.1312 12.7557 13.2889 12.9137 12.57 13.3338C11.8511 13.7538 11.2999 14.41 11.0102 15.1906C12.1374 15.1187 13.2552 15.4357 14.1768 16.0888C15.0984 16.7419 15.768 17.6914 16.0737 18.7788C16.1072 18.8942 16.1172 19.0152 16.1031 19.1346C16.089 19.2539 16.0511 19.3692 15.9917 19.4737C15.9322 19.5781 15.8525 19.6696 15.757 19.7427C15.6616 19.8157 15.5525 19.8689 15.4362 19.8991C15.3214 19.9314 15.2013 19.9407 15.0829 19.9266C14.9645 19.9125 14.85 19.8752 14.7459 19.8169C14.6419 19.7585 14.5504 19.6803 14.4766 19.5865C14.4029 19.4928 14.3483 19.3855 14.316 19.2707C14.1705 18.75 13.8921 18.2762 13.508 17.8958C13.1239 17.5154 12.6475 17.2415 12.1255 17.101C11.6035 16.9605 11.0539 16.9582 10.5308 17.0945C10.0076 17.2307 9.52894 17.5007 9.14178 17.878C8.75462 18.2552 8.47229 18.7268 8.32256 19.2462C8.17283 19.7656 8.16085 20.3151 8.28779 20.8406C8.41473 21.366 8.67623 21.8494 9.04658 22.2432C9.41693 22.637 9.88338 22.9276 10.4001 23.0865C10.5856 23.1465 10.7477 23.2631 10.8637 23.4199C10.9796 23.5767 11.0436 23.7658 11.0466 23.9608C11.3057 26.4338 13.1376 26.759 15.8369 26.6383C15.956 26.6272 16.0762 26.6399 16.1905 26.6756C16.3047 26.7114 16.4107 26.7695 16.5022 26.8467C16.5937 26.9238 16.669 27.0183 16.7236 27.1248C16.7783 27.2313 16.8112 27.3476 16.8204 27.467C16.8776 28.5326 15.6782 28.5074 14.9262 28.496C14.5983 28.4961 14.2796 28.4778 13.979 28.4506C14.1762 29.0394 14.5101 29.5731 14.9535 30.0079C15.3873 30.5969 18.5761 31.7002 18.6783 30.1718L18.8422 10.0543C18.7929 9.30076 17.9283 9.03016 17.2758 8.88864Z" fill="#00B8FF"/>
<path d="M31.5743 16.9939C30.8947 16.9938 30.2338 17.2164 29.6927 17.6276C29.1516 18.0388 28.7601 18.6159 28.5781 19.2707C28.5458 19.3855 28.4912 19.4928 28.4174 19.5865C28.3437 19.6802 28.2522 19.7585 28.1481 19.8169C28.0441 19.8752 27.9296 19.9125 27.8112 19.9266C27.6928 19.9407 27.5727 19.9313 27.4579 19.899C27.3416 19.8689 27.2325 19.8157 27.1371 19.7426C27.0417 19.6696 26.9619 19.5781 26.9024 19.4737C26.843 19.3692 26.8051 19.2539 26.791 19.1346C26.7769 19.0152 26.7869 18.8943 26.8204 18.7789C27.1132 17.7428 27.7356 16.8303 28.5934 16.1795C29.4512 15.5288 30.4976 15.1753 31.5743 15.1725C32.1931 15.3125 31.5432 14.5785 31.4104 14.2982C31.0132 13.7717 30.481 13.3625 29.8701 13.114C29.2592 12.8655 28.5925 12.7869 27.9406 12.8866C27.8219 12.9021 27.7013 12.8941 27.5858 12.8629C27.4703 12.8317 27.362 12.7779 27.2673 12.7048C27.1726 12.6316 27.0932 12.5405 27.0338 12.4366C26.9744 12.3327 26.9361 12.2181 26.9211 12.0994C26.9061 11.9806 26.9148 11.8601 26.9465 11.7447C26.9782 11.6293 27.0324 11.5213 27.106 11.4269C27.1795 11.3325 27.271 11.2536 27.3752 11.1946C27.4793 11.1357 27.5941 11.0979 27.7129 11.0834C28.1082 11.0289 28.5085 11.0198 28.9059 11.0561C28.8176 10.6726 28.6451 10.3135 28.401 10.0048C28.1568 9.69608 27.8472 9.44548 27.4943 9.27112C26.5146 8.59519 24.2701 8.7247 24.0518 10.0543L24.2158 30.1718C24.318 31.7134 27.5331 30.5782 27.9406 30.0079C28.3839 29.5731 28.7179 29.0394 28.915 28.4506C27.9939 28.4503 26.0813 28.8829 26.0736 27.467C26.0837 27.348 26.1171 27.2321 26.172 27.126C26.2269 27.0199 26.3022 26.9257 26.3936 26.8487C26.4849 26.7717 26.5905 26.7135 26.7044 26.6774C26.8183 26.6413 26.9382 26.628 27.0572 26.6383C29.7553 26.7707 31.5885 26.4286 31.8476 23.9609C31.8505 23.7659 31.9145 23.5767 32.0304 23.4199C32.1464 23.2631 32.3085 23.1465 32.4941 23.0865C33.2006 22.8607 33.8036 22.3907 34.195 21.7607C34.5863 21.1306 34.7405 20.3817 34.6297 19.6483C34.519 18.915 34.1507 18.245 33.5908 17.7585C33.0308 17.2721 32.316 17.001 31.5743 16.9939Z" fill="#00B8FF"/>
</svg>
