<svg width="62" height="62" viewBox="0 0 62 62" fill="none" xmlns="http://www.w3.org/2000/svg">
<path d="M54.2176 31C54.2176 29.9969 53.4043 29.1836 52.4012 29.1836C51.398 29.1836 50.5848 29.9969 50.5848 31C50.5848 41.7991 41.799 50.5849 31 50.5849C20.2008 50.5849 11.415 41.7991 11.415 31C11.415 29.9969 10.6018 29.1836 9.59863 29.1836C8.59549 29.1836 7.78223 29.9969 7.78223 31C7.78223 43.1911 17.2269 53.2174 29.1836 54.1469V58.3672H19.3266C18.3234 58.3672 17.5102 59.1805 17.5102 60.1836C17.5102 61.1867 18.3234 62 19.3266 62H42.6736C43.6767 62 44.49 61.1867 44.49 60.1836C44.49 59.1805 43.6767 58.3672 42.6736 58.3672H32.8165V54.1469C44.773 53.2174 54.2176 43.1911 54.2176 31Z" fill="#00B8FF"/>
<path d="M26.9795 31C26.9795 32.0031 26.1662 32.8164 25.1631 32.8164H15.6719C16.5738 40.4746 23.1034 46.4355 30.9999 46.4355C38.8964 46.4355 45.4261 40.4746 46.328 32.8164H36.8365C35.8334 32.8164 35.0201 32.0031 35.0201 31C35.0201 29.9969 35.8334 29.1836 36.8365 29.1836H46.4354V25.0341H36.8365C35.8334 25.0341 35.0201 24.2208 35.0201 23.2177C35.0201 22.2145 35.8334 21.4013 36.8365 21.4013H46.4354V17.2517H36.8365C35.8334 17.2517 35.0201 16.4385 35.0201 15.4353C35.0201 14.4322 35.8334 13.6189 36.8365 13.6189H46.328C45.4261 5.96084 38.8964 0 30.9999 0C23.1034 0 16.5738 5.96084 15.6719 13.6191H25.1631C26.1662 13.6191 26.9795 14.4323 26.9795 15.4355C26.9795 16.4386 26.1662 17.2519 25.1631 17.2519H15.5645V21.4014H25.1631C26.1662 21.4014 26.9795 22.2146 26.9795 23.2178C26.9795 24.2209 26.1662 25.0342 25.1631 25.0342H15.5645V29.1836H25.1631C26.1662 29.1836 26.9795 29.9969 26.9795 31Z" fill="#00B8FF"/>
</svg>
