<svg width="62" height="62" viewBox="0 0 62 62" fill="none" xmlns="http://www.w3.org/2000/svg">
<g clip-path="url(#clip0_2183_6082)">
<path d="M41.9793 62.0002H20.021C19.0651 62.0002 18.2514 61.3027 18.1067 60.3572L15.5234 43.5655C15.4381 43.0075 15.5983 42.4366 15.9677 42.0077C16.3371 41.5789 16.8719 41.3335 17.4376 41.3335H44.5626C45.1284 41.3335 45.6657 41.5815 46.0325 42.0103C46.3994 42.4392 46.5621 43.0075 46.4769 43.5681L43.8935 60.3597C43.7489 61.3027 42.9351 62.0002 41.9793 62.0002Z" fill="#00B8FF"/>
<path d="M30.9998 20.6667C36.7068 20.6667 41.3332 16.0403 41.3332 10.3333C41.3332 4.62639 36.7068 0 30.9998 0C25.2929 0 20.6665 4.62639 20.6665 10.3333C20.6665 16.0403 25.2929 20.6667 30.9998 20.6667Z" fill="#00B8FF"/>
<path d="M59.9771 33.5833C59.5663 27.8561 56.487 22.5551 51.6639 19.3492C51.651 17.2205 49.9227 15.5 47.7915 15.5C45.6525 15.5 43.9165 17.236 43.9165 19.375C43.9165 21.514 45.6525 23.25 47.7915 23.25C48.4993 23.25 49.1529 23.0459 49.7238 22.7153C53.3586 25.2185 55.7068 29.2304 56.1021 33.5833H51.5115C50.5815 27.745 45.5182 23.25 39.3957 23.25H22.604C16.4815 23.25 11.4182 27.745 10.4882 33.5833H1.93732C0.565565 33.5833 -0.320518 34.9732 0.103148 36.1925L5.26982 50.4008C5.55398 51.15 6.27732 51.6667 7.10398 51.6667H11.5473L10.4107 44.3558C10.1007 42.2892 10.6948 40.2225 12.0382 38.6467C13.1903 37.2646 15.2286 36.1667 17.4373 36.1667H44.5623C46.5127 36.1667 48.4812 36.9701 49.9615 38.6467C51.3048 40.2225 51.899 42.2892 51.589 44.3558L50.4523 51.6667H54.8957C55.7223 51.6667 56.4457 51.15 56.7298 50.4008L61.8965 36.1925C62.3047 35.0171 61.5245 33.5833 59.9771 33.5833Z" fill="#00B8FF"/>
</g>
<defs>
<clipPath id="clip0_2183_6082">
<rect width="62" height="62" fill="white"/>
</clipPath>
</defs>
</svg>
