<svg width="69" height="61" viewBox="0 0 69 61" fill="none" xmlns="http://www.w3.org/2000/svg">
<path fill-rule="evenodd" clip-rule="evenodd" d="M32.6992 48.7689L39.3659 42.1811C40.1551 41.4013 41.4426 41.3991 42.2372 42.1724C43.0319 42.9455 43.0343 44.2016 42.246 44.9799C39.5426 47.6494 36.8575 50.3367 34.1415 52.994C33.3476 53.7709 32.0597 53.7708 31.2656 52.994L26.7597 48.5854C25.9657 47.8087 25.9657 46.5484 26.7597 45.7717C27.5537 44.9948 28.8417 44.9948 29.6356 45.7717L32.6992 48.7689ZM50.0561 43.8319H68.0966C68.6622 43.8319 69.0852 43.3373 68.9853 42.7925C67.714 35.8566 61.5163 30.5928 54.0616 30.5928C50.0063 30.5928 46.3235 32.1508 43.6029 34.6878C46.7702 36.8322 49.1094 40.0639 50.0561 43.8319ZM0.903392 43.8319H18.9439C19.8905 40.0639 22.2298 36.8322 25.3971 34.6878C22.6765 32.1508 18.9935 30.5928 14.9384 30.5928C7.48359 30.5928 1.28584 35.8567 0.0146602 42.7927C-0.0852103 43.3375 0.337652 43.8319 0.903392 43.8319ZM54.0618 14.6131C58.2959 14.6131 61.7283 17.9714 61.7283 22.1139C61.7283 26.2565 58.2959 29.6148 54.0618 29.6148C49.8277 29.6148 46.3953 26.2565 46.3953 22.1139C46.3953 17.9714 49.8277 14.6131 54.0618 14.6131ZM14.9384 14.6131C19.1725 14.6131 22.6049 17.9714 22.6049 22.1139C22.6049 26.2565 19.1725 29.6148 14.9384 29.6148C10.7043 29.6148 7.27187 26.2565 7.27187 22.1139C7.27201 17.9714 10.7044 14.6131 14.9384 14.6131ZM21.7773 29.2187L47.2228 29.2186C45.2919 27.4387 44.0863 24.9138 44.0863 22.1139C44.0863 21.2438 44.2033 20.4005 44.4218 19.5976C41.7627 17.3438 38.2945 15.9795 34.5001 15.9795C30.7058 15.9795 27.2377 17.3437 24.5786 19.5975C24.7971 20.4004 24.9142 21.2438 24.9142 22.114C24.914 24.914 23.7082 27.4388 21.7773 29.2187ZM34.5 0C38.7341 0 42.1665 3.35826 42.1665 7.50078C42.1665 11.6434 38.7341 15.0017 34.5 15.0017C30.266 15.0017 26.8335 11.6434 26.8335 7.50078C26.8336 3.35826 30.266 0 34.5 0ZM34.5 34.1712C26.9279 34.1712 20.7895 40.177 20.7895 47.5856C20.7895 54.9942 26.9279 61 34.5 61C42.0721 61 48.2105 54.9942 48.2105 47.5856C48.2105 40.177 42.0721 34.1712 34.5 34.1712Z" fill="#00B8FF"/>
</svg>
