<svg width="49" height="61" viewBox="0 0 49 61" fill="none" xmlns="http://www.w3.org/2000/svg">
<path fill-rule="evenodd" clip-rule="evenodd" d="M49 35.2313C48.0772 29.7506 43.7048 28.3031 43.7048 24.4085C44.8462 10.5441 37.9479 0 22.0813 0C-1.50749 0 -6.98483 29.8483 9.47582 41.6882C10.0635 51.1128 6.17082 57.7994 5.69481 61H16.5718C19.1079 47.7544 22.3512 37.0726 11.3289 34.1012C10.7201 35.0436 9.6642 35.667 8.46339 35.667C6.57756 35.667 5.04872 34.1297 5.04872 32.2336C5.04872 30.3374 6.57756 28.8001 8.46339 28.8001C10.3839 28.8001 11.9272 30.3913 11.8768 32.3259C13.9657 31.9147 15.1957 30.6505 16.859 30.059C13.3349 28.1378 12.2729 25.1868 10.2728 23.0828C8.02976 24.5611 4.98891 22.956 4.98891 20.2094C4.98891 18.3132 6.51775 16.776 8.40358 16.776C10.5336 16.776 12.1362 18.7123 11.7656 20.8129C14.6923 22.2107 15.2882 25.6598 19.6681 27.3363C20.7208 21.137 18.2501 17.0954 13.8559 14.023C11.6119 15.2078 8.85625 13.5832 8.85625 10.9814C8.85625 9.08517 10.3851 7.54795 12.2709 7.54795C14.4481 7.54795 16.059 9.56527 15.6115 11.6946C16.6941 11.9014 17.7403 12.3388 18.5323 13.4186C19.2301 11.8902 18.2566 10.2706 18.9746 8.33774C18.2741 7.70897 17.833 6.79434 17.833 5.77586C17.833 3.87967 19.3618 2.34245 21.2477 2.34245C23.1335 2.34245 24.6623 3.87967 24.6623 5.77586C24.6623 7.6902 23.1038 9.23718 21.1987 9.20865C20.9236 11.2678 21.8457 14.501 22.5665 15.4862C23.7453 13.4386 26.3408 12.2462 28.19 10.9081C26.9235 8.64854 28.5348 5.79142 31.1665 5.79142C33.0523 5.79142 34.5812 7.32864 34.5812 9.22483C34.5812 11.5531 32.3329 13.184 30.1541 12.5048C28.2139 14.2442 25.6938 15.8979 24.3868 18.1269L24.4946 21.7976C26.8073 19.2582 29.0508 18.3763 31.0385 17.8147C31.2442 16.1163 32.6832 14.8008 34.4278 14.8008C36.3136 14.8008 37.8424 16.338 37.8424 18.2342C37.8424 20.1304 36.3136 21.6676 34.4278 21.6676C33.4629 21.6676 32.5915 21.2652 31.9706 20.6181C29.869 21.6604 27.6889 23.028 24.8649 26.4733L25.8787 29.0246C27.628 26.6591 29.977 26.3432 32.0554 26.6944C32.6712 25.7961 33.7015 25.2071 34.8686 25.2071C36.7545 25.2071 38.2833 26.7443 38.2833 28.6405C38.2833 30.5367 36.7545 32.0739 34.8686 32.0739C33.5036 32.0739 32.3259 31.2684 31.7794 30.1045C21.7762 32.7915 26.2827 54.7901 26.3 61H32.5759C32.5759 55.3894 28.0846 51.2226 31.7595 49.6052C33.9739 48.6306 41.1934 52.3967 42.9695 50.174C44.2649 44.598 45.5008 45.5432 45.5008 43.5221C42.7294 41.3995 42.888 41.115 45.6758 40.2097L45.7014 35.8571L49 35.2312V35.2313ZM33.139 29.3104C32.7554 28.9246 32.7554 28.2992 33.139 27.9136C33.5324 27.518 34.1388 27.522 34.5644 27.95L35.1513 27.2418C35.4968 26.8241 36.1137 26.7671 36.529 27.1145C36.9445 27.4619 37.0011 28.0821 36.6556 28.4997L35.3222 30.1087C34.9385 30.4944 34.3165 30.4944 33.933 30.1087L33.139 29.3104ZM6.73377 32.9034C6.35012 32.5177 6.35012 31.8923 6.73377 31.5065C7.12712 31.111 7.73355 31.1149 8.1592 31.5429L8.74609 30.8348C9.09155 30.417 9.70842 30.3601 10.1238 30.7074C10.5392 31.0548 10.5958 31.6751 10.2504 32.0927L8.91692 33.7016C8.53327 34.0874 7.91125 34.0874 7.52772 33.7016L6.73377 32.9034ZM6.67396 20.8794C6.29031 20.4937 6.29031 19.8682 6.67396 19.4826C7.06731 19.0871 7.67374 19.091 8.09939 19.5189L8.68629 18.8107C9.03174 18.3931 9.64861 18.3361 10.0639 18.6834C10.4794 19.0308 10.536 19.651 10.1906 20.0686L8.85711 21.6776C8.47346 22.0634 7.85144 22.0634 7.46791 21.6776L6.67396 20.8793V20.8794ZM10.5413 11.6515C10.1576 11.2657 10.1576 10.6403 10.5413 10.2547C10.9347 9.85916 11.5411 9.86311 11.9667 10.291L12.5536 9.5828C12.8991 9.16519 13.5159 9.10814 13.9313 9.45549C14.3466 9.80285 14.4034 10.4231 14.0579 10.8407L12.7244 12.4497C12.3408 12.8354 11.7188 12.8354 11.3352 12.4497L10.5413 11.6515ZM19.518 6.446C19.1344 6.06024 19.1344 5.4348 19.518 5.04917C19.9114 4.65366 20.5178 4.65761 20.9435 5.08547L21.5304 4.37731C21.8758 3.95957 22.4927 3.90264 22.908 4.25C23.3234 4.59735 23.3801 5.2176 23.0346 5.63521L21.7012 7.24418C21.3175 7.62994 20.6955 7.62994 20.312 7.24418L19.518 6.446ZM29.4369 9.89484C29.0532 9.50909 29.0532 8.88365 29.4369 8.49802C29.8302 8.1025 30.4366 8.10645 30.8623 8.53444L31.4492 7.82627C31.7946 7.40854 32.4115 7.35161 32.8268 7.69897C33.2422 8.04632 33.2989 8.66657 32.9535 9.08418L31.62 10.6932C31.2364 11.0789 30.6143 11.0789 30.2308 10.6932L29.4369 9.89484ZM32.6983 18.9042C32.3146 18.5184 32.3146 17.893 32.6983 17.5074C33.0916 17.1119 33.698 17.1158 34.1237 17.5437L34.7106 16.8355C35.056 16.4179 35.6729 16.3608 36.0882 16.7082C36.5036 17.0556 36.5603 17.6758 36.2149 18.0934L34.8814 19.7024C34.4978 20.0881 33.8757 20.0881 33.4922 19.7024L32.6983 18.9041V18.9042Z" fill="#00B8FF"/>
</svg>
