<svg width="77" height="77" viewBox="0 0 77 77" fill="none" xmlns="http://www.w3.org/2000/svg">
<path d="M38.4998 70.5846C56.219 70.5846 70.5832 56.2204 70.5832 38.5013C70.5832 20.7822 56.219 6.41797 38.4998 6.41797C20.7807 6.41797 6.4165 20.7822 6.4165 38.5013C6.4165 56.2204 20.7807 70.5846 38.4998 70.5846Z" stroke="white" stroke-width="1.5" stroke-linecap="round" stroke-linejoin="round"/>
<path d="M25.6665 9.625H28.8748C22.6186 28.3617 22.6186 48.6383 28.8748 67.375H25.6665" stroke="white" stroke-width="1.5" stroke-linecap="round" stroke-linejoin="round"/>
<path d="M48.125 9.625C54.3812 28.3617 54.3812 48.6383 48.125 67.375" stroke="white" stroke-width="1.5" stroke-linecap="round" stroke-linejoin="round"/>
<path d="M9.625 51.3333V48.125C28.3617 54.3812 48.6383 54.3812 67.375 48.125V51.3333" stroke="white" stroke-width="1.5" stroke-linecap="round" stroke-linejoin="round"/>
<path d="M9.625 28.8758C28.3617 22.6195 48.6383 22.6195 67.375 28.8758" stroke="white" stroke-width="1.5" stroke-linecap="round" stroke-linejoin="round"/>
</svg>
