<svg width="18" height="16" viewBox="0 0 18 16" fill="none" xmlns="http://www.w3.org/2000/svg">
<path d="M15.6194 4.50671L13.3728 13.5267C13.2128 14.2001 12.6128 14.6667 11.9194 14.6667H3.15944C2.15277 14.6667 1.43278 13.68 1.73278 12.7133L4.53944 3.70007C4.73277 3.07341 5.31278 2.64001 5.96612 2.64001H14.1661C14.7994 2.64001 15.3261 3.02668 15.5461 3.56002C15.6728 3.84668 15.6994 4.17338 15.6194 4.50671Z" stroke="#131053" stroke-width="1.5" stroke-miterlimit="10"/>
<path d="M11.666 14.6667H14.8527C15.7127 14.6667 16.386 13.94 16.326 13.08L15.666 4" stroke="#131053" stroke-width="1.5" stroke-miterlimit="10" stroke-linecap="round" stroke-linejoin="round"/>
<path d="M7.45312 4.25338L8.14646 1.37341" stroke="#131053" stroke-width="1.5" stroke-miterlimit="10" stroke-linecap="round" stroke-linejoin="round"/>
<path d="M11.9199 4.26001L12.5466 1.3667" stroke="#131053" stroke-width="1.5" stroke-miterlimit="10" stroke-linecap="round" stroke-linejoin="round"/>
<path d="M6.13281 8H11.4661" stroke="#131053" stroke-width="1.5" stroke-miterlimit="10" stroke-linecap="round" stroke-linejoin="round"/>
<path d="M5.4668 10.6666H10.8001" stroke="#131053" stroke-width="1.5" stroke-miterlimit="10" stroke-linecap="round" stroke-linejoin="round"/>
</svg>
