<svg width="24" height="27" viewBox="0 0 24 27" fill="none" xmlns="http://www.w3.org/2000/svg">
<path d="M11.8653 0C7.12101 0 3.16406 3.82169 3.16406 8.70123C3.16406 10.5576 3.72189 12.2129 4.79246 13.7641L11.1994 23.7615C11.5102 24.2475 12.221 24.2466 12.5312 23.7615L18.9659 13.7301C20.0134 12.2492 20.5665 10.5104 20.5665 8.70123C20.5665 3.90337 16.6632 0 11.8653 0ZM11.8653 12.6563C9.68456 12.6563 7.91019 10.882 7.91019 8.70123C7.91019 6.52049 9.68456 4.74613 11.8653 4.74613C14.046 4.74613 15.8204 6.52049 15.8204 8.70123C15.8204 10.882 14.046 12.6563 11.8653 12.6563Z" fill="#FFE14D"/>
<path d="M18.0492 18.1777L14.0661 24.405C13.0351 26.0125 10.6898 26.0072 9.66375 24.4066L5.67415 18.1794C2.16392 18.991 0 20.4777 0 22.2544C0 25.3374 6.11343 27.0005 11.8653 27.0005C17.6172 27.0005 23.7306 25.3374 23.7306 22.2544C23.7306 20.4764 21.5637 18.9889 18.0492 18.1777Z" fill="#FFE14D"/>
</svg>
