<svg width="71" height="71" viewBox="0 0 71 71" fill="none" xmlns="http://www.w3.org/2000/svg">
<path d="M13.0117 0.25H57.9766C58.3118 0.250036 58.6184 0.425479 58.7871 0.723633V0.724609L70.6201 22.0215L70.6377 22.0518L70.6436 22.0576C70.7895 22.3428 70.7848 22.6735 70.623 22.9541C70.6159 22.9641 70.6071 22.9777 70.5967 22.9912C70.5901 22.9998 70.5835 23.0072 70.5791 23.0127C70.577 23.0154 70.5754 23.0181 70.5742 23.0195L70.5732 23.0215H70.5723L70.5654 23.0312L36.25 70.3564L36.249 70.3574C36.2076 70.4155 36.1559 70.4685 36.1006 70.5156L36.0996 70.5166C36.0912 70.5219 36.0788 70.5303 36.0625 70.54C36.0299 70.5595 35.9865 70.5845 35.9424 70.6094C35.8978 70.6345 35.8541 70.6581 35.8213 70.6748C35.8101 70.6805 35.801 70.6837 35.7949 70.6865L35.7822 70.6914C35.7468 70.7032 35.6783 70.7191 35.6074 70.7324C35.5751 70.7385 35.5454 70.7426 35.5234 70.7461C35.5148 70.7445 35.5045 70.7434 35.4932 70.7412C35.453 70.7334 35.3998 70.7229 35.3457 70.7119C35.2916 70.7009 35.237 70.6898 35.1943 70.6807C35.1742 70.6763 35.1572 70.6718 35.1445 70.6689C35.1341 70.6625 35.1163 70.6509 35.0898 70.6328C35.046 70.6028 34.992 70.5643 34.9385 70.5234C34.8849 70.4825 34.8333 70.4409 34.793 70.4062L34.7393 70.3574L34.7383 70.3564L34.5352 70.5029C34.7376 70.3562 34.7376 70.3558 34.7373 70.3555L34.7363 70.3545C34.7353 70.3531 34.7335 70.3505 34.7314 70.3477C34.7273 70.3419 34.721 70.3335 34.7129 70.3223C34.6964 70.2995 34.6721 70.2654 34.6396 70.2207C34.5748 70.1312 34.479 69.9983 34.3535 69.8252C34.1024 69.4788 33.7333 68.9709 33.2646 68.3242C32.3273 67.0308 30.9888 65.1823 29.3818 62.9648C26.1678 58.5298 21.8821 52.616 17.5957 46.7012C13.3093 40.7863 9.02173 34.8702 5.80469 30.4307C4.19616 28.2109 2.85464 26.3603 1.91504 25.0635L0.44043 23.0273C0.421767 22.9994 0.40291 22.976 0.391602 22.9619C0.383195 22.9514 0.378027 22.9449 0.374023 22.9395C0.211117 22.6655 0.208761 22.3132 0.368164 22.0215L12.2012 0.724609V0.723633C12.3577 0.438242 12.6755 0.25 13.0117 0.25ZM23.7871 23.7295L35.1348 64.9971L35.6201 64.9854L44.9082 23.7178L44.9775 23.4131H23.7002L23.7871 23.7295ZM46.8467 23.6074L37.6641 64.4023L38.1104 64.6045L67.6924 23.8096L67.9805 23.4131H46.8906L46.8467 23.6074ZM3.2959 23.8096L32.416 63.9766L32.4912 64.0801H32.959L32.8711 63.7637L21.8193 23.5967L21.7695 23.4131H3.00781L3.2959 23.8096ZM12.6748 3.71191L2.97168 21.1748L2.76562 21.5469H21.04L13.1221 3.73145L12.918 3.27344L12.6748 3.71191ZM34.0918 3.49902L24.2715 21.1748L24.0645 21.5469H44.5566L44.3506 21.1748L34.5293 3.49902L34.3105 3.10547L34.0918 3.49902ZM57.7578 3.49902L47.9365 21.1748L47.7305 21.5469H68.2227L68.0166 21.1748L58.1953 3.49902L57.9766 3.10547L57.7578 3.49902ZM36.1035 2.4873L45.9248 20.1641L46.1436 20.5566L46.3623 20.1641L56.1836 2.4873L56.3896 2.11621H35.8975L36.1035 2.4873ZM14.6055 2.46777L22.3682 19.9307L22.5713 20.3887L22.8145 19.9512L32.5176 2.4873L32.7246 2.11621H14.4492L14.6055 2.46777Z" fill="#131053" stroke="white" stroke-width="0.5"/>
</svg>
