<svg width="20" height="20" viewBox="0 0 20 20" fill="none" xmlns="http://www.w3.org/2000/svg">
<path d="M8.9999 0.0493164L9 2.06182C5.05371 2.5539 2 5.9203 2 9.9999C2 14.4182 5.58172 17.9999 10 17.9999C11.8487 17.9999 13.5509 17.3729 14.9055 16.3199L16.3289 17.7427C14.605 19.1535 12.4014 19.9999 10 19.9999C4.47715 19.9999 0 15.5228 0 9.9999C0 4.81462 3.94662 0.551086 8.9999 0.0493164ZM19.9506 11C19.7509 13.011 18.9555 14.8467 17.7433 16.3282L16.3199 14.9055C17.1801 13.7989 17.756 12.4606 17.9381 10.9999L19.9506 11ZM11.0011 0.0494165C15.725 0.518947 19.4815 4.27583 19.9506 8.9998L17.9381 9C17.4869 5.38156 14.6192 2.51358 11.001 2.06194L11.0011 0.0494165Z" fill="#1E2022"/>
</svg>
