<svg width="20" height="20" viewBox="0 0 20 20" fill="none" xmlns="http://www.w3.org/2000/svg">
<path d="M4.45455 16.1299L0 19.6299V1.12988C0 0.577603 0.44772 0.129883 1 0.129883H19C19.5523 0.129883 20 0.577603 20 1.12988V15.1299C20 15.6822 19.5523 16.1299 19 16.1299H4.45455ZM9 11.1299V13.1299H11V11.1299H9ZM6.56731 5.94334L8.5288 6.33565C8.6656 5.64811 9.2723 5.12988 10 5.12988C10.8284 5.12988 11.5 5.80145 11.5 6.62988C11.5 7.45828 10.8284 8.12988 10 8.12988H9V10.1299H10C11.933 10.1299 13.5 8.56288 13.5 6.62988C13.5 4.69688 11.933 3.12988 10 3.12988C8.302 3.12988 6.88637 4.33907 6.56731 5.94334Z" fill="#FF6C0A"/>
</svg>
