<svg width="31" height="18" viewBox="0 0 31 18" fill="none" xmlns="http://www.w3.org/2000/svg">
<g clip-path="url(#clip0_2513_2274)">
<path fill-rule="evenodd" clip-rule="evenodd" d="M20.596 17.634C20.4799 17.5179 20.3878 17.3801 20.3249 17.2284C20.2621 17.0767 20.2297 16.9142 20.2297 16.75C20.2297 16.5858 20.2621 16.4232 20.3249 16.2716C20.3878 16.1199 20.4799 15.9821 20.596 15.866L25.962 10.5H1.47998C1.14846 10.5 0.830517 10.3683 0.596097 10.1339C0.361677 9.89944 0.22998 9.5815 0.22998 9.24998C0.22998 8.91846 0.361677 8.60052 0.596097 8.3661C0.830517 8.13168 1.14846 7.99998 1.47998 7.99998H25.962L20.596 2.63398C20.3615 2.39953 20.2298 2.08155 20.2298 1.74998C20.2298 1.41842 20.3615 1.10043 20.596 0.865982C20.8304 0.63153 21.1484 0.499817 21.48 0.499817C21.8115 0.499817 22.1295 0.63153 22.364 0.865982L29.864 8.36598C29.9801 8.48206 30.0722 8.61987 30.135 8.77155C30.1979 8.92323 30.2302 9.0858 30.2302 9.24998C30.2302 9.41416 30.1979 9.57673 30.135 9.72841C30.0722 9.88009 29.9801 10.0179 29.864 10.134L22.364 17.634C22.2479 17.7501 22.1101 17.8422 21.9584 17.905C21.8067 17.9679 21.6442 18.0002 21.48 18.0002C21.3158 18.0002 21.1532 17.9679 21.0016 17.905C20.8499 17.8422 20.7121 17.7501 20.596 17.634Z" fill="white"/>
</g>
<defs>
<clipPath id="clip0_2513_2274">
<rect width="30" height="18" fill="white" transform="translate(0.22998)"/>
</clipPath>
</defs>
</svg>
