<svg width="27" height="27" viewBox="0 0 27 27" fill="none" xmlns="http://www.w3.org/2000/svg">
<path d="M19.125 3.9375H7.875C4.5 3.9375 2.25 5.625 2.25 9.5625V17.4375C2.25 21.375 4.5 23.0625 7.875 23.0625H19.125C22.5 23.0625 24.75 21.375 24.75 17.4375V9.5625C24.75 5.625 22.5 3.9375 19.125 3.9375ZM19.6537 10.7888L16.1325 13.6012C15.39 14.1975 14.445 14.49 13.5 14.49C12.555 14.49 11.5988 14.1975 10.8675 13.6012L7.34625 10.7888C6.98625 10.4963 6.93 9.95625 7.21125 9.59625C7.50375 9.23625 8.0325 9.16875 8.3925 9.46125L11.9137 12.2738C12.7688 12.96 14.22 12.96 15.075 12.2738L18.5963 9.46125C18.9563 9.16875 19.4963 9.225 19.7775 9.59625C20.07 9.95625 20.0138 10.4963 19.6537 10.7888Z" fill="#FFE14D"/>
</svg>
