<svg width="24" height="24" viewBox="0 0 24 24" fill="none" xmlns="http://www.w3.org/2000/svg">
<mask id="path-1-outside-1_2736_409" maskUnits="userSpaceOnUse" x="0.000976562" y="0.000976562" width="24" height="24" fill="black">
<rect fill="white" x="0.000976562" y="0.000976562" width="24" height="24"/>
<path fill-rule="evenodd" clip-rule="evenodd" d="M12.0002 8.33373C9.97819 8.33373 8.33382 6.68936 8.33382 4.66735C8.33382 2.64535 9.97819 1.00098 12.0002 1.00098C14.0222 1.00098 15.6666 2.64535 15.6666 4.66735C15.6666 6.68936 14.0222 8.33373 12.0002 8.33373ZM12.0002 2.37587C10.7362 2.37587 9.70871 3.40429 9.70871 4.66735C9.70871 5.93042 10.7362 6.95884 12.0002 6.95884C13.2642 6.95884 14.2917 5.93042 14.2917 4.66735C14.2917 3.40429 13.2642 2.37587 12.0002 2.37587ZM18.6595 9.05818C18.4541 9.18024 18.2143 9.25033 17.9581 9.25033C17.1987 9.25033 16.5832 8.63477 16.5832 7.87543C16.5832 7.1161 17.1987 6.50054 17.9581 6.50054C18.7101 6.50054 19.3211 7.10431 19.3328 7.85355C21.0479 8.99064 22.1497 10.8816 22.2946 12.9169H22.3117C22.5363 12.9169 22.7462 13.026 22.8745 13.2102C23.0037 13.3935 23.034 13.6291 22.9579 13.8399L21.1247 18.8812C21.0257 19.1525 20.7673 19.333 20.4785 19.333H17.0493L16.5748 22.4174C16.5235 22.7565 16.2302 22.9994 15.8965 22.9994C15.8617 22.9994 15.8269 22.9967 15.7911 22.9912C15.4162 22.9334 15.1587 22.5824 15.2164 22.2075L16.0111 17.0416H7.98906L8.78375 22.2075C8.84149 22.5833 8.58393 22.9334 8.20904 22.9912C7.83416 23.0526 7.48218 22.7923 7.42535 22.4165L6.95098 19.333H3.52153C3.23281 19.333 2.97433 19.1525 2.87533 18.8802L1.04214 13.839C0.966067 13.6282 0.996315 13.3935 1.12555 13.2093C1.25388 13.026 1.46378 12.9169 1.68834 12.9169H4.4924C4.82291 10.8417 6.62526 9.25033 8.79203 9.25033H15.2082C17.375 9.25033 19.1773 10.8417 19.5078 12.9169H20.9163C20.7774 11.375 19.9449 9.94682 18.6595 9.05818ZM18.1071 12.9169C17.796 11.6045 16.6143 10.6252 15.2082 10.6252H8.79203C7.38595 10.6252 6.20421 11.6045 5.89311 12.9169H18.1071ZM17.2608 17.9582H19.9964L21.33 14.2918H2.6691L4.00274 17.9582H6.73946L6.50876 16.4586C6.47851 16.2606 6.53534 16.0581 6.66642 15.9059C6.79749 15.7537 6.98722 15.6667 7.18796 15.6667H16.8122C17.0129 15.6667 17.2036 15.7547 17.3337 15.9068C17.4639 16.059 17.5216 16.2606 17.4914 16.4595L17.2608 17.9582Z"/>
</mask>
<path fill-rule="evenodd" clip-rule="evenodd" d="M12.0002 8.33373C9.97819 8.33373 8.33382 6.68936 8.33382 4.66735C8.33382 2.64535 9.97819 1.00098 12.0002 1.00098C14.0222 1.00098 15.6666 2.64535 15.6666 4.66735C15.6666 6.68936 14.0222 8.33373 12.0002 8.33373ZM12.0002 2.37587C10.7362 2.37587 9.70871 3.40429 9.70871 4.66735C9.70871 5.93042 10.7362 6.95884 12.0002 6.95884C13.2642 6.95884 14.2917 5.93042 14.2917 4.66735C14.2917 3.40429 13.2642 2.37587 12.0002 2.37587ZM18.6595 9.05818C18.4541 9.18024 18.2143 9.25033 17.9581 9.25033C17.1987 9.25033 16.5832 8.63477 16.5832 7.87543C16.5832 7.1161 17.1987 6.50054 17.9581 6.50054C18.7101 6.50054 19.3211 7.10431 19.3328 7.85355C21.0479 8.99064 22.1497 10.8816 22.2946 12.9169H22.3117C22.5363 12.9169 22.7462 13.026 22.8745 13.2102C23.0037 13.3935 23.034 13.6291 22.9579 13.8399L21.1247 18.8812C21.0257 19.1525 20.7673 19.333 20.4785 19.333H17.0493L16.5748 22.4174C16.5235 22.7565 16.2302 22.9994 15.8965 22.9994C15.8617 22.9994 15.8269 22.9967 15.7911 22.9912C15.4162 22.9334 15.1587 22.5824 15.2164 22.2075L16.0111 17.0416H7.98906L8.78375 22.2075C8.84149 22.5833 8.58393 22.9334 8.20904 22.9912C7.83416 23.0526 7.48218 22.7923 7.42535 22.4165L6.95098 19.333H3.52153C3.23281 19.333 2.97433 19.1525 2.87533 18.8802L1.04214 13.839C0.966067 13.6282 0.996315 13.3935 1.12555 13.2093C1.25388 13.026 1.46378 12.9169 1.68834 12.9169H4.4924C4.82291 10.8417 6.62526 9.25033 8.79203 9.25033H15.2082C17.375 9.25033 19.1773 10.8417 19.5078 12.9169H20.9163C20.7774 11.375 19.9449 9.94682 18.6595 9.05818ZM18.1071 12.9169C17.796 11.6045 16.6143 10.6252 15.2082 10.6252H8.79203C7.38595 10.6252 6.20421 11.6045 5.89311 12.9169H18.1071ZM17.2608 17.9582H19.9964L21.33 14.2918H2.6691L4.00274 17.9582H6.73946L6.50876 16.4586C6.47851 16.2606 6.53534 16.0581 6.66642 15.9059C6.79749 15.7537 6.98722 15.6667 7.18796 15.6667H16.8122C17.0129 15.6667 17.2036 15.7547 17.3337 15.9068C17.4639 16.059 17.5216 16.2606 17.4914 16.4595L17.2608 17.9582Z" fill="#FE720D"/>
<path d="M18.6595 9.05818L18.7732 8.89367L18.6677 8.82068L18.5573 8.88626L18.6595 9.05818ZM19.3328 7.85355L19.1328 7.85667L19.1345 7.96202L19.2223 8.02024L19.3328 7.85355ZM22.2946 12.9169L22.0951 12.9311L22.1083 13.1169H22.2946V12.9169ZM22.8745 13.2102L22.7104 13.3245L22.711 13.3254L22.8745 13.2102ZM22.9579 13.8399L23.1459 13.9082L23.146 13.9078L22.9579 13.8399ZM21.1247 18.8812L21.3126 18.9497L21.3127 18.9495L21.1247 18.8812ZM17.0493 19.333V19.133H16.8777L16.8516 19.3026L17.0493 19.333ZM16.5748 22.4174L16.3771 22.387L16.3771 22.3875L16.5748 22.4174ZM15.7911 22.9912L15.7607 23.1888L15.7607 23.1888L15.7911 22.9912ZM15.2164 22.2075L15.4141 22.2379L15.4141 22.2379L15.2164 22.2075ZM16.0111 17.0416L16.2088 17.072L16.2442 16.8416H16.0111V17.0416ZM7.98906 17.0416V16.8416H7.75594L7.79139 17.072L7.98906 17.0416ZM8.78375 22.2075L8.98143 22.1771L8.98142 22.1771L8.78375 22.2075ZM8.20904 22.9912L8.17859 22.7935L8.17671 22.7938L8.20904 22.9912ZM7.42535 22.4165L7.62311 22.3866L7.62303 22.3861L7.42535 22.4165ZM6.95098 19.333L7.14866 19.3026L7.12257 19.133H6.95098V19.333ZM2.87533 18.8802L2.68737 18.9486L2.87533 18.8802ZM1.04214 13.839L0.854019 13.9069L0.854186 13.9073L1.04214 13.839ZM1.12555 13.2093L1.28929 13.3241L1.2894 13.324L1.12555 13.2093ZM4.4924 12.9169V13.1169H4.66306L4.68991 12.9483L4.4924 12.9169ZM19.5078 12.9169L19.3103 12.9483L19.3372 13.1169H19.5078V12.9169ZM20.9163 12.9169V13.1169H21.1351L21.1155 12.8989L20.9163 12.9169ZM18.1071 12.9169V13.1169H18.3601L18.3017 12.8707L18.1071 12.9169ZM5.89311 12.9169L5.6985 12.8707L5.64016 13.1169H5.89311V12.9169ZM19.9964 17.9582V18.1582H20.1365L20.1844 18.0265L19.9964 17.9582ZM17.2608 17.9582L17.0632 17.9277L17.0277 18.1582H17.2608V17.9582ZM21.33 14.2918L21.518 14.3601L21.6156 14.0918H21.33V14.2918ZM2.6691 14.2918V14.0918H2.38353L2.48115 14.3601L2.6691 14.2918ZM4.00274 17.9582L3.81479 18.0265L3.86267 18.1582H4.00274V17.9582ZM6.73946 17.9582V18.1582H6.97258L6.93713 17.9277L6.73946 17.9582ZM6.50876 16.4586L6.31105 16.4888L6.31109 16.489L6.50876 16.4586ZM6.66642 15.9059L6.81794 16.0364L6.81794 16.0364L6.66642 15.9059ZM17.3337 15.9068L17.4857 15.7768V15.7768L17.3337 15.9068ZM17.4914 16.4595L17.6891 16.4899L17.6891 16.4896L17.4914 16.4595ZM8.13382 4.66735C8.13382 6.79982 9.86773 8.53373 12.0002 8.53373V8.13373C10.0886 8.13373 8.53382 6.5789 8.53382 4.66735H8.13382ZM12.0002 0.800977C9.86773 0.800977 8.13382 2.53489 8.13382 4.66735H8.53382C8.53382 2.7558 10.0886 1.20098 12.0002 1.20098V0.800977ZM15.8666 4.66735C15.8666 2.53489 14.1327 0.800977 12.0002 0.800977V1.20098C13.9117 1.20098 15.4666 2.7558 15.4666 4.66735H15.8666ZM12.0002 8.53373C14.1327 8.53373 15.8666 6.79982 15.8666 4.66735H15.4666C15.4666 6.5789 13.9117 8.13373 12.0002 8.13373V8.53373ZM9.90871 4.66735C9.90871 3.51469 10.8467 2.57587 12.0002 2.57587V2.17587C10.6257 2.17587 9.50871 3.29388 9.50871 4.66735H9.90871ZM12.0002 6.75884C10.8467 6.75884 9.90871 5.82002 9.90871 4.66735H9.50871C9.50871 6.04083 10.6257 7.15884 12.0002 7.15884V6.75884ZM14.0917 4.66735C14.0917 5.82002 13.1537 6.75884 12.0002 6.75884V7.15884C13.3747 7.15884 14.4917 6.04083 14.4917 4.66735H14.0917ZM12.0002 2.57587C13.1537 2.57587 14.0917 3.51469 14.0917 4.66735H14.4917C14.4917 3.29388 13.3747 2.17587 12.0002 2.17587V2.57587ZM17.9581 9.45033C18.2512 9.45033 18.5263 9.37003 18.7617 9.23011L18.5573 8.88626C18.382 8.99044 18.1773 9.05033 17.9581 9.05033V9.45033ZM16.3832 7.87543C16.3832 8.74522 17.0883 9.45033 17.9581 9.45033V9.05033C17.3092 9.05033 16.7832 8.52431 16.7832 7.87543H16.3832ZM17.9581 6.30054C17.0883 6.30054 16.3832 7.00565 16.3832 7.87543H16.7832C16.7832 7.22656 17.3092 6.70054 17.9581 6.70054V6.30054ZM19.5328 7.85042C19.5194 6.99213 18.8195 6.30054 17.9581 6.30054V6.70054C18.6007 6.70054 19.1228 7.21648 19.1328 7.85667L19.5328 7.85042ZM22.4941 12.9027C22.3448 10.8053 21.21 8.85812 19.4433 7.68685L19.2223 8.02024C20.8858 9.12315 21.9547 10.9579 22.0951 12.9311L22.4941 12.9027ZM22.3117 12.7169H22.2946V13.1169H22.3117V12.7169ZM23.0386 13.0959C22.8727 12.8577 22.6014 12.7169 22.3117 12.7169V13.1169C22.4712 13.1169 22.6197 13.1942 22.7104 13.3245L23.0386 13.0959ZM23.146 13.9078C23.2439 13.6365 23.2054 13.3324 23.038 13.095L22.711 13.3254C22.8021 13.4546 22.824 13.6217 22.7698 13.772L23.146 13.9078ZM21.3127 18.9495L23.1459 13.9082L22.77 13.7715L20.9368 18.8128L21.3127 18.9495ZM20.4785 19.533C20.8512 19.533 21.1848 19.3001 21.3126 18.9497L20.9368 18.8126C20.8667 19.0049 20.6834 19.133 20.4785 19.133V19.533ZM17.0493 19.533H20.4785V19.133H17.0493V19.533ZM16.7725 22.4478L17.247 19.3635L16.8516 19.3026L16.3771 22.387L16.7725 22.4478ZM15.8965 23.1994C16.3268 23.1994 16.7061 22.8864 16.7725 22.4473L16.3771 22.3875C16.3409 22.6266 16.1335 22.7994 15.8965 22.7994V23.1994ZM15.7607 23.1888C15.806 23.1958 15.851 23.1994 15.8965 23.1994V22.7994C15.8724 22.7994 15.8477 22.7975 15.8215 22.7935L15.7607 23.1888ZM15.0187 22.177C14.9442 22.6612 15.2767 23.1143 15.7607 23.1888L15.8216 22.7935C15.5557 22.7526 15.3732 22.5036 15.4141 22.2379L15.0187 22.177ZM15.8134 17.0111L15.0187 22.1771L15.4141 22.2379L16.2088 17.072L15.8134 17.0111ZM7.98906 17.2416H16.0111V16.8416H7.98906V17.2416ZM8.98142 22.1771L8.18674 17.0111L7.79139 17.072L8.58607 22.2379L8.98142 22.1771ZM8.23949 23.1888C8.72335 23.1143 9.05597 22.6622 8.98143 22.1771L8.58607 22.2379C8.62702 22.5043 8.44451 22.7525 8.1786 22.7935L8.23949 23.1888ZM7.2276 22.4464C7.30082 22.9305 7.75473 23.2683 8.24138 23.1885L8.17671 22.7938C7.91358 22.8369 7.66355 22.654 7.62311 22.3866L7.2276 22.4464ZM6.75331 19.3635L7.22768 22.4469L7.62303 22.3861L7.14866 19.3026L6.75331 19.3635ZM3.52153 19.533H6.95098V19.133H3.52153V19.533ZM2.68737 18.9486C2.81513 19.2999 3.14878 19.533 3.52153 19.533V19.133C3.31684 19.133 3.13352 19.005 3.06329 18.8119L2.68737 18.9486ZM0.854186 13.9073L2.68737 18.9486L3.06329 18.8119L1.2301 13.7706L0.854186 13.9073ZM0.961823 13.0944C0.794849 13.3324 0.756037 13.6353 0.854019 13.9069L1.23027 13.7711C1.1761 13.621 1.19778 13.4546 1.28929 13.3241L0.961823 13.0944ZM1.68834 12.7169C1.39877 12.7169 1.1276 12.8576 0.961708 13.0946L1.2894 13.324C1.38015 13.1943 1.52878 13.1169 1.68834 13.1169V12.7169ZM4.4924 12.7169H1.68834V13.1169H4.4924V12.7169ZM4.68991 12.9483C5.00523 10.9685 6.72526 9.45033 8.79203 9.45033V9.05033C6.52527 9.05033 4.6406 10.7148 4.29489 12.8854L4.68991 12.9483ZM8.79203 9.45033H15.2082V9.05033H8.79203V9.45033ZM15.2082 9.45033C17.275 9.45033 18.995 10.9685 19.3103 12.9483L19.7053 12.8854C19.3596 10.7148 17.4749 9.05033 15.2082 9.05033V9.45033ZM20.9163 12.7169H19.5078V13.1169H20.9163V12.7169ZM18.5458 9.2227C19.7826 10.0777 20.5836 11.4523 20.7171 12.9348L21.1155 12.8989C20.9713 11.2976 20.1072 9.8159 18.7732 8.89367L18.5458 9.2227ZM18.3017 12.8707C17.9698 11.4704 16.7092 10.4252 15.2082 10.4252V10.8252C16.5193 10.8252 17.6223 11.7386 17.9125 12.963L18.3017 12.8707ZM15.2082 10.4252H8.79203V10.8252H15.2082V10.4252ZM8.79203 10.4252C7.291 10.4252 6.03046 11.4704 5.6985 12.8707L6.08772 12.963C6.37797 11.7386 7.4809 10.8252 8.79203 10.8252V10.4252ZM18.1071 12.7169H5.89311V13.1169H18.1071V12.7169ZM19.9964 17.7582H17.2608V18.1582H19.9964V17.7582ZM21.1421 14.2234L19.8085 17.8898L20.1844 18.0265L21.518 14.3601L21.1421 14.2234ZM2.6691 14.4918H21.33V14.0918H2.6691V14.4918ZM4.1907 17.8898L2.85705 14.2234L2.48115 14.3601L3.81479 18.0265L4.1907 17.8898ZM6.73946 17.7582H4.00274V18.1582H6.73946V17.7582ZM6.31109 16.489L6.54179 17.9886L6.93713 17.9277L6.70643 16.4282L6.31109 16.489ZM6.51489 15.7754C6.3451 15.9725 6.27212 16.234 6.31105 16.4888L6.70647 16.4284C6.68491 16.2873 6.72558 16.1436 6.81794 16.0364L6.51489 15.7754ZM7.18796 15.4667C6.92893 15.4667 6.6839 15.5792 6.51489 15.7754L6.81794 16.0364C6.91108 15.9283 7.04551 15.8667 7.18796 15.8667V15.4667ZM16.8122 15.4667H7.18796V15.8667H16.8122V15.4667ZM17.4857 15.7768C17.3176 15.5803 17.0714 15.4667 16.8122 15.4667V15.8667C16.9544 15.8667 17.0896 15.929 17.1818 16.0368L17.4857 15.7768ZM17.6891 16.4896C17.7281 16.2333 17.6537 15.9732 17.4857 15.7768L17.1818 16.0368C17.2741 16.1448 17.3152 16.288 17.2937 16.4295L17.6891 16.4896ZM17.4585 17.9886L17.6891 16.4899L17.2937 16.4291L17.0632 17.9277L17.4585 17.9886Z" fill="#FE720D" mask="url(#path-1-outside-1_2736_409)"/>
</svg>
