<svg width="17" height="16" viewBox="0 0 17 16" fill="none" xmlns="http://www.w3.org/2000/svg">
<path d="M10.2826 2.9585C11.1801 2.9585 11.9077 2.23096 11.9077 1.3335H12.6577C12.6577 2.23096 13.3852 2.9585 14.2827 2.9585V3.7085C13.3852 3.7085 12.6577 4.43604 12.6577 5.3335H11.9077C11.9077 4.43604 11.1801 3.7085 10.2826 3.7085V2.9585ZM1.61597 7.3335C3.82511 7.3335 5.61597 5.54264 5.61597 3.3335H6.9493C6.9493 5.54264 8.74017 7.3335 10.9493 7.3335V8.66684C8.74017 8.66684 6.9493 10.4577 6.9493 12.6669H5.61597C5.61597 10.4577 3.82511 8.66684 1.61597 8.66684V7.3335ZM12.4493 9.3335C12.4493 10.5301 11.4793 11.5002 10.2826 11.5002V12.5002C11.4793 12.5002 12.4493 13.4703 12.4493 14.6669H13.4493C13.4493 13.4703 14.4194 12.5002 15.616 12.5002V11.5002C14.4194 11.5002 13.4493 10.5301 13.4493 9.3335H12.4493Z" fill="white"/>
</svg>
