<svg width="14" height="14" viewBox="0 0 14 14" fill="none" xmlns="http://www.w3.org/2000/svg">
<path d="M7.00005 14C6.53805 14 6.11339 13.8845 5.72373 13.6535C5.34966 13.4373 5.03626 13.1301 4.81257 12.7604C4.59352 12.371 4.48029 11.9309 4.48415 11.4841C4.48415 10.9008 4.61832 10.4149 4.88548 10.0258C5.15265 9.63727 5.56623 9.18169 6.12506 8.65903C6.53805 8.2822 6.74513 7.92403 6.74513 7.58336V7.25495H6.41672C6.03989 7.25495 5.52364 7.63178 4.8674 8.38544C4.2234 9.13911 3.43941 9.51536 2.516 9.51536C2.054 9.51536 1.62875 9.40627 1.23967 9.18752C0.867177 8.96095 0.554505 8.64828 0.32793 8.27578C0.109185 7.88643 -0.00383792 7.44661 9.94657e-05 7.00003C9.94657e-05 6.53804 0.109765 6.11921 0.328514 5.74237C0.548078 5.36462 0.862065 5.05043 1.23967 4.83063C1.62539 4.60051 2.06686 4.48066 2.516 4.48413C3.42716 4.48413 4.20474 4.85513 4.84932 5.59654C5.49331 6.33737 6.01597 6.70837 6.41672 6.70837H6.74513V6.4167C6.74513 6.07662 6.53805 5.71787 6.12506 5.34104L5.70564 4.95838C5.40231 4.67838 5.12231 4.34471 4.8674 3.95563C4.6119 3.55488 4.48473 3.0748 4.48473 2.51539C4.48473 2.05398 4.59382 1.63456 4.81257 1.25773C5.03235 0.880103 5.34654 0.56611 5.72431 0.346567C6.10986 0.116549 6.55111 -0.00329852 7.00005 6.90625e-05C7.46205 6.90625e-05 7.88088 0.115568 8.25771 0.346567C8.63546 0.566132 8.94965 0.88012 9.16945 1.25773C9.40045 1.63456 9.51536 2.05398 9.51536 2.51597C9.51536 3.42714 9.14495 4.20471 8.40354 4.84929C7.66271 5.49329 7.29171 6.01596 7.29171 6.4167V6.70837H7.58338C7.99638 6.70837 8.51904 6.33795 9.15137 5.59654C9.77086 4.85513 10.5484 4.48471 11.4847 4.48471C11.9461 4.48471 12.3655 4.59963 12.7423 4.83063C13.1216 5.04001 13.4366 5.34876 13.6535 5.72371C13.8845 6.10054 14 6.52637 14 7.00003C14 7.46203 13.8845 7.8867 13.6535 8.27636C13.4339 8.6539 13.1199 8.96788 12.7423 9.18752C12.3601 9.40763 11.9257 9.52086 11.4847 9.51536C10.913 9.51536 10.4213 9.37536 10.0077 9.09652C9.60695 8.81653 9.1572 8.40994 8.65904 7.87503C8.28221 7.46203 7.92404 7.25495 7.58338 7.25495H7.29171V7.58336C7.29171 8.03253 7.66213 8.55578 8.40354 9.15136C9.14495 9.74635 9.51536 10.5245 9.51536 11.4847C9.51536 11.9461 9.40045 12.3713 9.16945 12.7604C8.9558 13.1319 8.64743 13.4401 8.27579 13.6535C7.89954 13.8845 7.47371 14 7.00005 14Z" fill="#FF6B00"/>
</svg>
