<svg width="25" height="25" viewBox="0 0 25 25" fill="none" xmlns="http://www.w3.org/2000/svg">
<path d="M12.5 0H5.49441L5.48099 0.0243578L4.51414 1.78557H12.5C18.4155 1.78557 23.2139 6.58256 23.2139 12.5C23.2139 18.4174 18.4169 23.2144 12.5 23.2144C6.58306 23.2144 1.78557 18.4169 1.78557 12.5C1.78509 11.3807 1.96038 10.2682 2.30504 9.20325H4.35059C2.90052 12.7866 3.96133 16.8967 6.96445 19.3307C9.96758 21.7647 14.2083 21.9513 17.4136 19.7906C20.619 17.6299 22.0368 13.6289 20.9072 9.93202C19.7776 6.23514 16.3656 3.70993 12.5 3.70983H3.4583L2.47853 5.49491H12.5C15.6481 5.49555 18.409 7.59646 19.2488 10.6305C20.0887 13.6645 18.8011 16.886 16.1014 18.5054C13.4018 20.1248 9.9534 19.744 7.67207 17.5747C5.39074 15.4053 4.83705 11.9804 6.3186 9.20276H8.63606C7.08921 11.0186 7.01438 13.6663 8.45621 15.5666C9.89805 17.467 12.468 18.108 14.6334 17.1073C16.7988 16.1067 17.9761 13.734 17.4632 11.4044C16.9503 9.07477 14.8854 7.41592 12.5 7.41718H1.42269L0.442416 9.20325C0.148988 10.2776 0.000202986 11.3863 0 12.5C0 19.4032 5.59632 25 12.5 25C19.4037 25 25 19.4032 25 12.5C25 5.59682 19.4032 0 12.5 0ZM12.5 9.20325C14.3207 9.20325 15.7967 10.6793 15.7967 12.5C15.7967 14.3207 14.3207 15.7967 12.5 15.7967C10.6793 15.7967 9.20325 14.3207 9.20325 12.5C9.20325 10.6793 10.6793 9.20325 12.5 9.20325Z" fill="#FFD300"/>
</svg>
