<svg width="18" height="28" viewBox="0 0 18 28" fill="none" xmlns="http://www.w3.org/2000/svg">
<path d="M12.2012 8.61235C12.2012 4.59497 10.2086 1.13512 8.691 0.0121569C8.691 0.0121569 8.57426 -0.0511089 8.58633 0.11101C8.46154 7.87293 4.42395 9.97652 2.20589 12.8077C-2.91457 19.3478 1.84359 26.5166 6.69837 27.8412C9.40351 28.5846 6.07038 26.5284 5.63965 22.1908C5.11231 16.9555 12.2012 12.954 12.2012 8.61235Z" fill="#FF6400"/>
<path d="M14.528 11.2577C14.4958 11.2379 14.4515 11.2221 14.4233 11.2735C14.3388 12.2501 13.3244 14.3379 12.0362 16.2596C7.66853 22.7681 10.1563 25.9076 11.5572 27.596C12.3703 28.5727 11.5572 27.596 13.586 26.5957C16.0939 25.101 17.7202 22.515 17.9618 19.6443C18.3603 15.018 15.5344 12.1038 14.528 11.2577Z" fill="#FF6400"/>
</svg>
