<svg width="26" height="26" viewBox="0 0 26 26" fill="none" xmlns="http://www.w3.org/2000/svg">
<path fill-rule="evenodd" clip-rule="evenodd" d="M13.9286 0H12.0715V8.22293L8.99113 0.598758L7.26917 1.29445L10.4294 9.11614L4.46421 3.15101L3.15102 4.46421L8.86828 10.1815L1.45913 6.94438L0.715596 8.64619L8.55541 12.0715H0V13.9286H8.5553L0.715596 17.3538L1.45913 19.0556L8.86828 15.8185L3.15102 21.5358L4.46421 22.8489L10.4294 16.8839L7.26917 24.7056L8.99113 25.4012L12.0715 17.7771V26H13.9286V17.7771L17.009 25.4012L18.7308 24.7056L15.5707 16.8839L21.5358 22.8489L22.8489 21.5358L17.1316 15.8185L24.5409 19.0556L25.2843 17.3538L17.4447 13.9286H26V12.0715H17.4446L25.2843 8.64619L24.5409 6.94438L17.1316 10.1815L22.8489 4.4642L21.5358 3.15101L15.5707 9.11614L18.7308 1.29445L17.009 0.598758L13.9286 8.22293V0Z" fill="#E57361"/>
</svg>
