<svg width="77" height="77" viewBox="0 0 77 77" fill="none" xmlns="http://www.w3.org/2000/svg">
<path d="M67.6318 27.5289V49.4738C67.6318 53.0671 65.7068 56.4039 62.5948 58.2327L43.5373 69.2372C40.4252 71.0339 36.5752 71.0339 33.431 69.2372L14.3735 58.2327C11.2614 56.436 9.33643 53.0992 9.33643 49.4738V27.5289C9.33643 23.9356 11.2614 20.5988 14.3735 18.77L33.431 7.76547C36.5431 5.9688 40.3931 5.9688 43.5373 7.76547L62.5948 18.77C65.7068 20.5988 67.6318 23.9035 67.6318 27.5289Z" stroke="white" stroke-width="1.5" stroke-linecap="round" stroke-linejoin="round"/>
<path d="M38.4998 35.2906C42.6284 35.2906 45.9752 31.9437 45.9752 27.8151C45.9752 23.6866 42.6284 20.3398 38.4998 20.3398C34.3713 20.3398 31.0244 23.6866 31.0244 27.8151C31.0244 31.9437 34.3713 35.2906 38.4998 35.2906Z" stroke="white" stroke-width="1.5" stroke-linecap="round" stroke-linejoin="round"/>
<path d="M51.3332 53.4512C51.3332 47.6762 45.5903 42.9922 38.4998 42.9922C31.4094 42.9922 25.6665 47.6762 25.6665 53.4512" stroke="white" stroke-width="1.5" stroke-linecap="round" stroke-linejoin="round"/>
</svg>
