<svg width="26" height="26" viewBox="0 0 26 26" fill="none" xmlns="http://www.w3.org/2000/svg">
<path d="M17.1951 23.8277C17.4334 23.8277 17.6284 23.6327 17.6284 23.3944V21.1281C17.6284 19.4381 16.2504 18.0601 14.5604 18.0601C14.4391 18.0601 14.3221 18.1121 14.2398 18.2031L13.0134 19.5507L11.7871 18.2031C11.7048 18.1121 11.5878 18.0601 11.4664 18.0601C9.77644 18.0601 8.39844 19.4381 8.39844 21.1281V23.3944C8.39844 23.6327 8.59344 23.8277 8.83177 23.8277H10.2652V22.4021C10.2652 22.1629 10.4594 21.9687 10.6986 21.9687C10.9382 21.9687 11.1319 22.1629 11.1319 22.4021V23.8277H14.8945V22.4021C14.8945 22.1629 15.0887 21.9687 15.3279 21.9687C15.5675 21.9687 15.7612 22.1629 15.7612 22.4021V23.8277H17.1951Z" fill="#260F8F"/>
<path d="M21.2333 18.0427C21.112 18.0427 20.995 18.0947 20.9126 18.1857L19.9983 19.1954L19.0796 18.1857C18.9973 18.0947 18.8803 18.0427 18.759 18.0427C18.5726 18.0427 17.8273 18.0731 17.524 18.1727C17.4373 18.2018 17.3684 18.2572 17.3164 18.3248C18.0427 19.0394 18.4946 20.0313 18.4946 21.1281V22.8354H21.4196V21.6086C21.4196 21.3694 21.6133 21.1753 21.853 21.1753C22.0922 21.1753 22.2863 21.3694 22.2863 21.6086V22.8354H23.348C23.5863 22.8354 23.7813 22.6404 23.7813 22.4021V20.5907C23.7813 19.1867 22.6373 18.0427 21.2333 18.0427Z" fill="#260F8F"/>
<path d="M2.65208 22.8354H3.71765V21.6086C3.71765 21.3694 3.91178 21.1753 4.15098 21.1753C4.39062 21.1753 4.58432 21.3694 4.58432 21.6086V22.8354H7.53142V21.1281C7.53142 20.0352 7.97992 19.045 8.70185 18.3313C8.65332 18.2681 8.59048 18.2148 8.51075 18.1857C8.18142 18.0687 7.38842 18.0427 7.24542 18.0427C7.12408 18.0427 7.00708 18.0947 6.92475 18.1857L6.01042 19.1954L5.08742 18.1857C5.00508 18.0947 4.88808 18.0427 4.76675 18.0427C3.36275 18.0427 2.21875 19.1867 2.21875 20.5907V22.4021C2.21875 22.6404 2.41375 22.8354 2.65208 22.8354Z" fill="#260F8F"/>
<path d="M19.9896 17.6657C21.3322 17.6657 22.4206 16.5773 22.4206 15.2347C22.4206 13.8921 21.3322 12.8037 19.9896 12.8037C18.647 12.8037 17.5586 13.8921 17.5586 15.2347C17.5586 16.5773 18.647 17.6657 19.9896 17.6657Z" fill="#260F8F"/>
<path d="M6.01498 17.6657C7.35759 17.6657 8.44598 16.5773 8.44598 15.2347C8.44598 13.8921 7.35759 12.8037 6.01498 12.8037C4.67238 12.8037 3.58398 13.8921 3.58398 15.2347C3.58398 16.5773 4.67238 17.6657 6.01498 17.6657Z" fill="#260F8F"/>
<path d="M10.0742 14.5543C10.0742 16.1707 11.3872 17.4837 12.9992 17.4837C14.6156 17.4837 15.9286 16.1707 15.9286 14.5543C15.9286 12.938 14.6156 11.625 12.9992 11.625C11.3872 11.625 10.0742 12.938 10.0742 14.5543Z" fill="#260F8F"/>
<path d="M9.69141 7.35275C10.6187 7.66648 11.5816 7.84371 12.5497 7.88618V3.09741C11.3589 3.43195 10.315 5.06648 9.69141 7.35275Z" fill="#260F8F"/>
<path d="M13.4512 2.2061C15.0389 2.50206 16.3792 4.35023 17.1319 7.03906C18.0571 6.61526 19.2284 5.62423 19.952 4.9946C18.2555 3.34143 15.9749 2.28583 13.4512 2.17273V2.2061Z" fill="#260F8F"/>
<path d="M12.5492 2.20561V2.17224C9.99553 2.28621 7.68933 3.36434 5.98633 5.05131C6.83436 5.78061 7.97966 6.63818 8.86713 7.04291C9.6194 4.35191 10.9606 2.50201 12.5492 2.20561Z" fill="#260F8F"/>
<path d="M13.4512 3.09741V7.88618C14.4249 7.84415 15.3877 7.66561 16.3086 7.35058C15.6854 5.06561 14.6415 3.43195 13.4512 3.09741Z" fill="#260F8F"/>
<path d="M22.9617 12.5393C22.966 12.405 22.9704 12.2706 22.9704 12.132C22.9704 9.64681 22.0552 7.37398 20.5467 5.62634C19.7234 6.34264 18.4481 7.43074 17.376 7.88314C17.3656 7.88748 17.3561 7.89094 17.3457 7.89528C17.6274 9.17491 17.7847 10.6084 17.7847 12.1324C17.7847 12.2342 17.7639 12.4258 17.7301 12.7295C17.7253 12.7729 17.721 12.8149 17.7162 12.8561C18.3081 12.2893 19.1063 11.937 19.989 11.937C20.9229 11.937 21.7657 12.3291 22.3663 12.9553H22.5284C22.7624 12.9553 22.953 12.7733 22.9617 12.5393Z" fill="#260F8F"/>
<path d="M16.4379 12.9541H16.8366C16.8453 12.8614 16.8574 12.7496 16.8704 12.6343C16.8899 12.4592 16.9189 12.1949 16.9194 12.1325C16.9194 10.7311 16.7707 9.39643 16.5151 8.19653C15.5327 8.52587 14.5061 8.7135 13.4531 8.75553V10.7918C14.7774 10.9508 15.8941 11.7902 16.4379 12.9541Z" fill="#260F8F"/>
<path d="M8.62796 7.88758C7.41376 7.36844 5.96643 6.17808 5.39876 5.68884C3.9224 7.42824 3.0293 9.67681 3.0293 12.1321C3.0293 12.2664 3.03363 12.4007 3.03796 12.5351C3.04663 12.7691 3.2373 12.9511 3.4713 12.9511H3.64116C4.24176 12.3271 5.08286 11.9366 6.01496 11.9366C6.863 11.9366 7.6339 12.2625 8.2189 12.7907C8.2176 12.5221 8.21716 12.2231 8.21716 12.1325C8.21716 10.6098 8.37403 9.17804 8.65526 7.89841C8.64573 7.89451 8.63706 7.89148 8.62796 7.88758Z" fill="#260F8F"/>
<path d="M12.5507 8.75551C11.5033 8.71391 10.4776 8.52714 9.48828 8.19824C9.23262 9.39771 9.08398 10.7319 9.08398 12.1325C9.08398 12.2421 9.08485 12.6598 9.08658 12.9523H9.56802C10.1123 11.7888 11.2273 10.9499 12.5507 10.7913V8.75551Z" fill="#260F8F"/>
</svg>
