<svg width="27" height="27" viewBox="0 0 27 27" fill="none" xmlns="http://www.w3.org/2000/svg">
<path d="M14.6753 17.4513H13.0347L12.5996 19.0339H14.2402L14.6753 17.4513Z" fill="#EDC70B"/>
<path d="M13.5 27C19.1723 27 23.7873 22.3322 23.7873 16.66C23.7873 11.6801 21.4164 8.35023 19.1939 6.89202C19.1939 6.89123 19.1924 6.89049 19.1908 6.8897V6.88891C18.8245 6.65167 18.3346 6.75058 18.095 7.11765C17.8555 7.4832 17.9575 7.97313 18.3222 8.21269C18.772 8.50712 19.0394 9.00249 19.0394 9.53801C19.0394 10.4105 18.33 11.1207 17.4567 11.1207C16.5835 11.1207 15.8741 10.4105 15.8741 9.53801C15.8741 9.32319 15.9158 9.04654 15.9607 8.7212C16.2311 6.75449 16.7334 3.04026 12.3564 0.122264C12.1124 -0.0403799 11.7195 -0.0569451 11.4308 0.171801C11.2542 0.313344 11.1262 0.512811 11.1262 0.780649C11.1262 4.4282 9.30242 6.2846 7.372 8.19492C5.32721 10.2173 3.21289 12.3092 3.21289 16.4907V16.66C3.21279 22.3322 7.82786 27 13.5 27ZM9.91897 19.0339H10.9576L11.3927 17.4513H10.7907C10.3533 17.4513 9.99937 17.0974 9.99937 16.66C9.99937 16.2226 10.3533 15.8686 10.7907 15.8686H11.8278L12.1029 14.8679C12.2188 14.4459 12.6515 14.1963 13.0766 14.3146C13.497 14.4305 13.7458 14.8655 13.6299 15.2867L13.4699 15.8686H15.1106L15.3857 14.8679C15.5016 14.4459 15.9343 14.1963 16.3594 14.3146C16.7798 14.4305 17.0286 14.8655 16.9127 15.2867L16.7527 15.8686H17.3562C17.7936 15.8686 18.1476 16.2226 18.1476 16.66C18.1476 17.0974 17.7936 17.4513 17.3562 17.4513H16.3176L15.8825 19.0339H16.486C16.9234 19.0339 17.2774 19.3879 17.2774 19.8253C17.2774 20.2627 16.9234 20.6166 16.486 20.6166H15.4474L15.1723 21.6174C15.0575 22.0317 14.6295 22.2878 14.1986 22.1707C13.7782 22.0548 13.5293 21.6197 13.6453 21.1985L13.8052 20.6166H12.1646L11.8895 21.6174C11.7747 22.0317 11.3467 22.2878 10.9158 22.1707C10.4954 22.0548 10.2465 21.6197 10.3625 21.1985L10.5224 20.6166H9.91892C9.48153 20.6166 9.12759 20.2627 9.12759 19.8253C9.12759 19.3879 9.48158 19.0339 9.91897 19.0339Z" fill="#EDC70B"/>
<path d="M7.17023 4.79007C7.60763 4.79007 7.96156 4.43613 7.96156 3.99874V2.41608C7.96156 1.97869 7.60763 1.62476 7.17023 1.62476C6.73284 1.62476 6.37891 1.97869 6.37891 2.41608V3.99874C6.37891 4.43613 6.73284 4.79007 7.17023 4.79007Z" fill="#EDC70B"/>
<path d="M19.0397 3.99874V2.41608C19.0397 1.97869 18.6858 1.62476 18.2484 1.62476C17.811 1.62476 17.457 1.97869 17.457 2.41608V3.99874C17.457 4.43613 17.811 4.79007 18.2484 4.79007C18.6858 4.79007 19.0397 4.43613 19.0397 3.99874Z" fill="#EDC70B"/>
</svg>
