<svg width="30" height="30" viewBox="0 0 30 30" fill="none" xmlns="http://www.w3.org/2000/svg">
<g clip-path="url(#clip0_3114_11607)">
<path d="M9.83012 19.5144C10.1953 19.1931 10.2311 18.6367 9.91025 18.2712L9.86177 18.2156C9.70773 18.0406 9.49021 17.9343 9.25752 17.9204C9.23814 17.9204 9.21869 17.9204 9.1989 17.9204C8.98523 17.9201 8.77885 17.9979 8.61865 18.1393L7.43794 19.1758L6.36267 20.1196C5.99857 20.4413 5.96295 20.9967 6.28295 21.3623L6.33226 21.4187C6.6538 21.7837 7.2101 21.8196 7.5758 21.4989L8.40231 20.7736L9.83012 19.5144Z" fill="#00B8FF"/>
<path d="M6.99575 21.9239C6.97127 21.9239 6.94726 21.9239 6.92278 21.9217C6.63379 21.9039 6.36399 21.7711 6.17344 21.5532L6.12365 21.4963C5.72785 21.0433 5.77212 20.3556 6.22275 19.9571L8.47962 17.9752C8.69744 17.7846 8.98181 17.6879 9.27069 17.7062C9.55969 17.724 9.82949 17.8567 10.02 18.0747L10.0892 18.1553C10.4665 18.6094 10.4138 19.2814 9.97031 19.6712L7.71427 21.6531C7.51596 21.8283 7.26033 21.9246 6.99575 21.9239ZM9.19862 18.1287C9.03599 18.1295 8.87922 18.1895 8.75754 18.2974L6.5015 20.2793C6.22477 20.5242 6.19786 20.9466 6.44122 21.2247L6.49101 21.2816C6.73567 21.5588 7.1585 21.5857 7.43642 21.3419L9.69204 19.36C9.96954 19.1157 9.99669 18.6928 9.75279 18.415L9.70348 18.3581C9.58672 18.2245 9.42136 18.1433 9.24426 18.1325L9.19862 18.1287Z" fill="#00B8FF"/>
<path d="M12.9962 21.7172C12.7825 21.7169 12.576 21.7945 12.4155 21.9356L11.2512 22.9577C10.8854 23.2788 10.849 23.8356 11.17 24.2015C11.4911 24.5674 12.0479 24.6037 12.4138 24.2827L13.5781 23.2605C13.944 22.9399 13.9806 22.3834 13.66 22.0175C13.4924 21.8263 13.2504 21.7168 12.9962 21.7172Z" fill="#00B8FF"/>
<path d="M11.8339 24.7119C11.2309 24.713 10.7413 24.225 10.7402 23.6221C10.7397 23.307 10.8754 23.0069 11.1124 22.7992L12.2771 21.777C12.7363 21.3969 13.4124 21.4408 13.8183 21.8774C14.2163 22.3308 14.1714 23.021 13.718 23.419L12.5537 24.4412C12.3547 24.6162 12.0988 24.7125 11.8339 24.7119ZM12.9969 21.9289C12.8341 21.9276 12.6765 21.9858 12.5537 22.0925L11.3889 23.1146C11.1105 23.3592 11.0831 23.7831 11.3276 24.0615C11.5721 24.34 11.9961 24.3674 12.2745 24.1229L13.4392 23.1019C13.7175 22.858 13.7454 22.4347 13.5015 22.1564C13.374 22.011 13.1899 21.9277 12.9965 21.928L12.9969 21.9289Z" fill="#00B8FF"/>
<path d="M2.60758 5.55908L0.240234 15.887L2.13277 16.9505L7.03023 8.98404L2.60758 5.55908Z" fill="#00B8FF"/>
<path d="M2.20667 17.2334L0 15.9936L2.47569 5.19006L7.30908 8.93253L2.20667 17.2334ZM0.481566 15.7803L2.05992 16.6658L6.75242 9.03329L2.73968 5.92797L0.481566 15.7803Z" fill="#00B8FF"/>
<path d="M7.09079 18.3151C7.45655 17.9938 7.49276 17.437 7.17175 17.0711L7.15658 17.0538C7.0029 16.8778 6.78514 16.7706 6.55191 16.7561C6.53253 16.7561 6.51309 16.7561 6.49329 16.7561C6.27963 16.7557 6.07325 16.8336 5.91304 16.975L4.49911 18.2131C4.13335 18.5343 4.09714 19.0912 4.41814 19.457C4.73281 19.8314 5.29142 19.8798 5.66583 19.5651C5.66968 19.5618 5.67354 19.5586 5.67733 19.5552L5.78443 19.4612L6.86059 18.5166L7.09079 18.3151Z" fill="#00B8FF"/>
<path d="M5.10553 19.9841C5.07856 19.9841 5.05112 19.9841 5.02332 19.9811C4.72875 19.9584 4.45504 19.8204 4.26176 19.597C3.86377 19.1438 3.90851 18.4537 4.36169 18.0557L5.77391 16.8164C6.22715 16.419 6.91663 16.4637 7.31474 16.9163C7.51519 17.1365 7.61773 17.4284 7.59894 17.7256C7.5811 18.0147 7.44822 18.2848 7.22999 18.4753L5.81818 19.7146C5.62159 19.8886 5.36803 19.9845 5.10553 19.9841ZM6.49327 16.9665C6.33063 16.9672 6.17374 17.0272 6.05218 17.1352L4.63996 18.3746C4.36163 18.6188 4.33407 19.0425 4.57832 19.3207L4.57838 19.3208C4.69882 19.461 4.86975 19.548 5.05402 19.5629C5.23118 19.5767 5.40638 19.5179 5.53938 19.4001L6.95118 18.1608C7.22928 17.9163 7.25684 17.4929 7.01276 17.2145C6.89434 17.0716 6.72264 16.9834 6.53754 16.9704L6.49327 16.9665Z" fill="#00B8FF"/>
<path d="M12.0177 20.7824C12.0337 20.549 11.9554 20.3189 11.8006 20.1435L11.788 20.1291C11.6341 19.9543 11.4169 19.8481 11.1845 19.834C11.1651 19.834 11.1453 19.834 11.1259 19.834C10.9122 19.8336 10.7059 19.9115 10.5457 20.0529L10.4073 20.1743L8.97863 21.4284L8.59913 21.7598C8.23266 22.0914 8.20445 22.6573 8.536 23.0237C8.6907 23.1947 8.90549 23.2994 9.13552 23.3158C9.36898 23.3321 9.59918 23.2538 9.77438 23.0987L11.7196 21.3913C11.8967 21.2365 12.0042 21.0171 12.0177 20.7824Z" fill="#00B8FF"/>
<path d="M9.19334 23.5263C9.16928 23.5263 9.14569 23.5263 9.12169 23.5241C8.51429 23.4866 8.0524 22.9637 8.09004 22.3563C8.10805 22.0649 8.241 21.7926 8.45964 21.5991L10.4032 19.8896C10.6214 19.6995 10.9055 19.6029 11.1943 19.6206C11.4829 19.6382 11.7524 19.7707 11.9428 19.9883C12.1428 20.2081 12.2451 20.4997 12.2262 20.7963C12.2079 21.0847 12.0754 21.3539 11.858 21.5443L9.91282 23.2517C9.71456 23.4282 9.45863 23.5259 9.19334 23.5263ZM10.5427 20.3295L8.7375 21.9141C8.45905 22.1583 8.43078 22.5818 8.67426 22.8608C8.79274 23.0017 8.96332 23.0886 9.14699 23.1016C9.32516 23.1142 9.50089 23.0545 9.63449 22.9359L11.5797 21.2285C11.858 20.9846 11.8858 20.5613 11.6419 20.2829C11.6417 20.2827 11.6415 20.2825 11.6413 20.2822C11.5232 20.1405 11.3522 20.0534 11.1681 20.041H11.1235C10.9606 20.041 10.8036 20.101 10.6824 20.2097L10.5427 20.3295Z" fill="#00B8FF"/>
<path d="M23.6731 17.9659L16.8106 12.374C14.1826 13.7694 12.3217 13.0512 11.432 12.4832C10.9682 12.1806 10.8376 11.5592 11.1402 11.0954C11.2342 10.9513 11.3637 10.8338 11.5163 10.7543L13.8035 9.53946C13.7445 9.53063 13.6867 9.52304 13.6348 9.51794C11.5708 9.84405 9.48626 10.0236 7.39683 10.0552L3.39844 16.5584L4.28985 17.2377L5.33774 16.3176C6.06528 15.6789 7.17285 15.7509 7.81154 16.4785C7.8116 16.4785 7.81166 16.4786 7.81178 16.4787L7.82695 16.496C8.03665 16.7365 8.17611 17.03 8.2301 17.3444C8.54785 17.1276 8.92919 17.0237 9.31302 17.0493C9.77728 17.0782 10.2107 17.2917 10.5165 17.6422L10.5658 17.6986C10.8732 18.0472 11.0286 18.5042 10.9972 18.9679V18.9705C11.0774 18.9623 11.1581 18.9596 11.2388 18.9624C11.7031 18.9914 12.1364 19.2049 12.4423 19.5553L12.1273 19.8572L12.4549 19.5697C12.7628 19.9184 12.9185 20.3757 12.8872 20.8398C12.8872 20.8457 12.8846 20.8511 12.8842 20.8571C13.8443 20.7887 14.678 21.5117 14.7463 22.4718C14.752 22.5519 14.7522 22.6324 14.7468 22.7125C14.7252 23.0141 14.6252 23.3048 14.4567 23.5558L16.3369 24.6408C16.7492 24.8746 17.2726 24.7359 17.5151 24.3288C17.7451 23.9402 17.6329 23.4397 17.2591 23.1864L14.2652 21.1117C14.2626 21.1117 14.2614 21.1071 14.2593 21.1054L14.0577 20.9658C13.8621 20.8253 13.8175 20.5529 13.958 20.3573C14.095 20.1665 14.3586 20.1186 14.554 20.249L18.7768 23.1742C19.1663 23.4442 19.7009 23.3473 19.9709 22.9578C19.9711 22.9575 19.9712 22.9573 19.9714 22.957C20.2364 22.5697 20.1427 22.0416 19.7606 21.7692L15.5585 18.7887C15.556 18.7887 15.5551 18.784 15.5526 18.7823C15.3563 18.6426 15.3104 18.3702 15.4501 18.1738C15.5898 17.9774 15.8623 17.9316 16.0586 18.0713L20.7697 21.4136C21.1817 21.7046 21.7516 21.6064 22.0426 21.1943C22.3243 20.7955 22.2423 20.2456 21.8567 19.9461L16.7876 16.2935C16.5873 16.1599 16.5332 15.8892 16.6669 15.6889C16.8006 15.4885 17.0712 15.4345 17.2716 15.5681C17.2791 15.5732 17.2864 15.5784 17.2937 15.5839L17.6403 15.831H17.6449L22.3429 19.2159C22.3518 19.2222 22.3581 19.2302 22.3665 19.2366L22.4441 19.2922C22.4589 19.3024 22.473 19.3135 22.4862 19.3255L22.5706 19.3833C22.9632 19.6647 23.5075 19.5895 23.8091 19.2121C23.9894 18.9842 24.0478 18.6829 23.9655 18.4041C23.9155 18.2314 23.8133 18.0784 23.6731 17.9659Z" fill="#00B8FF"/>
<path d="M16.7627 24.9667C16.5763 24.9667 16.3932 24.9177 16.2318 24.8246L14.1558 23.6274L14.2823 23.4418C14.7509 22.7349 14.5577 21.7819 13.8507 21.3132C13.6265 21.1646 13.3671 21.0775 13.0986 21.0606C13.0463 21.058 12.9938 21.0594 12.9417 21.0648L12.6588 21.0825L12.6752 20.8426C12.7017 20.5018 12.6142 20.162 12.4264 19.8765L12.2682 20.0156L11.9832 19.7053L12.1434 19.5518C11.8884 19.3271 11.5659 19.1935 11.2267 19.1723C11.1652 19.1703 11.1037 19.1722 11.0424 19.1782L10.816 19.1951L10.7877 18.9455V18.9366C10.8098 18.5346 10.6735 18.14 10.4082 17.8372L10.3584 17.7803C9.85076 17.1976 8.98779 17.0861 8.34863 17.5206L8.08002 17.701L8.02353 17.3822C7.88028 16.5394 7.08085 15.9723 6.23797 16.1156C5.95609 16.1635 5.69293 16.2886 5.47778 16.4769L4.30003 17.5109L3.11719 16.6105L7.27543 9.84669L7.38887 9.84331C9.46693 9.8116 11.5402 9.63332 13.5932 9.30988L13.6227 9.30396L13.6526 9.3065C13.7083 9.31154 13.7698 9.32002 13.8335 9.32926L14.466 9.42415L11.6137 10.9388C11.2252 11.1396 11.073 11.6174 11.2737 12.0059C11.3366 12.1277 11.4301 12.2311 11.545 12.306C12.382 12.8402 14.1683 13.5365 16.7102 12.1875L16.8338 12.1217L23.8043 17.8014C23.9773 17.9419 24.1029 18.1322 24.164 18.3466C24.2658 18.6904 24.1941 19.0622 23.9717 19.3435C23.5992 19.8089 22.9277 19.9016 22.4431 19.5543L22.2065 19.3776L17.1699 15.7511C17.0693 15.6789 16.9291 15.7019 16.8568 15.8025C16.8566 15.8028 16.8564 15.8031 16.8562 15.8035C16.7838 15.9043 16.8069 16.0448 16.9078 16.1171C16.908 16.1173 16.9082 16.1175 16.9085 16.1177L21.9784 19.7732C22.4699 20.1526 22.5608 20.8586 22.1815 21.3501C21.8143 21.8259 21.1378 21.9286 20.6459 21.5836L15.9335 18.2429C15.8846 18.2083 15.824 18.1945 15.7649 18.2046C15.6422 18.2253 15.5597 18.3416 15.5804 18.4642C15.5904 18.5231 15.6234 18.5757 15.6721 18.6103L19.8814 21.598C20.357 21.9378 20.473 22.5957 20.1424 23.0776C19.8067 23.5633 19.1409 23.6849 18.6552 23.3492C18.655 23.349 18.6549 23.3489 18.6547 23.3488L14.4328 20.4231C14.3329 20.349 14.1919 20.3698 14.1178 20.4697C14.0436 20.5696 14.0645 20.7106 14.1643 20.7847C14.1684 20.7878 14.1726 20.7906 14.1769 20.7934L17.3791 23.014C17.8661 23.3474 17.9906 24.0124 17.6572 24.4993C17.5136 24.7091 17.2998 24.8608 17.0545 24.9271C16.9594 24.9533 16.8613 24.9666 16.7627 24.9667ZM14.7462 23.4802L16.4426 24.4593C16.7589 24.6304 17.154 24.5129 17.3251 24.1966C17.4795 23.9112 17.4002 23.5557 17.1392 23.363L14.7461 21.7023C14.9082 22.018 14.9811 22.3718 14.957 22.7258C14.9399 22.9892 14.8681 23.2461 14.7462 23.4802ZM14.3068 19.9621C14.4379 19.9619 14.566 20.0018 14.6737 20.0764L18.8956 23.0017C19.1896 23.2049 19.5928 23.1315 19.7963 22.8376C19.9964 22.5456 19.9258 22.1472 19.6378 21.9415L15.4057 18.9366C15.1256 18.7148 15.0784 18.3079 15.3002 18.0279C15.5127 17.7596 15.8973 17.7032 16.1778 17.8992L20.8901 21.2415C21.2083 21.4636 21.6463 21.3857 21.8683 21.0675C22.0815 20.762 22.0192 20.3433 21.7264 20.1131L16.6628 16.4643C16.3723 16.2565 16.3052 15.8526 16.5129 15.5621C16.7206 15.2715 17.1246 15.2044 17.4151 15.4122L17.7668 15.6614L22.5656 19.123C22.5872 19.1386 22.6077 19.1555 22.6272 19.1737L22.6866 19.2125C22.987 19.4301 23.4053 19.3745 23.6384 19.086C23.7768 18.9116 23.8218 18.6807 23.759 18.467C23.7223 18.3346 23.6456 18.2168 23.5393 18.1296L16.7834 12.625C14.1188 13.987 12.2191 13.2373 11.3171 12.6608C10.7548 12.296 10.5947 11.5445 10.9595 10.9822C11.0737 10.8061 11.2317 10.6627 11.4179 10.5659L12.7108 9.87935C11.396 10.0577 9.60088 10.1906 7.51648 10.2588L3.67906 16.5039L4.28249 16.9631L5.20135 16.1568C6.01613 15.4414 7.2567 15.5219 7.97215 16.3367C7.97232 16.3369 7.9725 16.3371 7.97268 16.3373C8.14895 16.5367 8.28349 16.7694 8.36824 17.0217C8.66679 16.8766 8.9981 16.8122 9.32924 16.8349C9.84981 16.8672 10.3358 17.1065 10.6786 17.4995L10.7284 17.5564C11.02 17.8869 11.1908 18.3065 11.213 18.7468H11.2551C11.7092 18.7765 12.1387 18.964 12.4691 19.2768L12.4759 19.2709L12.5901 19.4017L12.6024 19.4152L12.7352 19.5666L12.7292 19.5725C12.9555 19.8829 13.0848 20.2534 13.1007 20.6373H13.1265C13.3138 20.6495 13.4984 20.6884 13.6747 20.7528C13.5936 20.4056 13.8094 20.0584 14.1566 19.9773C14.206 19.9658 14.2565 19.9601 14.3072 19.9604L14.3068 19.9621Z" fill="#00B8FF"/>
<path d="M27.3906 5.4021L22.9688 8.82706L27.0591 15.48C27.086 15.4939 27.1113 15.5108 27.1346 15.5302C27.2048 15.6025 27.2471 15.6971 27.2544 15.7976L27.8672 16.794L29.758 15.7301L27.3906 5.4021Z" fill="#00B8FF"/>
<path d="M27.7927 17.077L27.0484 15.8659L27.0438 15.817C27.0411 15.7654 27.0202 15.7164 26.9848 15.6787L26.9038 15.6306L26.8789 15.5885L22.6895 8.77608L27.5237 5.0332L29.9998 15.8368L27.7927 17.077ZM27.4554 15.725L27.9386 16.5107L29.517 15.6251L27.2597 5.77076L23.2474 8.87773L27.2112 15.3249C27.2373 15.3406 27.2615 15.3592 27.2833 15.3806C27.3758 15.4744 27.4364 15.5949 27.4566 15.7251L27.4554 15.725Z" fill="#00B8FF"/>
<path d="M21.8337 10.0083C20.9759 10.3614 20.0202 10.3962 19.1391 10.1062L16.8177 9.3526C16.4969 9.25089 16.1487 9.28124 15.8504 9.43694L15.0635 9.85485C15.0551 9.85906 15.0479 9.86415 15.039 9.86795L11.9211 11.5244C11.8767 11.5456 11.8478 11.5898 11.8461 11.639C11.8426 11.6836 11.8643 11.7263 11.9021 11.7499C12.8193 12.3352 14.3901 12.762 16.6389 11.4716C16.7956 11.3819 16.9913 11.3978 17.1314 11.5117L24.2191 17.2887C24.3178 17.3699 24.407 17.462 24.4848 17.5633L26.2373 15.8095L22.5025 9.73471L21.8337 10.0083Z" fill="#00B8FF"/>
<path d="M24.4668 17.8786L24.32 17.6926C24.2522 17.6038 24.1744 17.5232 24.0881 17.4523L16.9987 11.6769C16.9265 11.6191 16.8264 11.6109 16.7457 11.6562C14.4049 13.0005 12.7591 12.5468 11.7905 11.9294C11.6885 11.8652 11.6298 11.7503 11.6374 11.63C11.6425 11.5062 11.7143 11.3948 11.825 11.3391L15.753 9.25302C16.1016 9.07035 16.5088 9.03455 16.884 9.1535L19.2045 9.90582C20.038 10.1804 20.9421 10.1478 21.7536 9.81389L22.5898 9.47149L26.5055 15.8389L24.4668 17.8786ZM16.8549 11.2041C17.0039 11.2038 17.1484 11.2547 17.2643 11.3483L24.3524 17.1254C24.4023 17.1656 24.4498 17.2089 24.4946 17.2548L25.9704 15.779L22.4169 9.99721L21.9142 10.203C21.0099 10.5753 20.0022 10.6117 19.0733 10.3059L16.754 9.55275C16.4869 9.46888 16.1975 9.49466 15.9494 9.62446L12.1403 11.6486C13.0229 12.1613 14.4748 12.4738 16.5355 11.2902C16.6328 11.2342 16.7429 11.2046 16.8549 11.2041Z" fill="#00B8FF"/>
</g>
<defs>
<clipPath id="clip0_3114_11607">
<rect width="30" height="30" fill="white"/>
</clipPath>
</defs>
</svg>
