<svg width="17" height="18" viewBox="0 0 17 18" fill="none" xmlns="http://www.w3.org/2000/svg">
<path fill-rule="evenodd" clip-rule="evenodd" d="M9.50409 17.6342C9.4157 17.5181 9.34558 17.3803 9.29775 17.2286C9.24991 17.0769 9.22529 16.9143 9.22529 16.7502C9.22529 16.586 9.24991 16.4234 9.29775 16.2717C9.34558 16.1201 9.4157 15.9822 9.50409 15.8662L13.5891 10.5002H0.951591C0.699214 10.5002 0.457173 10.3685 0.278715 10.134C0.100257 9.89963 0 9.58169 0 9.25016C0 8.91864 0.100257 8.6007 0.278715 8.36628C0.457173 8.13186 0.699214 8.00016 0.951591 8.00016H13.5891L9.50409 2.63416C9.32561 2.39971 9.22534 2.08173 9.22534 1.75016C9.22534 1.4186 9.32561 1.10062 9.50409 0.866165C9.68257 0.631713 9.92464 0.5 10.1771 0.5C10.4295 0.5 10.6715 0.631713 10.85 0.866165L16.5596 8.36617C16.648 8.48224 16.7181 8.62006 16.7659 8.77173C16.8138 8.92341 16.8384 9.08599 16.8384 9.25016C16.8384 9.41434 16.8138 9.57692 16.7659 9.7286C16.7181 9.88027 16.648 10.0181 16.5596 10.1342L10.85 17.6342C10.7617 17.7503 10.6567 17.8424 10.5413 17.9052C10.4258 17.9681 10.302 18.0004 10.1771 18.0004C10.0521 18.0004 9.92831 17.9681 9.81284 17.9052C9.69737 17.8424 9.59246 17.7503 9.50409 17.6342Z" fill="white"/>
</svg>
