<svg width="45" height="44" viewBox="0 0 45 44" fill="none" xmlns="http://www.w3.org/2000/svg">
<path d="M9.38852 32.9503L16.3279 22.3372C11.2662 21.5208 7.95983 24.174 6.93934 25.6027L0 35.3994H5.71475C7.51081 35.3994 8.91229 33.7667 9.38852 32.9503Z" fill="#00B8FF"/>
<path d="M9.38852 10.9076L16.3279 21.5207C11.2662 22.3371 7.95983 19.6839 6.93934 18.2552L0 8.45846H5.71475C7.51081 8.45846 8.91229 10.0912 9.38852 10.9076Z" fill="#00B8FF"/>
<path d="M11.0212 9.68305L21.6343 16.6224C22.4507 11.5608 19.7974 8.25436 18.3687 7.23387L8.57202 0.294532L8.57202 6.00928C8.57202 7.80535 10.2048 9.20682 11.0212 9.68305Z" fill="#FFE14D"/>
<path d="M33.0638 9.68305L22.4507 16.6224C21.6343 11.5608 24.2875 8.25436 25.7162 7.23387L35.5129 0.294533L35.5129 6.00928C35.5129 7.80535 33.8802 9.20682 33.0638 9.68305Z" fill="#FFE14D"/>
<path d="M11.0212 34.1748L21.6343 27.2355C22.4507 32.2971 19.7974 35.6035 18.3687 36.624L8.57202 43.5634L8.57202 37.8486C8.57202 36.0525 10.2048 34.6511 11.0212 34.1748Z" fill="#FF6500"/>
<path d="M33.0638 34.1748L22.4507 27.2355C21.6343 32.2971 24.2875 35.6035 25.7162 36.624L35.5129 43.5634L35.5129 37.8486C35.5129 36.0525 33.8802 34.6511 33.0638 34.1748Z" fill="#FF6500"/>
<path d="M34.6964 10.9076L27.7571 21.5207C32.8187 22.3371 36.1251 19.6838 37.1456 18.2552L44.085 8.45845H38.3702C36.5741 8.45845 35.1727 10.0912 34.6964 10.9076Z" fill="#260F8F"/>
<path d="M34.6964 32.9502L27.7571 22.3371C32.8187 21.5207 36.1251 24.174 37.1456 25.6027L44.085 35.3994H38.3702C36.5741 35.3994 35.1727 33.7666 34.6964 32.9502Z" fill="#260F8F"/>
</svg>
