<svg width="620" height="299" viewBox="0 0 620 299" fill="none" xmlns="http://www.w3.org/2000/svg">
<g clip-path="url(#clip0_5065_825)">
<path d="M422.531 0.342773H507.969V299.346H422.531V0.342773Z" fill="#FF6500"/>
<path d="M396.899 0.342773H311.462V299.346H396.899V0.342773Z" fill="#1E156B"/>
<path d="M619.037 0.342773H533.6V299.346H619.037V0.342773Z" fill="#FFE04B"/>
</g>
<g clip-path="url(#clip1_5065_825)">
<path d="M0.819824 0.34375C0.820786 30.0105 9.6187 59.0108 26.1011 83.6776C42.5834 108.344 66.01 127.57 93.4185 138.923C120.827 150.276 150.987 153.246 180.083 147.459C209.18 141.672 235.908 127.387 256.886 106.41C285.016 78.2791 300.819 40.1262 300.82 0.34375H0.819824Z" fill="#00B8FF"/>
<path d="M0.819824 150.341C0.820355 190.123 16.6241 228.276 44.7544 256.406C72.8847 284.537 111.038 300.34 150.82 300.341C190.602 300.34 228.754 284.536 256.885 256.406C285.015 228.275 300.819 190.123 300.82 150.341H0.819824Z" fill="#FFE04B"/>
</g>
<defs>
<clipPath id="clip0_5065_825">
<rect width="309" height="300" fill="white" transform="translate(311)"/>
</clipPath>
<clipPath id="clip1_5065_825">
<rect width="301" height="301" fill="white"/>
</clipPath>
</defs>
</svg>
