<svg width="470" height="101" viewBox="0 0 470 101" fill="none" xmlns="http://www.w3.org/2000/svg">
<path d="M193.31 81.6879H181.211V38.3678C181.211 37.5217 181.042 36.732 180.703 35.9987C180.393 35.2655 179.956 34.6309 179.392 34.095C178.856 33.531 178.221 33.0938 177.488 32.7836C176.755 32.4733 175.965 32.3182 175.119 32.3182C174.273 32.3182 173.483 32.4733 172.75 32.7836C172.017 33.0938 171.368 33.531 170.804 34.095C170.268 34.6309 169.845 35.2655 169.535 35.9987C169.225 36.732 169.069 37.5217 169.069 38.3678V81.6879H156.928V38.3678C156.928 37.5217 156.773 36.732 156.463 35.9987C156.152 35.2655 155.715 34.6309 155.151 34.095C154.615 33.531 153.981 33.0938 153.247 32.7836C152.514 32.4733 151.725 32.3182 150.878 32.3182C150.032 32.3182 149.243 32.4733 148.509 32.7836C147.776 33.0938 147.127 33.531 146.563 34.095C146.027 34.6309 145.604 35.2655 145.294 35.9987C144.984 36.732 144.829 37.5217 144.829 38.3678V81.6879H132.687V38.3678C132.687 35.8577 133.153 33.5028 134.083 31.3029C135.042 29.0749 136.34 27.1429 137.975 25.5072C139.639 23.8432 141.571 22.5458 143.771 21.6151C145.999 20.6562 148.368 20.1768 150.878 20.1768C153.135 20.1768 155.306 20.5857 157.393 21.4036C159.48 22.1933 161.356 23.3496 163.02 24.8726C164.684 23.3496 166.545 22.1933 168.604 21.4036C170.691 20.5857 172.863 20.1768 175.119 20.1768C177.629 20.1768 179.984 20.6562 182.184 21.6151C184.412 22.5458 186.344 23.8432 187.98 25.5072C189.644 27.1429 190.941 29.0749 191.872 31.3029C192.831 33.5028 193.31 35.8577 193.31 38.3678V81.6879Z" fill="white"/>
<path d="M246.634 81.6879H205.049V21.0229H246.634V33.1643H217.19V45.3058H237.116V57.4472H217.19V69.5464H246.634V81.6879Z" fill="white"/>
<path d="M297.59 81.6879H256.004V21.0229H297.59V33.1643H268.145V45.3058H288.071V57.4472H268.145V69.5464H297.59V81.6879Z" fill="white"/>
<path d="M332.427 81.6879H320.328V33.1643H302.094V21.0229H350.618V33.1643H332.427V81.6879Z" fill="white"/>
<path d="M404.407 75.4691C401.587 77.8945 398.428 79.7559 394.931 81.0533C391.434 82.3506 387.81 82.9993 384.059 82.9993C381.182 82.9993 378.404 82.6186 375.725 81.8571C373.074 81.1238 370.578 80.0803 368.237 78.7265C365.924 77.3446 363.809 75.6947 361.891 73.7769C359.973 71.8591 358.323 69.7438 356.941 67.4312C355.588 65.0903 354.53 62.5943 353.769 59.9432C353.035 57.2639 352.669 54.4859 352.669 51.6092C352.669 48.7325 353.035 45.9544 353.769 43.2751C354.53 40.5958 355.588 38.0999 356.941 35.7872C358.323 33.4463 359.973 31.317 361.891 29.3992C363.809 27.4814 365.924 25.8456 368.237 24.4918C370.578 23.1099 373.074 22.0523 375.725 21.319C378.404 20.5575 381.182 20.1768 384.059 20.1768C387.81 20.1768 391.434 20.8254 394.931 22.1228C398.428 23.3919 401.587 25.2533 404.407 27.707L397.977 38.2832C396.2 36.3654 394.099 34.8988 391.674 33.8835C389.248 32.84 386.71 32.3182 384.059 32.3182C381.379 32.3182 378.869 32.8259 376.529 33.8412C374.188 34.8565 372.143 36.2385 370.394 37.9871C368.646 39.7074 367.264 41.7522 366.248 44.1212C365.233 46.4621 364.726 48.9581 364.726 51.6092C364.726 54.2603 365.233 56.7563 366.248 59.0971C367.264 61.4098 368.646 63.4404 370.394 65.189C372.143 66.9376 374.188 68.3196 376.529 69.3349C378.869 70.3502 381.379 70.8578 384.059 70.8578C386.71 70.8578 389.248 70.3502 391.674 69.3349C394.099 68.2914 396.2 66.8107 397.977 64.8929L404.407 75.4691Z" fill="white"/>
<path d="M470 51.6092C470 54.4859 469.619 57.2639 468.858 59.9432C468.125 62.5943 467.081 65.0903 465.727 67.4312C464.374 69.7438 462.738 71.8591 460.82 73.7769C458.902 75.6947 456.787 77.3446 454.474 78.7265C452.162 80.0803 449.666 81.1238 446.986 81.8571C444.307 82.6186 441.529 82.9993 438.652 82.9993C435.775 82.9993 432.997 82.6186 430.318 81.8571C427.667 81.1238 425.171 80.0803 422.83 78.7265C420.518 77.3446 418.402 75.6947 416.485 73.7769C414.567 71.8591 412.917 69.7438 411.535 67.4312C410.181 65.0903 409.124 62.5943 408.362 59.9432C407.629 57.2639 407.262 54.4859 407.262 51.6092C407.262 48.7325 407.629 45.9544 408.362 43.2751C409.124 40.5958 410.181 38.0999 411.535 35.7872C412.917 33.4745 414.567 31.3593 416.485 29.4415C418.402 27.5237 420.518 25.8879 422.83 24.5341C425.171 23.1804 427.667 22.1369 430.318 21.4036C432.997 20.6421 435.775 20.2614 438.652 20.2614C441.529 20.2614 444.307 20.6421 446.986 21.4036C449.666 22.1369 452.162 23.1804 454.474 24.5341C456.787 25.8879 458.902 27.5237 460.82 29.4415C462.738 31.3593 464.374 33.4745 465.727 35.7872C467.081 38.0999 468.125 40.5958 468.858 43.2751C469.619 45.9544 470 48.7325 470 51.6092ZM457.943 51.6092C457.943 48.9581 457.436 46.4621 456.42 44.1212C455.405 41.7522 454.023 39.7074 452.274 37.9871C450.554 36.2385 448.509 34.8565 446.14 33.8412C443.799 32.8259 441.303 32.3182 438.652 32.3182C435.973 32.3182 433.463 32.8259 431.122 33.8412C428.781 34.8565 426.736 36.2385 424.988 37.9871C423.239 39.7074 421.857 41.7522 420.842 44.1212C419.827 46.4621 419.319 48.9581 419.319 51.6092C419.319 54.2603 419.827 56.7563 420.842 59.0971C421.857 61.4098 423.239 63.4404 424.988 65.189C426.736 66.9376 428.781 68.3196 431.122 69.3349C433.463 70.3502 435.973 70.8578 438.652 70.8578C441.303 70.8578 443.799 70.3502 446.14 69.3349C448.509 68.3196 450.554 66.9376 452.274 65.189C454.023 63.4404 455.405 61.4098 456.42 59.0971C457.436 56.7563 457.943 54.2603 457.943 51.6092Z" fill="white"/>
<path d="M21.8777 76.0962L38.0482 51.3649C26.2533 49.4625 18.5485 55.6453 16.1705 58.9745L0 81.8034H13.3169C17.5022 81.8034 20.768 77.9986 21.8777 76.0962Z" fill="#6150FF"/>
<path d="M21.8777 24.7309L38.0482 49.4623C26.2533 51.3647 18.5485 45.1819 16.1705 41.8526L0 19.0237H13.3169C17.5022 19.0237 20.768 22.8285 21.8777 24.7309Z" fill="#6150FF"/>
<path d="M25.6821 21.8777L50.4135 38.0482C52.3159 26.2533 46.133 18.5485 42.8038 16.1705L19.9749 -1.34608e-06L19.9749 13.3169C19.9749 17.5022 23.7797 20.768 25.6821 21.8777Z" fill="#FFE14D"/>
<path d="M77.0466 21.8777L52.3153 38.0482C50.4129 26.2533 56.5957 18.5485 59.9249 16.1705L82.7539 1.34608e-06L82.7539 13.3169C82.7539 17.5022 78.949 20.768 77.0466 21.8777Z" fill="#FFE14D"/>
<path d="M25.6821 78.9475L50.4135 62.777C52.3159 74.5719 46.133 82.2767 42.8038 84.6547L19.9749 100.825L19.9749 87.5083C19.9749 83.323 23.7797 80.0572 25.6821 78.9475Z" fill="#FF6B00"/>
<path d="M77.0466 78.9475L52.3153 62.777C50.4129 74.5719 56.5957 82.2767 59.9249 84.6547L82.7539 100.825L82.7539 87.5083C82.7539 83.323 78.949 80.0572 77.0466 78.9475Z" fill="#FF6B00"/>
<path d="M80.8523 24.728L64.6818 49.4594C76.4767 51.3618 84.1815 45.1789 86.5595 41.8497L102.73 19.0208H89.4131C85.2278 19.0208 81.962 22.8256 80.8523 24.728Z" fill="white"/>
<path d="M80.8523 76.0923L64.6818 51.361C76.4767 49.4585 84.1815 55.6414 86.5595 58.9706L102.73 81.7995H89.4131C85.2278 81.7995 81.962 77.9947 80.8523 76.0923Z" fill="white"/>
</svg>
