<svg width="1291" height="253" viewBox="0 0 1291 253" fill="none" xmlns="http://www.w3.org/2000/svg">
<path d="M532.773 228.486H499.639V109.853C499.639 107.536 499.176 105.374 498.249 103.366C497.4 101.358 496.203 99.6199 494.658 98.1524C493.19 96.6077 491.453 95.4106 489.445 94.561C487.436 93.7114 485.274 93.2866 482.957 93.2866C480.64 93.2866 478.477 93.7114 476.469 94.561C474.461 95.4106 472.685 96.6077 471.14 98.1524C469.672 99.6199 468.514 101.358 467.664 103.366C466.815 105.374 466.39 107.536 466.39 109.853V228.486H433.14V109.853C433.14 107.536 432.716 105.374 431.866 103.366C431.017 101.358 429.819 99.6199 428.275 98.1524C426.807 96.6077 425.069 95.4106 423.061 94.561C421.053 93.7114 418.891 93.2866 416.574 93.2866C414.257 93.2866 412.094 93.7114 410.086 94.561C408.078 95.4106 406.301 96.6077 404.757 98.1524C403.289 99.6199 402.131 101.358 401.281 103.366C400.432 105.374 400.007 107.536 400.007 109.853V228.486H366.757V109.853C366.757 102.98 368.032 96.5305 370.58 90.5062C373.206 84.4046 376.759 79.1141 381.239 74.6345C385.796 70.0776 391.086 66.5248 397.111 63.9761C403.212 61.3501 409.7 60.0371 416.574 60.0371C422.752 60.0371 428.699 61.157 434.415 63.3968C440.13 65.5594 445.266 68.726 449.823 72.8967C454.38 68.726 459.477 65.5594 465.116 63.3968C470.831 61.157 476.778 60.0371 482.957 60.0371C489.831 60.0371 496.28 61.3501 502.304 63.9761C508.406 66.5248 513.696 70.0776 518.176 74.6345C522.733 79.1141 526.285 84.4046 528.834 90.5062C531.46 96.5305 532.773 102.98 532.773 109.853V228.486Z" fill="#260F8F"/>
<path d="M678.802 228.486H564.92V62.3541H678.802V95.6037H598.169V128.853H652.736V162.103H598.169V195.236H678.802V228.486Z" fill="#260F8F"/>
<path d="M818.344 228.486H704.461V62.3541H818.344V95.6037H737.711V128.853H792.277V162.103H737.711V195.236H818.344V228.486Z" fill="#260F8F"/>
<path d="M913.745 228.486H880.612V95.6037H830.679V62.3541H963.562V95.6037H913.745V228.486Z" fill="#260F8F"/>
<path d="M1110.87 211.456C1103.14 218.098 1094.49 223.195 1084.91 226.748C1075.34 230.301 1065.41 232.077 1055.14 232.077C1047.26 232.077 1039.65 231.035 1032.32 228.949C1025.06 226.941 1018.22 224.083 1011.81 220.376C1005.48 216.592 999.686 212.073 994.434 206.822C989.182 201.57 984.664 195.777 980.879 189.444C977.172 183.033 974.276 176.198 972.19 168.938C970.182 161.601 969.178 153.993 969.178 146.115C969.178 138.237 970.182 130.63 972.19 123.292C974.276 115.955 977.172 109.12 980.879 102.786C984.664 96.376 989.182 90.5448 994.434 85.2928C999.686 80.0409 1005.48 75.5613 1011.81 71.854C1018.22 68.0695 1025.06 65.1732 1032.32 63.1651C1039.65 61.0798 1047.26 60.0371 1055.14 60.0371C1065.41 60.0371 1075.34 61.8135 1084.91 65.3663C1094.49 68.8419 1103.14 73.9393 1110.87 80.6588L1093.26 109.622C1088.39 104.37 1082.64 100.354 1075.99 97.5731C1069.35 94.7155 1062.4 93.2866 1055.14 93.2866C1047.8 93.2866 1040.93 94.6768 1034.52 97.4573C1028.11 100.238 1022.51 104.022 1017.72 108.811C1012.93 113.522 1009.15 119.122 1006.37 125.609C1003.59 132.02 1002.2 138.855 1002.2 146.115C1002.2 153.375 1003.59 160.21 1006.37 166.621C1009.15 172.954 1012.93 178.515 1017.72 183.304C1022.51 188.092 1028.11 191.877 1034.52 194.657C1040.93 197.438 1047.8 198.828 1055.14 198.828C1062.4 198.828 1069.35 197.438 1075.99 194.657C1082.64 191.799 1088.39 187.745 1093.26 182.493L1110.87 211.456Z" fill="#260F8F"/>
<path d="M1290.49 146.115C1290.49 153.993 1289.45 161.601 1287.36 168.938C1285.36 176.198 1282.5 183.033 1278.79 189.444C1275.08 195.777 1270.6 201.57 1265.35 206.822C1260.1 212.073 1254.31 216.592 1247.97 220.376C1241.64 224.083 1234.8 226.941 1227.47 228.949C1220.13 231.035 1212.52 232.077 1204.64 232.077C1196.77 232.077 1189.16 231.035 1181.82 228.949C1174.56 226.941 1167.73 224.083 1161.32 220.376C1154.98 216.592 1149.19 212.073 1143.94 206.822C1138.69 201.57 1134.17 195.777 1130.38 189.444C1126.68 183.033 1123.78 176.198 1121.69 168.938C1119.69 161.601 1118.68 153.993 1118.68 146.115C1118.68 138.237 1119.69 130.63 1121.69 123.292C1123.78 115.955 1126.68 109.12 1130.38 102.786C1134.17 96.4532 1138.69 90.6606 1143.94 85.4087C1149.19 80.1567 1154.98 75.6771 1161.32 71.9699C1167.73 68.2626 1174.56 65.4049 1181.82 63.3968C1189.16 61.3115 1196.77 60.2688 1204.64 60.2688C1212.52 60.2688 1220.13 61.3115 1227.47 63.3968C1234.8 65.4049 1241.64 68.2626 1247.97 71.9699C1254.31 75.6771 1260.1 80.1567 1265.35 85.4087C1270.6 90.6606 1275.08 96.4532 1278.79 102.786C1282.5 109.12 1285.36 115.955 1287.36 123.292C1289.45 130.63 1290.49 138.237 1290.49 146.115ZM1257.47 146.115C1257.47 138.855 1256.08 132.02 1253.3 125.609C1250.52 119.122 1246.74 113.522 1241.95 108.811C1237.24 104.022 1231.64 100.238 1225.15 97.4573C1218.74 94.6768 1211.9 93.2866 1204.64 93.2866C1197.31 93.2866 1190.43 94.6768 1184.02 97.4573C1177.61 100.238 1172.01 104.022 1167.22 108.811C1162.44 113.522 1158.65 119.122 1155.87 125.609C1153.09 132.02 1151.7 138.855 1151.7 146.115C1151.7 153.375 1153.09 160.21 1155.87 166.621C1158.65 172.954 1162.44 178.515 1167.22 183.304C1172.01 188.092 1177.61 191.877 1184.02 194.657C1190.43 197.438 1197.31 198.828 1204.64 198.828C1211.9 198.828 1218.74 197.438 1225.15 194.657C1231.64 191.877 1237.24 188.092 1241.95 183.304C1246.74 178.515 1250.52 172.954 1253.3 166.621C1256.08 160.21 1257.47 153.375 1257.47 146.115Z" fill="#260F8F"/>
<path d="M63.6447 221.372L110.686 149.426C76.3736 143.891 53.9596 161.878 47.0417 171.563L0 237.975H38.7403C50.9158 237.975 60.4163 226.906 63.6447 221.372Z" fill="#00B8FF"/>
<path d="M63.6447 71.9457L110.686 143.892C76.3736 149.426 53.9596 131.44 47.0417 121.755L0 55.3427H38.7403C50.9158 55.3427 60.4163 66.4114 63.6447 71.9457Z" fill="#00B8FF"/>
<path d="M74.7128 63.6447L146.659 110.686C152.193 76.3736 134.207 53.9596 124.522 47.0417L58.1098 -3.91589e-06L58.1098 38.7402C58.1098 50.9158 69.1784 60.4163 74.7128 63.6447Z" fill="#FFE14D"/>
<path d="M224.139 63.6447L152.193 110.686C146.659 76.3736 164.645 53.9596 174.33 47.0417L240.742 3.91589e-06L240.742 38.7403C240.742 50.9158 229.674 60.4164 224.139 63.6447Z" fill="#FFE14D"/>
<path d="M74.7128 229.672L146.659 182.63C152.193 216.943 134.207 239.357 124.522 246.275L58.1098 293.316L58.1098 254.576C58.1098 242.401 69.1784 232.9 74.7128 229.672Z" fill="#FF6500"/>
<path d="M224.139 229.672L152.193 182.63C146.659 216.943 164.645 239.357 174.33 246.275L240.742 293.316L240.742 254.576C240.742 242.401 229.674 232.9 224.139 229.672Z" fill="#FF6500"/>
<path d="M235.206 71.9467L188.165 143.893C222.477 149.427 244.891 131.441 251.809 121.756L298.851 55.3437H260.111C247.935 55.3437 238.435 66.4123 235.206 71.9467Z" fill="#260F8F"/>
<path d="M235.206 221.373L188.165 149.426C222.477 143.892 244.891 161.879 251.809 171.564L298.851 237.976H260.111C247.935 237.976 238.435 226.907 235.206 221.373Z" fill="#260F8F"/>
</svg>
