<svg width="1290" height="275" viewBox="0 0 1290 275" fill="none" xmlns="http://www.w3.org/2000/svg">
<path d="M531.404 222.801H498.232V104.649C498.232 102.341 497.768 100.188 496.84 98.1876C495.99 96.1877 494.791 94.4569 493.245 92.9954C491.776 91.457 490.036 90.2647 488.025 89.4185C486.015 88.5724 483.85 88.1493 481.53 88.1493C479.21 88.1493 477.045 88.5724 475.035 89.4185C473.025 90.2647 471.246 91.457 469.7 92.9954C468.23 94.4569 467.071 96.1877 466.22 98.1876C465.369 100.188 464.944 102.341 464.944 104.649V222.801H431.656V104.649C431.656 102.341 431.231 100.188 430.38 98.1876C429.53 96.1877 428.331 94.4569 426.785 92.9954C425.316 91.457 423.576 90.2647 421.565 89.4185C419.555 88.5724 417.39 88.1493 415.07 88.1493C412.75 88.1493 410.585 88.5724 408.575 89.4185C406.564 90.2647 404.786 91.457 403.24 92.9954C401.77 94.4569 400.611 96.1877 399.76 98.1876C398.909 100.188 398.484 102.341 398.484 104.649V222.801H365.196V104.649C365.196 97.803 366.472 91.38 369.024 85.3801C371.653 79.3033 375.21 74.0341 379.694 69.5726C384.256 65.0342 389.553 61.4958 395.584 58.9574C401.693 56.3421 408.188 55.0344 415.07 55.0344C421.256 55.0344 427.21 56.1498 432.932 58.3805C438.654 60.5343 443.796 63.6881 448.358 67.8419C452.92 63.6881 458.024 60.5343 463.668 58.3805C469.39 56.1498 475.344 55.0344 481.53 55.0344C488.412 55.0344 494.869 56.3421 500.9 58.9574C507.008 61.4958 512.305 65.0342 516.79 69.5726C521.352 74.0341 524.909 79.3033 527.461 85.3801C530.09 91.38 531.404 97.803 531.404 104.649V222.801Z" fill="white"/>
<path d="M677.602 222.801H563.588V57.3421H677.602V90.457H596.876V123.572H651.506V156.687H596.876V189.686H677.602V222.801Z" fill="white"/>
<path d="M817.305 222.801H703.291V57.3421H817.305V90.457H736.579V123.572H791.208V156.687H736.579V189.686H817.305V222.801Z" fill="white"/>
<path d="M912.818 222.801H879.646V90.457H829.656V57.3421H962.692V90.457H912.818V222.801Z" fill="white"/>
<path d="M1110.17 205.84C1102.43 212.455 1093.77 217.532 1084.18 221.071C1074.6 224.609 1064.66 226.378 1054.38 226.378C1046.49 226.378 1038.87 225.34 1031.53 223.263C1024.26 221.263 1017.42 218.417 1011 214.724C1004.66 210.955 998.858 206.455 993.6 201.225C988.342 195.994 983.818 190.225 980.029 183.917C976.318 177.533 973.418 170.725 971.33 163.494C969.32 156.187 968.315 148.61 968.315 140.764C968.315 132.918 969.32 125.341 971.33 118.034C973.418 110.726 976.318 103.918 980.029 97.6107C983.818 91.2262 988.342 85.4186 993.6 80.1879C998.858 74.9572 1004.66 70.4957 1011 66.8035C1017.42 63.0343 1024.26 60.1497 1031.53 58.1497C1038.87 56.0728 1046.49 55.0344 1054.38 55.0344C1064.66 55.0344 1074.6 56.8036 1084.18 60.342C1093.77 63.8035 1102.43 68.8803 1110.17 75.5726L1092.54 104.418C1087.66 99.1876 1081.9 95.1877 1075.25 92.4185C1068.6 89.5724 1061.64 88.1493 1054.38 88.1493C1047.03 88.1493 1040.15 89.5339 1033.73 92.3031C1027.31 95.0723 1021.71 98.8415 1016.91 103.611C1012.12 108.303 1008.33 113.88 1005.55 120.341C1002.76 126.726 1001.37 133.533 1001.37 140.764C1001.37 147.995 1002.76 154.802 1005.55 161.187C1008.33 167.494 1012.12 173.033 1016.91 177.802C1021.71 182.571 1027.31 186.34 1033.73 189.109C1040.15 191.879 1047.03 193.263 1054.38 193.263C1061.64 193.263 1068.6 191.879 1075.25 189.109C1081.9 186.263 1087.66 182.225 1092.54 176.994L1110.17 205.84Z" fill="white"/>
<path d="M1290 140.764C1290 148.61 1288.96 156.187 1286.87 163.494C1284.86 170.725 1282 177.533 1278.29 183.917C1274.57 190.225 1270.09 195.994 1264.83 201.225C1259.57 206.455 1253.77 210.955 1247.43 214.724C1241.09 218.417 1234.25 221.263 1226.9 223.263C1219.56 225.34 1211.94 226.378 1204.05 226.378C1196.17 226.378 1188.55 225.34 1181.2 223.263C1173.94 221.263 1167.09 218.417 1160.68 214.724C1154.33 210.955 1148.54 206.455 1143.28 201.225C1138.02 195.994 1133.5 190.225 1129.71 183.917C1126 177.533 1123.1 170.725 1121.01 163.494C1119 156.187 1117.99 148.61 1117.99 140.764C1117.99 132.918 1119 125.341 1121.01 118.034C1123.1 110.726 1126 103.918 1129.71 97.6107C1133.5 91.3031 1138.02 85.534 1143.28 80.3033C1148.54 75.0726 1154.33 70.6111 1160.68 66.9188C1167.09 63.2266 1173.94 60.3805 1181.2 58.3805C1188.55 56.3036 1196.17 55.2652 1204.05 55.2652C1211.94 55.2652 1219.56 56.3036 1226.9 58.3805C1234.25 60.3805 1241.09 63.2266 1247.43 66.9188C1253.77 70.6111 1259.57 75.0726 1264.83 80.3033C1270.09 85.534 1274.57 91.3031 1278.29 97.6107C1282 103.918 1284.86 110.726 1286.87 118.034C1288.96 125.341 1290 132.918 1290 140.764ZM1256.94 140.764C1256.94 133.533 1255.55 126.726 1252.77 120.341C1249.98 113.88 1246.2 108.303 1241.4 103.611C1236.69 98.8415 1231.08 95.0723 1224.58 92.3031C1218.17 89.5339 1211.32 88.1493 1204.05 88.1493C1196.71 88.1493 1189.83 89.5339 1183.41 92.3031C1176.99 95.0723 1171.38 98.8415 1166.59 103.611C1161.8 108.303 1158.01 113.88 1155.22 120.341C1152.44 126.726 1151.05 133.533 1151.05 140.764C1151.05 147.995 1152.44 154.802 1155.22 161.187C1158.01 167.494 1161.8 173.033 1166.59 177.802C1171.38 182.571 1176.99 186.34 1183.41 189.109C1189.83 191.879 1196.71 193.263 1204.05 193.263C1211.32 193.263 1218.17 191.879 1224.58 189.109C1231.08 186.34 1236.69 182.571 1241.4 177.802C1246.2 173.033 1249.98 167.494 1252.77 161.187C1255.55 154.802 1256.94 147.995 1256.94 140.764Z" fill="white"/>
<path d="M59.9817 207.547L104.316 140.094C71.9781 134.906 50.8541 151.769 44.3343 160.849L0 223.113H36.5106C47.9854 223.113 56.9392 212.736 59.9817 207.547Z" fill="#92DC63"/>
<path d="M59.9817 67.4528L104.316 134.906C71.9781 140.094 50.8541 123.231 44.3343 114.151L0 51.8868H36.5106C47.9854 51.8868 56.9392 62.2642 59.9817 67.4528Z" fill="#92DC63"/>
<path d="M70.412 59.6698L138.217 103.774C143.433 71.6038 126.482 50.5896 117.354 44.1038L54.7646 0V36.3208C54.7646 47.7359 65.1962 56.6431 70.412 59.6698Z" fill="#92DC63"/>
<path d="M211.238 59.6698L143.433 103.774C138.217 71.6038 155.169 50.5896 164.296 44.1038L226.886 7.34266e-06V36.3208C226.886 47.7359 216.454 56.6431 211.238 59.6698Z" fill="#92DC63"/>
<path d="M70.412 215.33L138.217 171.226C143.433 203.396 126.482 224.41 117.354 230.896L54.7646 275V238.679C54.7646 227.264 65.1962 218.357 70.412 215.33Z" fill="#92DC63"/>
<path d="M211.238 215.33L143.433 171.226C138.217 203.396 155.169 224.41 164.296 230.896L226.886 275V238.679C226.886 227.264 216.454 218.357 211.238 215.33Z" fill="#92DC63"/>
<path d="M221.67 67.4527L177.336 134.906C209.674 140.094 230.798 123.231 237.318 114.151L281.652 51.8867H245.141C233.666 51.8867 224.713 62.2641 221.67 67.4527Z" fill="#92DC63"/>
<path d="M221.67 207.547L177.336 140.094C209.674 134.906 230.798 151.769 237.318 160.849L281.652 223.113H245.141C233.666 223.113 224.713 212.736 221.67 207.547Z" fill="#92DC63"/>
</svg>
