<svg width="237" height="41" viewBox="0 0 237 41" fill="none" xmlns="http://www.w3.org/2000/svg">
<path d="M78.5918 32.7313H73.7041V15.2313C73.7041 14.8895 73.6357 14.5705 73.499 14.2742C73.3737 13.978 73.1971 13.7217 72.9692 13.5052C72.7528 13.2773 72.4964 13.1007 72.2002 12.9754C71.904 12.8501 71.585 12.7874 71.2432 12.7874C70.9014 12.7874 70.5824 12.8501 70.2861 12.9754C69.9899 13.1007 69.7279 13.2773 69.5 13.5052C69.2835 13.7217 69.1126 13.978 68.9873 14.2742C68.862 14.5705 68.7993 14.8895 68.7993 15.2313V32.7313H63.8945V15.2313C63.8945 14.8895 63.8319 14.5705 63.7065 14.2742C63.5812 13.978 63.4046 13.7217 63.1768 13.5052C62.9603 13.2773 62.7039 13.1007 62.4077 12.9754C62.1115 12.8501 61.7925 12.7874 61.4507 12.7874C61.1089 12.7874 60.7899 12.8501 60.4937 12.9754C60.1974 13.1007 59.9354 13.2773 59.7075 13.5052C59.491 13.7217 59.3201 13.978 59.1948 14.2742C59.0695 14.5705 59.0068 14.8895 59.0068 15.2313V32.7313H54.1021V15.2313C54.1021 14.2173 54.29 13.2659 54.666 12.3773C55.0534 11.4772 55.5775 10.6968 56.2383 10.036C56.9105 9.36376 57.6909 8.83967 58.5796 8.4637C59.4797 8.07633 60.4367 7.88264 61.4507 7.88264C62.3621 7.88264 63.2394 8.04784 64.0825 8.37825C64.9256 8.69726 65.6833 9.16438 66.3555 9.77961C67.0277 9.16438 67.7796 8.69726 68.6113 8.37825C69.4544 8.04784 70.3317 7.88264 71.2432 7.88264C72.2572 7.88264 73.2085 8.07633 74.0972 8.4637C74.9972 8.83967 75.7777 9.36376 76.4385 10.036C77.1107 10.6968 77.6348 11.4772 78.0107 12.3773C78.3981 13.2659 78.5918 14.2173 78.5918 15.2313V32.7313ZM100.133 32.7313H83.3339V8.22444H100.133V13.1292H88.2387V18.034H96.288V22.9388H88.2387V27.8265H100.133V32.7313ZM120.718 32.7313H103.918V8.22444H120.718V13.1292H108.823V18.034H116.872V22.9388H108.823V27.8265H120.718V32.7313ZM134.791 32.7313H129.903V13.1292H122.537V8.22444H142.139V13.1292H134.791V32.7313ZM163.869 30.2191C162.729 31.1989 161.453 31.9508 160.041 32.4749C158.628 32.999 157.164 33.2611 155.649 33.2611C154.486 33.2611 153.364 33.1073 152.282 32.7996C151.211 32.5034 150.203 32.0819 149.257 31.535C148.323 30.9767 147.468 30.3102 146.693 29.5355C145.919 28.7607 145.252 27.9062 144.694 26.972C144.147 26.0264 143.72 25.0181 143.412 23.9471C143.116 22.8647 142.968 21.7425 142.968 20.5804C142.968 19.4183 143.116 18.2961 143.412 17.2137C143.72 16.1313 144.147 15.123 144.694 14.1888C145.252 13.2432 145.919 12.383 146.693 11.6082C147.468 10.8335 148.323 10.1727 149.257 9.6258C150.203 9.06754 151.211 8.64029 152.282 8.34407C153.364 8.03645 154.486 7.88264 155.649 7.88264C157.164 7.88264 158.628 8.14469 160.041 8.66877C161.453 9.18147 162.729 9.93342 163.869 10.9246L161.271 15.1971C160.553 14.4224 159.705 13.8299 158.725 13.4198C157.745 12.9982 156.72 12.7874 155.649 12.7874C154.566 12.7874 153.552 12.9925 152.607 13.4027C151.661 13.8128 150.835 14.3711 150.129 15.0775C149.422 15.7725 148.864 16.5985 148.454 17.5555C148.044 18.5011 147.838 19.5094 147.838 20.5804C147.838 21.6514 148.044 22.6597 148.454 23.6053C148.864 24.5395 149.422 25.3599 150.129 26.0662C150.835 26.7726 151.661 27.3309 152.607 27.741C153.552 28.1512 154.566 28.3563 155.649 28.3563C156.72 28.3563 157.745 28.1512 158.725 27.741C159.705 27.3195 160.553 26.7213 161.271 25.9466L163.869 30.2191ZM190.366 20.5804C190.366 21.7425 190.212 22.8647 189.905 23.9471C189.609 25.0181 189.187 26.0264 188.64 26.972C188.093 27.9062 187.432 28.7607 186.658 29.5355C185.883 30.3102 185.028 30.9767 184.094 31.535C183.16 32.0819 182.152 32.5034 181.069 32.7996C179.987 33.1073 178.865 33.2611 177.703 33.2611C176.541 33.2611 175.418 33.1073 174.336 32.7996C173.265 32.5034 172.257 32.0819 171.311 31.535C170.377 30.9767 169.522 30.3102 168.748 29.5355C167.973 28.7607 167.306 27.9062 166.748 26.972C166.201 26.0264 165.774 25.0181 165.466 23.9471C165.17 22.8647 165.022 21.7425 165.022 20.5804C165.022 19.4183 165.17 18.2961 165.466 17.2137C165.774 16.1313 166.201 15.123 166.748 14.1888C167.306 13.2545 167.973 12.4001 168.748 11.6253C169.522 10.8506 170.377 10.1898 171.311 9.64289C172.257 9.09602 173.265 8.67447 174.336 8.37825C175.418 8.07063 176.541 7.91682 177.703 7.91682C178.865 7.91682 179.987 8.07063 181.069 8.37825C182.152 8.67447 183.16 9.09602 184.094 9.64289C185.028 10.1898 185.883 10.8506 186.658 11.6253C187.432 12.4001 188.093 13.2545 188.64 14.1888C189.187 15.123 189.609 16.1313 189.905 17.2137C190.212 18.2961 190.366 19.4183 190.366 20.5804ZM185.496 20.5804C185.496 19.5094 185.291 18.5011 184.88 17.5555C184.47 16.5985 183.912 15.7725 183.206 15.0775C182.511 14.3711 181.685 13.8128 180.728 13.4027C179.782 12.9925 178.774 12.7874 177.703 12.7874C176.62 12.7874 175.606 12.9925 174.661 13.4027C173.715 13.8128 172.889 14.3711 172.183 15.0775C171.476 15.7725 170.918 16.5985 170.508 17.5555C170.098 18.5011 169.893 19.5094 169.893 20.5804C169.893 21.6514 170.098 22.6597 170.508 23.6053C170.918 24.5395 171.476 25.3599 172.183 26.0662C172.889 26.7726 173.715 27.3309 174.661 27.741C175.606 28.1512 176.62 28.3563 177.703 28.3563C178.774 28.3563 179.782 28.1512 180.728 27.741C181.685 27.3309 182.511 26.7726 183.206 26.0662C183.912 25.3599 184.47 24.5395 184.88 23.6053C185.291 22.6597 185.496 21.6514 185.496 20.5804Z" fill="white"/>
<path d="M9.13066 30.7407L15.6631 20.75C10.8983 19.9814 7.78576 22.4791 6.82511 23.824L0.292725 33.0462H5.67234C7.36308 33.0462 8.68236 31.5092 9.13066 30.7407Z" fill="#6150FF"/>
<path d="M9.13066 9.99071L15.6631 19.9814C10.8983 20.7499 7.78576 18.2523 6.82511 16.9074L0.292725 7.68516H5.67234C7.36308 7.68516 8.68236 9.2222 9.13066 9.99071Z" fill="#6150FF"/>
<path d="M10.6674 8.83794L20.6582 15.3703C21.4267 10.6055 18.929 7.49304 17.5841 6.53239L8.36189 -5.43774e-07L8.36189 5.37961C8.36189 7.07035 9.89893 8.38964 10.6674 8.83794Z" fill="#FFE14D"/>
<path d="M31.4174 8.83794L21.4267 15.3703C20.6582 10.6055 23.1558 7.49304 24.5007 6.53239L33.7229 5.43774e-07L33.7229 5.37962C33.7229 7.07035 32.1859 8.38964 31.4174 8.83794Z" fill="#FFE14D"/>
<path d="M10.6674 31.8934L20.6582 25.361C21.4267 30.1258 18.929 33.2383 17.5841 34.199L8.36189 40.7314L8.36189 35.3518C8.36189 33.661 9.89893 32.3417 10.6674 31.8934Z" fill="#FF6B00"/>
<path d="M31.4174 31.8934L21.4267 25.361C20.6582 30.1258 23.1558 33.2383 24.5007 34.199L33.7229 40.7314L33.7229 35.3518C33.7229 33.661 32.1859 32.3417 31.4174 31.8934Z" fill="#FF6B00"/>
<path d="M32.9544 9.9907L26.422 19.9814C31.1868 20.7499 34.2993 18.2522 35.26 16.9073L41.7924 7.68515H36.4127C34.722 7.68515 33.4027 9.22218 32.9544 9.9907Z" fill="white"/>
<path d="M32.9544 30.7406L26.422 20.7499C31.1868 19.9814 34.2993 22.4791 35.26 23.824L41.7924 33.0462H36.4127C34.722 33.0462 33.4027 31.5092 32.9544 30.7406Z" fill="white"/>
</svg>
