<svg width="191" height="41" viewBox="0 0 191 41" fill="none" xmlns="http://www.w3.org/2000/svg">
<path d="M78.2991 33H73.4114V15.5C73.4114 15.1582 73.3431 14.8392 73.2064 14.543C73.081 14.2467 72.9044 13.9904 72.6766 13.7739C72.4601 13.5461 72.2038 13.3695 71.9075 13.2441C71.6113 13.1188 71.2923 13.0562 70.9505 13.0562C70.6087 13.0562 70.2897 13.1188 69.9935 13.2441C69.6972 13.3695 69.4352 13.5461 69.2073 13.7739C68.9909 13.9904 68.82 14.2467 68.6946 14.543C68.5693 14.8392 68.5067 15.1582 68.5067 15.5V33H63.6019V15.5C63.6019 15.1582 63.5392 14.8392 63.4139 14.543C63.2886 14.2467 63.112 13.9904 62.8841 13.7739C62.6676 13.5461 62.4113 13.3695 62.1151 13.2441C61.8188 13.1188 61.4998 13.0562 61.158 13.0562C60.8162 13.0562 60.4972 13.1188 60.201 13.2441C59.9048 13.3695 59.6427 13.5461 59.4149 13.7739C59.1984 13.9904 59.0275 14.2467 58.9022 14.543C58.7768 14.8392 58.7142 15.1582 58.7142 15.5V33H53.8094V15.5C53.8094 14.486 53.9974 13.5347 54.3734 12.646C54.7607 11.7459 55.2848 10.9655 55.9456 10.3047C56.6178 9.63249 57.3983 9.1084 58.2869 8.73242C59.187 8.34505 60.144 8.15137 61.158 8.15137C62.0695 8.15137 62.9468 8.31657 63.7899 8.64697C64.633 8.96598 65.3906 9.43311 66.0628 10.0483C66.735 9.43311 67.487 8.96598 68.3187 8.64697C69.1618 8.31657 70.039 8.15137 70.9505 8.15137C71.9645 8.15137 72.9158 8.34505 73.8045 8.73242C74.7046 9.1084 75.485 9.63249 76.1458 10.3047C76.818 10.9655 77.3421 11.7459 77.7181 12.646C78.1054 13.5347 78.2991 14.486 78.2991 15.5V33Z" fill="#092019"/>
<path d="M99.8405 33H83.0412V8.49316H99.8405V13.3979H87.946V18.3027H95.9953V23.2075H87.946V28.0952H99.8405V33Z" fill="#092019"/>
<path d="M120.425 33H103.626V8.49316H120.425V13.3979H108.53V18.3027H116.58V23.2075H108.53V28.0952H120.425V33Z" fill="#092019"/>
<path d="M134.498 33H129.61V13.3979H122.245V8.49316H141.847V13.3979H134.498V33Z" fill="#092019"/>
<path d="M163.576 30.4878C162.437 31.4676 161.161 32.2196 159.748 32.7437C158.335 33.2677 156.871 33.5298 155.356 33.5298C154.194 33.5298 153.072 33.376 151.989 33.0684C150.918 32.7721 149.91 32.3506 148.964 31.8037C148.03 31.2454 147.176 30.5789 146.401 29.8042C145.626 29.0295 144.96 28.175 144.401 27.2407C143.854 26.2951 143.427 25.2868 143.12 24.2158C142.823 23.1335 142.675 22.0112 142.675 20.8491C142.675 19.687 142.823 18.5648 143.12 17.4824C143.427 16.4001 143.854 15.3918 144.401 14.4575C144.96 13.5119 145.626 12.6517 146.401 11.877C147.176 11.1022 148.03 10.4414 148.964 9.89453C149.91 9.33626 150.918 8.90902 151.989 8.61279C153.072 8.30518 154.194 8.15137 155.356 8.15137C156.871 8.15137 158.335 8.41341 159.748 8.9375C161.161 9.4502 162.437 10.2021 163.576 11.1934L160.978 15.4658C160.261 14.6911 159.412 14.0986 158.432 13.6885C157.452 13.2669 156.427 13.0562 155.356 13.0562C154.274 13.0562 153.26 13.2612 152.314 13.6714C151.368 14.0815 150.542 14.6398 149.836 15.3462C149.129 16.0412 148.571 16.8672 148.161 17.8242C147.751 18.7699 147.546 19.7782 147.546 20.8491C147.546 21.9201 147.751 22.9284 148.161 23.874C148.571 24.8083 149.129 25.6286 149.836 26.335C150.542 27.0413 151.368 27.5996 152.314 28.0098C153.26 28.4199 154.274 28.625 155.356 28.625C156.427 28.625 157.452 28.4199 158.432 28.0098C159.412 27.5882 160.261 26.9901 160.978 26.2153L163.576 30.4878Z" fill="#092019"/>
<path d="M190.074 20.8491C190.074 22.0112 189.92 23.1335 189.612 24.2158C189.316 25.2868 188.894 26.2951 188.347 27.2407C187.801 28.175 187.14 29.0295 186.365 29.8042C185.59 30.5789 184.736 31.2454 183.802 31.8037C182.867 32.3506 181.859 32.7721 180.777 33.0684C179.694 33.376 178.572 33.5298 177.41 33.5298C176.248 33.5298 175.126 33.376 174.043 33.0684C172.972 32.7721 171.964 32.3506 171.018 31.8037C170.084 31.2454 169.23 30.5789 168.455 29.8042C167.68 29.0295 167.014 28.175 166.455 27.2407C165.909 26.2951 165.481 25.2868 165.174 24.2158C164.877 23.1335 164.729 22.0112 164.729 20.8491C164.729 19.687 164.877 18.5648 165.174 17.4824C165.481 16.4001 165.909 15.3918 166.455 14.4575C167.014 13.5233 167.68 12.6688 168.455 11.894C169.23 11.1193 170.084 10.4585 171.018 9.91162C171.964 9.36475 172.972 8.9432 174.043 8.64697C175.126 8.33936 176.248 8.18555 177.41 8.18555C178.572 8.18555 179.694 8.33936 180.777 8.64697C181.859 8.9432 182.867 9.36475 183.802 9.91162C184.736 10.4585 185.59 11.1193 186.365 11.894C187.14 12.6688 187.801 13.5233 188.347 14.4575C188.894 15.3918 189.316 16.4001 189.612 17.4824C189.92 18.5648 190.074 19.687 190.074 20.8491ZM185.203 20.8491C185.203 19.7782 184.998 18.7699 184.588 17.8242C184.178 16.8672 183.619 16.0412 182.913 15.3462C182.218 14.6398 181.392 14.0815 180.435 13.6714C179.489 13.2612 178.481 13.0562 177.41 13.0562C176.328 13.0562 175.314 13.2612 174.368 13.6714C173.422 14.0815 172.596 14.6398 171.89 15.3462C171.184 16.0412 170.625 16.8672 170.215 17.8242C169.805 18.7699 169.6 19.7782 169.6 20.8491C169.6 21.9201 169.805 22.9284 170.215 23.874C170.625 24.8083 171.184 25.6286 171.89 26.335C172.596 27.0413 173.422 27.5996 174.368 28.0098C175.314 28.4199 176.328 28.625 177.41 28.625C178.481 28.625 179.489 28.4199 180.435 28.0098C181.392 27.5996 182.218 27.0413 182.913 26.335C183.619 25.6286 184.178 24.8083 184.588 23.874C184.998 22.9284 185.203 21.9201 185.203 20.8491Z" fill="#092019"/>
<path d="M8.83794 30.7407L15.3703 20.75C10.6055 19.9814 7.49304 22.4791 6.53239 23.824L0 33.0462H5.37961C7.07035 33.0462 8.38964 31.5092 8.83794 30.7407Z" fill="#92DC63"/>
<path d="M8.83794 9.99071L15.3703 19.9814C10.6055 20.7499 7.49304 18.2523 6.53239 16.9074L0 7.68516H5.37961C7.07035 7.68516 8.38964 9.2222 8.83794 9.99071Z" fill="#92DC63"/>
<path d="M10.3748 8.83794L20.3655 15.3703C21.134 10.6055 18.6363 7.49304 17.2914 6.53239L8.06922 0V5.37961C8.06922 7.07035 9.60626 8.38964 10.3748 8.83794Z" fill="#92DC63"/>
<path d="M31.1247 8.83794L21.134 15.3703C20.3654 10.6055 22.8631 7.49304 24.208 6.53239L33.4302 1.08755e-06V5.37962C33.4302 7.07035 31.8932 8.38964 31.1247 8.83794Z" fill="#92DC63"/>
<path d="M10.3748 31.8934L20.3655 25.361C21.134 30.1258 18.6363 33.2383 17.2914 34.199L8.06922 40.7314V35.3518C8.06922 33.661 9.60626 32.3417 10.3748 31.8934Z" fill="#92DC63"/>
<path d="M31.1247 31.8934L21.134 25.361C20.3654 30.1258 22.8631 33.2383 24.208 34.199L33.4302 40.7314V35.3517C33.4302 33.661 31.8932 32.3417 31.1247 31.8934Z" fill="#92DC63"/>
<path d="M32.6617 9.9907L26.1293 19.9814C30.8941 20.7499 34.0066 18.2523 34.9673 16.9073L41.4997 7.68515H36.12C34.4293 7.68515 33.11 9.22218 32.6617 9.9907Z" fill="#92DC63"/>
<path d="M32.6617 30.7407L26.1293 20.7499C30.8941 19.9814 34.0066 22.4791 34.9673 23.824L41.4997 33.0462H36.12C34.4293 33.0462 33.11 31.5092 32.6617 30.7407Z" fill="#92DC63"/>
</svg>
