<svg width="195" height="41" viewBox="0 0 195 41" fill="none" xmlns="http://www.w3.org/2000/svg">
<path d="M78.2988 33H73.4111V15.5C73.4111 15.1582 73.3428 14.8392 73.2061 14.543C73.0807 14.2467 72.9041 13.9904 72.6763 13.7739C72.4598 13.5461 72.2035 13.3695 71.9072 13.2441C71.611 13.1188 71.292 13.0562 70.9502 13.0562C70.6084 13.0562 70.2894 13.1188 69.9932 13.2441C69.6969 13.3695 69.4349 13.5461 69.207 13.7739C68.9906 13.9904 68.8197 14.2467 68.6943 14.543C68.569 14.8392 68.5063 15.1582 68.5063 15.5V33H63.6016V15.5C63.6016 15.1582 63.5389 14.8392 63.4136 14.543C63.2882 14.2467 63.1117 13.9904 62.8838 13.7739C62.6673 13.5461 62.411 13.3695 62.1147 13.2441C61.8185 13.1188 61.4995 13.0562 61.1577 13.0562C60.8159 13.0562 60.4969 13.1188 60.2007 13.2441C59.9045 13.3695 59.6424 13.5461 59.4146 13.7739C59.1981 13.9904 59.0272 14.2467 58.9019 14.543C58.7765 14.8392 58.7139 15.1582 58.7139 15.5V33H53.8091V15.5C53.8091 14.486 53.9971 13.5347 54.373 12.646C54.7604 11.7459 55.2845 10.9655 55.9453 10.3047C56.6175 9.63249 57.3979 9.1084 58.2866 8.73242C59.1867 8.34505 60.1437 8.15137 61.1577 8.15137C62.0692 8.15137 62.9465 8.31657 63.7896 8.64697C64.6326 8.96598 65.3903 9.43311 66.0625 10.0483C66.7347 9.43311 67.4867 8.96598 68.3184 8.64697C69.1615 8.31657 70.0387 8.15137 70.9502 8.15137C71.9642 8.15137 72.9155 8.34505 73.8042 8.73242C74.7043 9.1084 75.4847 9.63249 76.1455 10.3047C76.8177 10.9655 77.3418 11.7459 77.7178 12.646C78.1051 13.5347 78.2988 14.486 78.2988 15.5V33ZM99.8402 33H83.0409V8.49316H99.8402V13.3979H87.9457V18.3027H95.995V23.2075H87.9457V28.0952H99.8402V33ZM120.425 33H103.625V8.49316H120.425V13.3979H108.53V18.3027H116.579V23.2075H108.53V28.0952H120.425V33ZM134.498 33H129.61V13.3979H122.244V8.49316H141.846V13.3979H134.498V33ZM163.576 30.4878C162.436 31.4676 161.16 32.2196 159.748 32.7437C158.335 33.2677 156.871 33.5298 155.356 33.5298C154.193 33.5298 153.071 33.376 151.989 33.0684C150.918 32.7721 149.91 32.3506 148.964 31.8037C148.03 31.2454 147.175 30.5789 146.4 29.8042C145.626 29.0295 144.959 28.175 144.401 27.2407C143.854 26.2951 143.427 25.2868 143.119 24.2158C142.823 23.1335 142.675 22.0112 142.675 20.8491C142.675 19.687 142.823 18.5648 143.119 17.4824C143.427 16.4001 143.854 15.3918 144.401 14.4575C144.959 13.5119 145.626 12.6517 146.4 11.877C147.175 11.1022 148.03 10.4414 148.964 9.89453C149.91 9.33626 150.918 8.90902 151.989 8.61279C153.071 8.30518 154.193 8.15137 155.356 8.15137C156.871 8.15137 158.335 8.41341 159.748 8.9375C161.16 9.4502 162.436 10.2021 163.576 11.1934L160.978 15.4658C160.26 14.6911 159.412 14.0986 158.432 13.6885C157.452 13.2669 156.427 13.0562 155.356 13.0562C154.273 13.0562 153.259 13.2612 152.314 13.6714C151.368 14.0815 150.542 14.6398 149.836 15.3462C149.129 16.0412 148.571 16.8672 148.161 17.8242C147.751 18.7699 147.546 19.7782 147.546 20.8491C147.546 21.9201 147.751 22.9284 148.161 23.874C148.571 24.8083 149.129 25.6286 149.836 26.335C150.542 27.0413 151.368 27.5996 152.314 28.0098C153.259 28.4199 154.273 28.625 155.356 28.625C156.427 28.625 157.452 28.4199 158.432 28.0098C159.412 27.5882 160.26 26.9901 160.978 26.2153L163.576 30.4878ZM190.073 20.8491C190.073 22.0112 189.919 23.1335 189.612 24.2158C189.316 25.2868 188.894 26.2951 188.347 27.2407C187.8 28.175 187.139 29.0295 186.365 29.8042C185.59 30.5789 184.736 31.2454 183.801 31.8037C182.867 32.3506 181.859 32.7721 180.776 33.0684C179.694 33.376 178.572 33.5298 177.41 33.5298C176.248 33.5298 175.125 33.376 174.043 33.0684C172.972 32.7721 171.964 32.3506 171.018 31.8037C170.084 31.2454 169.229 30.5789 168.455 29.8042C167.68 29.0295 167.013 28.175 166.455 27.2407C165.908 26.2951 165.481 25.2868 165.173 24.2158C164.877 23.1335 164.729 22.0112 164.729 20.8491C164.729 19.687 164.877 18.5648 165.173 17.4824C165.481 16.4001 165.908 15.3918 166.455 14.4575C167.013 13.5233 167.68 12.6688 168.455 11.894C169.229 11.1193 170.084 10.4585 171.018 9.91162C171.964 9.36475 172.972 8.9432 174.043 8.64697C175.125 8.33936 176.248 8.18555 177.41 8.18555C178.572 8.18555 179.694 8.33936 180.776 8.64697C181.859 8.9432 182.867 9.36475 183.801 9.91162C184.736 10.4585 185.59 11.1193 186.365 11.894C187.139 12.6688 187.8 13.5233 188.347 14.4575C188.894 15.3918 189.316 16.4001 189.612 17.4824C189.919 18.5648 190.073 19.687 190.073 20.8491ZM185.203 20.8491C185.203 19.7782 184.998 18.7699 184.587 17.8242C184.177 16.8672 183.619 16.0412 182.913 15.3462C182.218 14.6398 181.392 14.0815 180.435 13.6714C179.489 13.2612 178.481 13.0562 177.41 13.0562C176.327 13.0562 175.313 13.2612 174.368 13.6714C173.422 14.0815 172.596 14.6398 171.89 15.3462C171.183 16.0412 170.625 16.8672 170.215 17.8242C169.805 18.7699 169.6 19.7782 169.6 20.8491C169.6 21.9201 169.805 22.9284 170.215 23.874C170.625 24.8083 171.183 25.6286 171.89 26.335C172.596 27.0413 173.422 27.5996 174.368 28.0098C175.313 28.4199 176.327 28.625 177.41 28.625C178.481 28.625 179.489 28.4199 180.435 28.0098C181.392 27.5996 182.218 27.0413 182.913 26.335C183.619 25.6286 184.177 24.8083 184.587 23.874C184.998 22.9284 185.203 21.9201 185.203 20.8491Z" fill="white"/>
<path d="M8.83794 30.74L15.3703 20.7493C10.6055 19.9808 7.49304 22.4785 6.53239 23.8234L0 33.0456H5.37961C7.07035 33.0456 8.38964 31.5085 8.83794 30.74Z" fill="#92DC63"/>
<path d="M8.83794 9.99044L15.3703 19.9812C10.6055 20.7497 7.49304 18.252 6.53239 16.9071L0 7.68489H5.37961C7.07035 7.68489 8.38964 9.22193 8.83794 9.99044Z" fill="#92DC63"/>
<path d="M10.3747 8.83794L20.3654 15.3703C21.1339 10.6055 18.6363 7.49304 17.2914 6.53239L8.06917 -5.43774e-07L8.06917 5.37961C8.06917 7.07035 9.6062 8.38964 10.3747 8.83794Z" fill="#92DC63"/>
<path d="M31.1248 8.83794L21.1341 15.3703C20.3656 10.6055 22.8632 7.49304 24.2081 6.53239L33.4303 5.43774e-07L33.4303 5.37962C33.4303 7.07035 31.8933 8.38964 31.1248 8.83794Z" fill="#92DC63"/>
<path d="M10.3747 31.8925L20.3654 25.3601C21.1339 30.1249 18.6363 33.2374 17.2914 34.1981L8.06917 40.7305L8.06917 35.3509C8.06917 33.6601 9.6062 32.3408 10.3747 31.8925Z" fill="#92DC63"/>
<path d="M31.1248 31.8925L21.1341 25.3601C20.3656 30.1249 22.8632 33.2374 24.2081 34.1981L33.4303 40.7305L33.4303 35.3509C33.4303 33.6601 31.8933 32.3408 31.1248 31.8925Z" fill="#92DC63"/>
<path d="M32.6616 9.99044L26.1292 19.9812C30.894 20.7497 34.0065 18.252 34.9671 16.9071L41.4995 7.68489H36.1199C34.4292 7.68489 33.1099 9.22193 32.6616 9.99044Z" fill="#92DC63"/>
<path d="M32.6616 30.74L26.1292 20.7493C30.894 19.9808 34.0065 22.4785 34.9671 23.8234L41.4995 33.0456H36.1199C34.4292 33.0456 33.1099 31.5085 32.6616 30.74Z" fill="#92DC63"/>
</svg>
